<svg height="512pt" viewBox="-129 0 512 512" width="512pt" xmlns="http://www.w3.org/2000/svg"><path d="m181.667969 221.769531-9.503907-22.398437 8.574219-59.492188c2.789063 1.949219 4.820313 4.921875 5.53125 8.351563l4.296875 20.769531 29.4375-6.09375-4.300781-20.765625c-3.261719-15.769531-15.15625-28.523437-30.535156-32.996094l.046875-.324219-38.769532-8.773437c18.949219-7.757813 32.339844-26.386719 32.339844-48.097656 0-28.644531-23.304687-51.949219-51.949218-51.949219-28.644532 0-51.949219 23.304688-51.949219 51.949219 0 21.714843 13.394531 40.347656 32.351562 48.101562l-38.75 8.769531.046875.3125c-15.394531 4.46875-27.304687 17.230469-30.570312 33.007813l-4.300782 20.769531 29.4375 6.089844 4.300782-20.769531c.710937-3.441407 2.753906-6.421875 5.5625-8.375l8.578125 59.515625-14.683594 34.59375c-8.578125 20.21875-12.207031 41.851562-10.78125 63.507812 37.101563-5.070312 69.261719-19.054687 95.691406-41.644531 17.339844-14.820313 26.855469-29.074219 29.898438-34.058594zm0 0"/><path d="m224.9375 481.941406v-49.972656h-52.058594l19.796875-102.980469c-30.625 45.683594-76.839843 63.703125-118.238281 69.742188l6.386719 33.238281h-52.09375v49.972656h-28.730469v30.058594h253.667969v-30.058594zm0 0"/><path d="m174.855469 300.292969c7.21875-13.589844 11.546875-27.222657 14.152343-38.785157-4.636718 5.105469-10.113281 10.582032-16.5 16.128907-21.625 18.785156-58.179687 42.027343-111.828124 49.542969l8.082031 42.035156c49.710937-6.753906 85.34375-29.867188 106.09375-68.921875zm0 0"/></svg>