<svg id="Capa_1" enable-background="new 0 0 512 512" height="512" viewBox="0 0 512 512" width="512" xmlns="http://www.w3.org/2000/svg"><g><path d="m76 512h360c8.291 0 15-6.709 15-15s-6.709-15-15-15c-8.262 0-15-6.724-15-15 0-8.291-6.709-15-15-15h-300c-8.291 0-15 6.709-15 15 0 8.276-6.738 15-15 15-8.291 0-15 6.709-15 15s6.709 15 15 15z"/><path d="m121 422h270v-181h-270zm180-151c0-8.291 6.709-15 15-15s15 6.709 15 15v121c0 8.291-6.709 15-15 15s-15-6.709-15-15zm-60 0c0-8.291 6.709-15 15-15s15 6.709 15 15v121c0 8.291-6.709 15-15 15s-15-6.709-15-15zm-60 0c0-8.291 6.709-15 15-15s15 6.709 15 15v121c0 8.291-6.709 15-15 15s-15-6.709-15-15z"/><path d="m112.174 61.892c2.946-.293 5.803-.892 8.826-.892h270c3.023 0 5.88.599 8.826.892l19.592-40.183c2.314-4.644 2.08-10.166-.645-14.59-2.753-4.424-7.587-7.119-12.773-7.119h-300c-5.186 0-10.02 2.695-12.773 7.119-2.725 4.424-2.959 9.946-.645 14.59z"/><path d="m121 211h7.5c12.299 0 22.5-10.201 22.5-22.5 0-12.301-10.201-22.5-22.5-22.5-8.401 0-15-6.601-15-15 0-8.401 6.599-15 15-15 28.801 0 52.5 23.699 52.5 52.5 0 8.099-2.1 15.599-5.4 22.5h160.8c-3.3-6.901-5.4-14.401-5.4-22.5 0-28.801 23.699-52.5 52.5-52.5 8.401 0 15 6.599 15 15 0 8.399-6.599 15-15 15-12.299 0-22.5 10.199-22.5 22.5 0 12.299 10.201 22.5 22.5 22.5h7.5c32.999 0 60-27.001 60-60 0-33.001-27.001-60-60-60h-270c-32.999 0-60 26.999-60 60 0 32.999 27.001 60 60 60zm165-75c8.284 0 15 6.714 15 15 0 8.284-6.716 15-15 15s-15-6.716-15-15c0-8.286 6.716-15 15-15zm-60 0c8.284 0 15 6.714 15 15 0 8.284-6.716 15-15 15s-15-6.716-15-15c0-8.286 6.716-15 15-15z"/></g></svg>