<svg id="Capa_1" enable-background="new 0 0 510 510" height="512" viewBox="0 0 510 510" width="512" xmlns="http://www.w3.org/2000/svg"><g><path d="m90 255h330v30h-330z"/><path d="m255 390c-24.812 0-45 20.186-45 45v75h90v-75c0-24.814-20.186-45-45-45z"/><path d="m465 450h-45v-30h45v-45h-45v-30h45v-30h-420v30h45v30h-45v45h45v30h-45v30h-30v30h165v-60h-30v-30h31.509c6.969-34.192 37.272-60 73.491-60s66.522 25.808 73.49 60h31.51v30h-30v60h165v-30h-30z"/><path d="m469.107 85.477c-17.277-23.037-31.017-48.467-40.838-75.585l-3.584-9.892h-339.372l-3.582 9.893c-9.82 27.115-23.559 52.545-40.84 75.584l-3.391 4.523h435z"/><path d="m56.25 120h397.5v30h-397.5z"/><path d="m465 180h-420l-33.75 45h487.5z"/></g></svg>