<svg xmlns="http://www.w3.org/2000/svg" viewBox="0 0 280.7 270.6"><path fill="#FFF" d="M16.5 187.5v-117L117.6 9.2l100.9 61.3v117l-101 59.3z"/><path fill="#5A1D5F" d="M36.1 169.3V87.9c0-2.8 1.4-5.3 3.8-6.7l71.2-42.6c2.5-1.5 5.6-1.5 8.1 0l71 42.6c2.4 1.4 3.8 4 3.8 6.7v81.4c0 2.8-1.5 5.4-3.9 6.8L119 217.3c-2.4 1.4-5.4 1.4-7.9 0L40 176.1c-2.4-1.4-3.9-4-3.9-6.8z"/><path fill="none" stroke="#5A1D5F" stroke-miterlimit="10" stroke-width="17" d="M9.8 177.2V80.4c0-7.3 3.8-14 10.1-17.8L104.5 12c6.6-3.9 14.8-3.9 21.3 0l84.4 50.6c6.2 3.7 10.1 10.5 10.1 17.8v96.8c0 7.4-3.9 14.2-10.3 17.9l-84.5 49c-6.4 3.7-14.4 3.7-20.8 0l-84.5-49c-6.4-3.7-10.4-10.5-10.4-17.9z"/><path fill="#FFF" stroke="#FFF" stroke-miterlimit="10" d="M124.7 85.6c.2-1.1 1.1-3.5 2.9-4.7 1.4-1 3.1-2.3 6.5-1.7 3.2.6 5.1 2.2 6.3 3.6.1.1.2.3.3.5.6 1.3.8 2.7.5 4.1l-1.3 8c-.3 1.9.4 3.9 2 4.9l.6.3h.6c2.3-.2 4.1-2 4.4-4.2.3-2 1-6.1 1.3-8.1.4-2.7.1-4-.4-6-.4-1.7-1.4-3.9-2.8-5.4-3.3-3.4-7.2-5.3-10.1-5.8-2.9-.5-8 .3-11.4 2.3-2.9 1.7-4.3 4.5-5.4 6.4-1 1.9-1.6 4-1.9 6.1l-14 85.6 21.9-85.9z"/><path fill="#FFF" stroke="#FFF" stroke-miterlimit="10" d="M103.2 170.5c-.2 1.1-1.1 3.5-2.9 4.7-1.4 1-3.1 2.3-6.5 1.7-3.2-.6-5.1-2.2-6.3-3.6-.1-.1-.2-.3-.3-.5-.6-1.3-.8-2.7-.5-4.1l1.3-8c.3-1.9-.4-3.9-2-4.9l-.6-.3h-.6c-2.3.2-4.1 2-4.4 4.2-.3 2-1 6.1-1.3 8.1-.4 2.7-.1 4 .4 6 .4 1.7 1.4 3.9 2.8 5.4 3.3 3.4 7.2 5.3 10.1 5.8 2.9.5 8-.3 11.4-2.3 2.9-1.7 4.3-4.5 5.4-6.4 1-1.9 1.6-4 1.9-6.1l14-85.6-21.9 85.9z"/><path fill="#A1A1A1" d="M212.2 268l66.2-69.2c3.1-3.3 3.1-8.4-.1-11.6l-28.1-28.4c-1.6-1.6-3.7-2.5-5.9-2.5h-75.9c-2.3 0-4.4.9-6 2.5L134 188.4c-3.1 3.2-3.1 8.3 0 11.6l66.3 68.1c3.3 3.4 8.7 3.3 11.9-.1z"/><path fill="#5A1D5F" d="M206.2 178.7v62.1c0 2.6 3.1 3.9 4.9 2.1l46.6-45.8c1.9-1.8 1.8-4.8-.1-6.6l-16-15.1c-.8-.8-2-1.2-3.1-1.2h-27.7c-2.6-.1-4.6 2-4.6 4.5z"/></svg>