<?xml version="1.0" encoding="utf-8"?>
<!-- Generator: Adobe Illustrator 17.1.0, SVG Export Plug-In . SVG Version: 6.00 Build 0)  -->
<!DOCTYPE svg PUBLIC "-//W3C//DTD SVG 1.1//EN" "http://www.w3.org/Graphics/SVG/1.1/DTD/svg11.dtd">
<svg version="1.1" xmlns="http://www.w3.org/2000/svg" xmlns:xlink="http://www.w3.org/1999/xlink" x="0px" y="0px"
	 viewBox="0 0 280.7 270.6" enable-background="new 0 0 280.7 270.6" xml:space="preserve">
<g id="Layer_2" display="none">
	<rect x="-468" y="-156" display="inline" fill="#C1272D" stroke="#000000" stroke-miterlimit="10" width="762" height="612"/>
</g>
<g id="Layer_1">
	<polygon fill="#FFFFFF" points="16.5,187.5 16.5,70.5 117.6,9.2 218.5,70.5 218.5,187.5 117.5,246.8 	"/>
	<path fill="#5A1D5F" d="M36.1,169.3V87.9c0-2.8,1.4-5.3,3.8-6.7l71.2-42.6c2.5-1.5,5.6-1.5,8.1,0l71,42.6c2.4,1.4,3.8,4,3.8,6.7
		v81.4c0,2.8-1.5,5.4-3.9,6.8L119,217.3c-2.4,1.4-5.4,1.4-7.9,0L40,176.1C37.6,174.7,36.1,172.1,36.1,169.3z"/>
	<path fill="none" stroke="#5A1D5F" stroke-width="17" stroke-miterlimit="10" d="M9.8,177.2V80.4c0-7.3,3.8-14,10.1-17.8l84.6-50.6
		c6.6-3.9,14.8-3.9,21.3,0l84.4,50.6c6.2,3.7,10.1,10.5,10.1,17.8v96.8c0,7.4-3.9,14.2-10.3,17.9l-84.5,49c-6.4,3.7-14.4,3.7-20.8,0
		l-84.5-49C13.8,191.4,9.8,184.6,9.8,177.2z"/>
	<path fill="#FFFFFF" stroke="#FFFFFF" stroke-miterlimit="10" d="M124.7,85.6c0.2-1.1,1.1-3.5,2.9-4.7c1.4-1,3.1-2.3,6.5-1.7
		c3.2,0.6,5.1,2.2,6.3,3.6c0.1,0.1,0.2,0.3,0.3,0.5c0.6,1.3,0.8,2.7,0.5,4.1l-1.3,8c-0.3,1.9,0.4,3.9,2,4.9c0.2,0.1,0.4,0.2,0.6,0.3
		c0.2,0,0.4,0,0.6,0c2.3-0.2,4.1-2,4.4-4.2c0.3-2,1-6.1,1.3-8.1c0.4-2.7,0.1-4-0.4-6c-0.4-1.7-1.4-3.9-2.8-5.4
		c-3.3-3.4-7.2-5.3-10.1-5.8c-2.9-0.5-8,0.3-11.4,2.3c-2.9,1.7-4.3,4.5-5.4,6.4c-1,1.9-1.6,4-1.9,6.1l-14,85.6L124.7,85.6z"/>
	<path fill="#FFFFFF" stroke="#FFFFFF" stroke-miterlimit="10" d="M103.2,170.5c-0.2,1.1-1.1,3.5-2.9,4.7c-1.4,1-3.1,2.3-6.5,1.7
		c-3.2-0.6-5.1-2.2-6.3-3.6c-0.1-0.1-0.2-0.3-0.3-0.5c-0.6-1.3-0.8-2.7-0.5-4.1l1.3-8c0.3-1.9-0.4-3.9-2-4.9
		c-0.2-0.1-0.4-0.2-0.6-0.3c-0.2,0-0.4,0-0.6,0c-2.3,0.2-4.1,2-4.4,4.2c-0.3,2-1,6.1-1.3,8.1c-0.4,2.7-0.1,4,0.4,6
		c0.4,1.7,1.4,3.9,2.8,5.4c3.3,3.4,7.2,5.3,10.1,5.8c2.9,0.5,8-0.3,11.4-2.3c2.9-1.7,4.3-4.5,5.4-6.4c1-1.9,1.6-4,1.9-6.1l14-85.6
		L103.2,170.5z"/>
	<path fill="#A1A1A1" d="M212.2,268l66.2-69.2c3.1-3.3,3.1-8.4-0.1-11.6l-28.1-28.4c-1.6-1.6-3.7-2.5-5.9-2.5h-75.9
		c-2.3,0-4.4,0.9-6,2.5L134,188.4c-3.1,3.2-3.1,8.3,0,11.6l66.3,68.1C203.6,271.5,209,271.4,212.2,268z"/>
	<path fill="#5A1D5F" d="M206.2,178.7v62.1c0,2.6,3.1,3.9,4.9,2.1l46.6-45.8c1.9-1.8,1.8-4.8-0.1-6.6l-16-15.1
		c-0.8-0.8-2-1.2-3.1-1.2h-27.7C208.2,174.1,206.2,176.2,206.2,178.7z"/>
</g>
</svg>
