<svg xmlns="http://www.w3.org/2000/svg" xmlns:xlink="http://www.w3.org/1999/xlink" filter="grayscale(1)" viewBox="0 0 923 519"><switch><g><defs><path id="a" d="M0-.1h922.9V519H0z"/></defs><clipPath id="c"><use overflow="visible" xlink:href="#a"/></clipPath><linearGradient id="b" x1="686.655" x2="686.655" y1="519.11" y2="256.61" gradientUnits="userSpaceOnUse"><stop offset="0" stop-color="#bb469f"/><stop offset="1" stop-color="#a03891"/></linearGradient><path fill="url(#b)" d="M540 256.6h293.3v262.5H540z" clip-path="url(#c)"/><path fill="#231F20" stroke="#231F20" stroke-miterlimit="10" d="M692.7 327.3s-10.6 17.7-12.2 31.6c-1.3 11.1-3.1 25.7 6.5 38.4 9.7 12.7 23.7 26 33.7 36s14.5 20.3 14.5 35-28.2.8-36.2 6.2c-8 5.3-126.3-7.8-126.3-7.8l-8-132.7 128-6.7zm246.1 205.6c0-.3-145.9-13.6-145.8-13.9 1.2-16.5 1.9-66.1-2.1-82.1-30.5-124.1 28.6-230 128.9-283.4" clip-path="url(#c)" opacity=".38"/><linearGradient id="d" x1="549.708" x2="741.293" y1="351.749" y2="462.36" gradientUnits="userSpaceOnUse"><stop offset=".199" stop-color="#b24498"/><stop offset=".689" stop-color="#782879"/><stop offset="1" stop-color="#5c2567"/></linearGradient><path fill="url(#d)" d="M688 327.3s-10.6 17.7-12.2 31.6c-1.3 11.1-3.1 25.7 6.5 38.4 9.7 12.7 23.7 26 33.7 36s20.2 15.4 20.2 30.1-3.1 11.3-11.1 16.6c-8 5.3-157.1-13.3-157.1-13.3L560 334l128-6.7z" clip-path="url(#c)"/><g clip-path="url(#c)"><defs><path id="e" d="M535.5 393.4l58.3 17.3c8.9-25.8 44.1-58 88.9-73.4C719 325 766.1 315.2 799 299.2c.3-.1 15-40 15.2-40.2"/></defs><clipPath id="f"><use overflow="visible" xlink:href="#e"/></clipPath><path fill="#231F20" stroke="#231F20" stroke-miterlimit="10" d="M590.7 416.3s16.8-31 32.7-44c16.1-13.2 44-32 68-37.3s46-13.3 65.3-18.7c19.3-5.3 58-24.7 58-24.7s108.3-86 108.3-93.3V7.7H570.7l-4 408.6h24z" clip-path="url(#f)" opacity=".38"/></g><g clip-path="url(#c)"><defs><path id="g" d="M197.2-.1s72 265 176.1 373.4C464.8 468.6 590 409.1 590 409c9.3-27.9 45.9-62.7 92.5-79.3 37.7-13.4 86.8-24 120.9-41.3.3-.1 266.6-288.4 266.9-288.5"/></defs><clipPath id="h"><use overflow="visible" xlink:href="#g"/></clipPath><path fill="#C859A0" d="M590.7 408.6s16-32 32.7-44 44-32 68-37.3c24-5.3 46-13.3 65.3-18.7 19.3-5.3 58-24.7 58-24.7s108.3-86 108.3-93.3V0H570.7l-4 408.6h24z" clip-path="url(#h)"/></g><path fill="#231F20" stroke="#231F20" stroke-miterlimit="10" d="M346.4 153.6c.2.2 336.8-8 336.9-7.8 21.1 25.9 58.1 72.9 60.5 99.1 5.9 64.7-154.5 114-155.1 140.7-.9 40.4 132.3 47.7 134.9 84.7 1.7 24.4-476.4 62-476 62" clip-path="url(#c)" opacity=".38"/><g clip-path="url(#c)"><defs><path id="i" d="M340.8 152.6c.2.2 340.9-2.1 341.1-1.9 21 25.9 53.2 67 55.6 93.2 5.8 64.7-154.2 114-154.8 140.7-.9 40.4 155.5 48.3 158.1 85.3 1.7 24.4-26.2 44.2-30.8 48.7-.7.7-468.2 12.6-467.7 12.6"/></defs><clipPath id="k"><use overflow="visible" xlink:href="#i"/></clipPath><linearGradient id="j" x1="254.655" x2="751.923" y1="333.233" y2="333.233" gradientUnits="userSpaceOnUse"><stop offset="0" stop-color="#5c2567"/><stop offset=".408" stop-color="#962e8b"/><stop offset=".73" stop-color="#dd64a5"/><stop offset="1" stop-color="#de6297"/></linearGradient><path fill="url(#j)" d="M731 519.1c4.5 2.6 19.3-22.4 17.8-35.7-1.2-10.4 9.3-16.3-2.3-25-7.5-5.6-93.2-36.6-93.2-36.6s-37.6-10.4-43-13.2c-5.4-2.8-23.3-11.2-24.5-18.5-.9-5.3-1.4-10 8.9-18.7s26.4-17.4 39.9-24.7c13.9-7.6 39.6-21.8 51.6-28.7 11.9-6.9 24.8-12.7 37.8-24.7 13.1-12 22-26.7 23.4-38.7.6-5.5.9-13.9-.2-21.7-1.2-9.1-11.4-25.7-15.5-32.1-2.9-4.5-7.5-11.4-10.4-15-7-8.8-33.8-38.5-33.8-38.5l-407 .5-25.6 371.4H731z" clip-path="url(#k)"/></g><path fill="#231F20" stroke="#231F20" stroke-miterlimit="10" d="M266.7 519c1.3 0 42.5-14.4 50.5-17.8 8.2-3.5 38.6-18.9 49.5-27.9 4-3.3 12-9.7 18.6-16.9 9.6-10.3 18.1-22.7 21.4-29.1 8.9-17.3 20.7-51.3 25.3-62 4.7-10.7 7.3-18.7 13.3-28.7s84-55.3 84-55.3 21.3-1.3 34-6 44.8-18.7 58-28c7-4.9 14.7-10.4 21.3-16.4 11-10 20.2-21 26-29 9.3-12.7 26-42 29.3-58.7 3.3-16.7 4.7-30.7 0-50s-12.5-36.4-20-47.3c-9.2-13.3-17.6-22.9-26.2-30.3C637.7 3.4 629.3 0 629.3 0l-58.2-.1-392.4 385.4-57 133.7h145z" clip-path="url(#c)" opacity=".38"/><g clip-path="url(#c)"><defs><path id="l" d="M686.7 130.3c-13.4 84-99.8 148.4-172 147.3-15.4-.2-108.4 250-120.2 245.3-34.9-14.1-339.8 21.7-348.5-19.6-3.4-16.4 359-355.2 359-373.8 0-81.8 48.3-155.8 126.7-155.8s167.8 75.8 155 156.6z"/></defs><clipPath id="n"><use overflow="visible" xlink:href="#l"/></clipPath><linearGradient id="m" x1="109.655" x2="689.009" y1="259.519" y2="259.519" gradientUnits="userSpaceOnUse"><stop offset="0" stop-color="#f568c1"/><stop offset=".24" stop-color="#b24498"/><stop offset=".607" stop-color="#84267f"/><stop offset="1" stop-color="#64136f"/></linearGradient><path fill="url(#m)" d="M254.7 519.1c1.3 0 46.3-16.2 54.3-19.5 8.9-3.6 34.3-18.2 45.7-26.3 4.2-3 12-9.7 18.6-16.9 9.6-10.3 18.1-22.7 21.4-29.1 8.9-17.3 20.7-51.3 25.3-62 4.7-10.7 7.3-18.7 13.3-28.7s84-55.3 84-55.3 21.3-1.3 34-6 44.8-18.7 58-28c7-4.9 14.7-10.4 21.3-16.4 11-10 20.2-21 26-29 9.3-12.7 26-42 29.3-58.7 3.3-16.7 4.7-30.7 0-50C681.3 74 673.5 56.9 666 46c-9.2-13.3-17.6-22.9-26.2-30.3C625.7 3.4 617.3 0 617.3 0l-58.2-.1-392.4 385.4-57 133.7h145z" clip-path="url(#n)"/></g><path fill="#231F20" stroke="#231F20" stroke-miterlimit="10" d="M116 396.4c.3-.2 56.1-5.4 56.4-5.6C187 380.3 225 357.7 284 344.3c50.4-11.4 178.8 18.7 217.7-1C573.5 306.9 604.1 172.1 578-.1c-.1-.8-436.7 0-439.2.1" clip-path="url(#c)" opacity=".38"/><g clip-path="url(#c)"><defs><path id="o" d="M108.7 389.5c.3-.2 57.4-1 57.8-1.2 14.6-10.2 51.2-36.5 110.2-49.6 50.4-11.1 178.8 18.2 217.7-1 71.8-35.4 101.9-170.5 75.7-338.3-.1-.8-437.3-16-437.4-16.7"/></defs><clipPath id="q"><use overflow="visible" xlink:href="#o"/></clipPath><linearGradient id="p" x1="134.979" x2="593.177" y1="205.635" y2="124.842" gradientUnits="userSpaceOnUse"><stop offset="0" stop-color="#de6297"/><stop offset=".342" stop-color="#dd64a5"/><stop offset="1" stop-color="#64136f"/></linearGradient><path fill="url(#p)" d="M166.7 385.3s51-31.2 75.3-37.3c12.7-3.2 26-8.3 42.4-10.7 15.2-2.2 33.5-2.2 47-2 17.9.2 94.6 11.3 101.2 11.3s24.7 3.3 44-1.3c19.3-4.7 46.3-26.6 56-38 8.3-9.6 22.4-30.6 27.3-47.8 7.5-25.9 13.3-59.1 15.3-70.2 5.1-27.3 4.2-65 3.5-86.7-.6-16.8-2.3-56.6-3.5-67.3-1.9-16.8-4.3-36.5-4.2-35.3H166.7l-17.5 271.8 17.5 113.5z" clip-path="url(#q)"/></g><path fill="#231F20" stroke="#231F20" stroke-miterlimit="10" d="M-10.3 520c.3-.5 136.3-1 136.6-1.5 21.8-32.5 38.9-63.9 48.3-109.7 8.2-40-11-109.4-8-156.5 1.7-27.5 23.5-47.7 43.6-54.7C226.9 191.7 8.4-1 8-1" clip-path="url(#c)" opacity=".38"/><g clip-path="url(#c)"><defs><path id="r" d="M544.3 92.9c0 39.4-25.2 76.3-66.8 97.1-25.6 12.7-58.6 18-92 18-87.7 0-158.8-51.5-158.8-115.1S297.8-22.2 385.5-22.2 544.3 29.3 544.3 92.9z"/></defs><clipPath id="s"><use overflow="visible" xlink:href="#r"/></clipPath><path fill="#231F20" stroke="#231F20" stroke-miterlimit="10" d="M307.9 192.9c.8.9 1.4 2.1 1.4 3.4v2.5c.5 1-.7-.9 0 0 18.4 3.3 55.4 9.6 72 9.1 19.1-.6 43.3-1 61.2-4 12.3-2 47.5-11.1 64.7-29.9 5.3-5.9 16.8-17.5 22.8-27.8 9.1-15.8 14.2-28.9 15.3-36.6.8-5.9.8-15.3.2-24-.8-11-3.7-21.7-4.8-25.1-2.3-6.3-9.1-14.8-14.2-21.8-8.5-11.9-19.1-19.8-22-22.3C499.7 12.2 481.7 0 481.7 0h-15" clip-path="url(#s)" opacity=".3"/></g><g clip-path="url(#c)"><defs><path id="t" d="M-17.9 521c.3-.5 136.3-1 136.6-1.5 21.8-32.5 38.9-63.9 48.3-109.7 8.2-40-11-109.4-8-156.5 1.7-27.5 15-44.2 35.1-51.2 16.7-5.8 47.3-8.9 82.6-5.7 52.7 4.8 117 17.2 170.1 2.6 33.6-9.3 58-31.2 75-61.5C554 80.1 506.6 5 465.2.1L.4 0"/></defs><clipPath id="v"><use overflow="visible" xlink:href="#t"/></clipPath><linearGradient id="u" x1="-.335" x2="550.004" y1="260.823" y2="260.823" gradientUnits="userSpaceOnUse"><stop offset="0" stop-color="#d564a5"/><stop offset=".342" stop-color="#962e8b"/><stop offset="1" stop-color="#64136f"/></linearGradient><path fill="url(#u)" d="M117.7 524s17.3-13.1 31.1-43.7c13.8-30.7 23-72.5 24.9-84.1 1-6.2 5.4-39.3-.7-63.9-10.6-42.3-12.5-50.8-12.3-60.9.1-8.6-.1-27.8 8.2-38.5 8.3-10.7 26-24.2 38-28 12.6-4 30.9-7.3 47.6-7.3 13.5 0 30.6 2 51.1 4.7 20.2 2.7 62.1 7.3 78 7.3s43.6-1.8 62.1-4.7c12.8-2 49.2-10.9 66.9-29.3 5.5-5.8 16.1-18.4 22.1-28.7 7.9-13.7 11.3-27.8 12.4-35.3.9-5.7 2.9-14.8 3.1-23.2.2-10.8-1.9-20.9-3.1-24.2C544.5 58 540.2 50 535 43c-8.8-11.7-19.6-21.6-22.6-24.1-4.8-4-25.1-21.3-25.1-21.3L-.3 5v519h118z" clip-path="url(#v)"/></g><path fill="#231F20" stroke="#231F20" stroke-miterlimit="10" d="M0 378.3s53.4-20.9 81.2-39.5c22.6-15.1 27-17.3 47.6-46.9s25.4-60.1 36.8-76.4c3.8-5.3 8.9-11 14.5-16.5 12-11.6 27.2-22.5 43.3-26.8 22.8-6 34.8-7.9 56.8-7.5s45.3.4 57-6.8c12.8-7.8 21.4-16.7 34.7-35.3 7.5-10.5 19-41.8 20.5-55.9 2.1-19.6 2.5-24.5 1.9-44.4S390.2-.1 390.2-.1H0v378.4z" clip-path="url(#c)" opacity=".38"/><g clip-path="url(#c)"><defs><path id="w" d="M-20.3-26.4C-20.2-26.5.2 353.1.3 353c6.4-5.9 54.2-19.5 95.1-46.3 42.2-27.6 59.6-101.9 83.3-121.5 14-11.6 32.3-24.2 54-28.5 33-6.6 71.3.7 91.4-4.9 50.5-14 73.6-112 60.6-151.9l-59-32.1"/></defs><clipPath id="y"><use overflow="visible" xlink:href="#w"/></clipPath><linearGradient id="x" x1="-73.962" x2="367.502" y1="225.17" y2="-29.709" gradientUnits="userSpaceOnUse"><stop offset="0" stop-color="#64136f"/><stop offset=".423" stop-color="#962e8b"/><stop offset=".786" stop-color="#dd62a5"/><stop offset=".995" stop-color="#dd6297"/></linearGradient><path fill="url(#x)" d="M0 353.3s55.9-16.9 81.7-36.3c22.8-17.2 25-16.7 45.3-44.3s29.7-51 43-64.7c13.3-13.7 28-43 52-45.7 24-2.7 40.6-3.8 57-4 21.7-.2 41.6-3.3 53.2-10 12.6-7.3 26-21.9 34.5-33.7 3-4.1 9.1-14.7 13.2-25.5 4.2-11.4 6.4-23 7-26.7 2.3-13.3 3.2-18.3 2.5-36.9-.7-18.6-4.7-25.5-4.7-25.5H0v353.3z" clip-path="url(#y)"/></g><linearGradient id="z" x1="-29.899" x2="175.665" y1="97.012" y2="22.193" gradientUnits="userSpaceOnUse"><stop offset="0" stop-color="#8a3771" stop-opacity="0"/><stop offset=".907" stop-color="#8a3771" stop-opacity=".936"/><stop offset=".969" stop-color="#8a3771"/></linearGradient><path fill="url(#z)" d="M-2 173.7c-.2.1 35.5-29.2 51.1-40 26.9-18.6 73.9-28.7 94-41.5 12.2-7.8 17.6-16.3 22.7-24.6 4.7-7.6 6.8-16.8 7-32 .1-6.3-.6-12.8-1.1-17.6C170.2 5 167.6.6 167.4.1H-2v173.6z" clip-path="url(#c)"/><linearGradient id="A" x1="167.09" x2="-27.364" y1="24.323" y2="95.098" gradientUnits="userSpaceOnUse"><stop offset="0" stop-color="#5c2567"/><stop offset=".056" stop-color="#69266f"/><stop offset=".135" stop-color="#742877"/><stop offset=".22" stop-color="#782879"/><stop offset=".531" stop-color="#962e8b"/><stop offset=".631" stop-color="#9c338d"/><stop offset=".759" stop-color="#ab4094"/><stop offset=".901" stop-color="#c5579f"/><stop offset=".913" stop-color="#c859a0"/></linearGradient><path fill="url(#A)" d="M0 170.3c-.2.1 33.8-28.7 48.7-39.3 25.6-18.3 68.7-25.3 89.5-40.8 11.2-8.3 17.1-15.6 21.6-24.1 4.1-7.7 6.9-16 6.3-30.9-1.3-28.1-9.6-35.3-9.6-35.3L0 0v170.3z" clip-path="url(#c)"/><g clip-path="url(#c)"><defs><path id="B" d="M944.3 532.9c0-.3-145.9-13.6-145.8-13.9 1.2-16.5 1.9-66.1-2.1-82.1-30.5-124.1 28.6-230 128.9-283.4"/></defs><clipPath id="D"><use overflow="visible" xlink:href="#B"/></clipPath><linearGradient id="C" x1="855.76" x2="855.76" y1="154.588" y2="519" gradientUnits="userSpaceOnUse"><stop offset="0" stop-color="#64136f"/><stop offset=".08" stop-color="#6c1b73"/><stop offset=".24" stop-color="#782879"/><stop offset=".449" stop-color="#962e8b"/><stop offset=".632" stop-color="#b24498"/><stop offset=".847" stop-color="#c85aa0"/><stop offset="1" stop-color="#d154ad"/></linearGradient><path fill="url(#C)" d="M792.7 519c.7 0 4.7-30.2 1.9-46.2-3.6-20.7-6.6-56.3-8.1-71.5-2.1-20.7-1.4-42.7 0-58.7s5.9-43.3 12.8-60.6c6.7-16.9 14.2-29.7 25.6-46.2 6.5-9.3 16.9-25.3 40.4-43.3 23.5-18 49.7-34.6 57.6-37.9 7.9-3.3 0 364.4 0 364.4H792.7z" clip-path="url(#D)"/></g><path fill="none" d="M606.7 479c.6-.8 461.2 1.1 462.4 0 8.1-8.4 28-28.7 37.5-51.7 1.4-3.4-.7-9.4-4.8-12.9-27.3-23.4-158.7-45.6-159.8-67.8-1.7-36 158.9-82.4 157.1-140.8-1.3-43.4-42.9-84.1-51-95.2-.4-.6-347.7-6.9-347.9-7.3" clip-path="url(#c)"/></g></switch></svg>