<svg xmlns="http://www.w3.org/2000/svg" xmlns:xlink="http://www.w3.org/1999/xlink" viewBox="0 0 194.4 89.6"><style>.st0{display:none}.st1{display:inline}.st2,.st3{fill:none;stroke:#ab0d6a;stroke-width:27}.st3{stroke:#f2f2f2;stroke-width:10}.st8,.st9{stroke:#f2f2f2;stroke-miterlimit:10}.st8{display:inline;fill:none}.st9{fill:#fff}.st11,.st12{display:none;fill:none;stroke:#f2f2f2}.st12{stroke-miterlimit:10}</style><switch><g><g id="Layer_5" class="st0"><path d="M-561.9-453.8h1267v1039h-1267z" class="st1"/></g><g id="Layer_4" class="st0"><path d="M594.4-9.6c-.8-4-1.8-7.7-2.9-11.1-2-5.9-4.3-12.5-7-19.6-4.1-10.9-9.3-22.7-16.3-34.4-3.2-5.4-6.8-10.8-10.9-16-4.1-5.3-8.7-10.4-13.9-15.3-15.5-14.5-34.5-26.7-52.7-35.9-16.7-8.4-32.8-14.2-44.8-16.7-9.4-2-18.9-3.1-28.4-3.4-18.5-.5-37.2 2.1-56 7.3-25.9 7.2-51.9 19.5-77.9 35.4-24.6 15.1-49.2 33.6-73.4 54.1C192.3-50 174.5-33.7 157-16.7 116.3 22.8 77 65.8 39.7 106.6c-4.4 4.9-8.9 9.6-13.5 14.3-4.5 4.6-9.2 9.2-13.9 13.6-9.9 9.2-20.1 18-30.3 26.3-10.6 8.5-21.2 16.5-31.5 23.9-10.8 7.7-21.3 14.7-31.1 20.9-1.2.8-2.4 1.5-3.6 2.3-9.2 5.8-17.7 10.7-25.1 14.8-2.9 1.6-5.7 3.1-8.3 4.4-4.8 2.4-11.1 4.8-18.4 7-10.4 3.2-22.9 6-35.8 8.5-12.9 2.4-26.2 4.4-38.2 5.8-12.1 1.4-22.9 2.1-30.8 2.1-2.7 0-2-.1-7.4-1.6-4.2-1.2-7-1.6-7.7-2 58.7 32.5 153.2 28 220.5 9.6 11.4-3.1 22-6.6 31.6-10.3 22.3-8.6 44.7-17.3 66-28.2 50-25.7 103-56.3 123.8-68.1 5.3-3 8.4-4.7 9-4.9 1.1 1 2.8 2.5 4.8 4.3 2.4 2.2 5.3 5 8.8 8.2 3.5 3.2 7.5 6.9 12 10.8 4.5 4 9.4 8.3 14.8 12.8 5.3 4.5 11.1 9.2 17.2 14 17.4 13.7 37.7 28 59.5 40.2 9.3 5.2 18.9 10 28.6 14.2 13.3 5.8 26.8 10.3 40.2 13.6 23.8 5.7 47.2 7.2 68.9 3.5 10.2-1.7 20-4.6 29.3-8.8 7-2.5 14.1-6.1 19.2-9.1 7.5-4.5 18.1-14.7 28.1-28.6 6.9-9.6 13.8-20.4 20.1-30.6 6.3-10.2 11.9-19.8 16.3-27 5.7-9.3 10.4-19 14.2-29.1 4.1-10.9 7.8-23 10.9-35.7 3-12.4 5.4-25.3 7-38 1.5-11.2 2.3-22.3 2.5-32.9v-4c-.2-11.9-1.1-22.9-3-32.4z" class="st2"/><path d="M-143 270.7c-30.5 0-57.9-3.7-81-10.9 4.5-.4 9.4-.8 14.6-1.4 12.6-1.4 25.9-3.5 38.6-5.8 13.8-2.6 26.3-5.6 36.3-8.6 7.9-2.4 14.4-4.9 19.2-7.3 2.6-1.3 5.5-2.8 8.4-4.4 7.9-4.3 16.5-9.4 25.4-14.9 1.2-.7 2.4-1.5 3.6-2.3 10.4-6.6 21-13.7 31.3-21.1 10.9-7.8 21.6-15.9 31.7-24.1 10.8-8.8 21.1-17.7 30.6-26.5 4.6-4.3 9.4-9 14.1-13.7 4.5-4.6 9.1-9.4 13.7-14.4C79 76.1 119.4 31.9 160.5-8c18.7-18.2 36.1-34 52.9-48.3 25.8-21.9 49.6-39.4 72.8-53.7 26.7-16.4 52.5-28.1 76.6-34.9 17.1-4.8 33.8-7.2 49.8-7.2 1.5 0 3.1 0 4.6.1 9.3.3 18.5 1.4 27.5 3.3 12.2 2.6 28.1 8.5 43.6 16.3 13.9 7 34.1 18.7 51.5 35.1 4.7 4.4 9.2 9.4 13.4 14.7 3.7 4.8 7.3 10 10.6 15.5 5.8 9.8 10.9 20.5 15.9 33.6 2.4 6.4 4.5 12.5 6.4 17.8l.6 1.6c1.1 3.1 2 6.6 2.8 10.4 1.8 8.9 2.7 19.4 2.7 31.3v4c-.2 10.2-1 21.1-2.5 32.3-1.6 12.5-4 25.1-6.9 37.5-3.1 12.7-6.7 24.5-10.7 35.1-3.9 10.1-8.4 19.4-13.8 28.3-1.8 3-3.9 6.5-6.1 10.2-3.1 5.1-6.5 10.9-10.2 16.8-7.7 12.6-14.1 22.2-19.9 30.3-10.6 14.7-20.7 23.7-26.5 27.2-3.5 2.1-10.6 6-18.3 8.7l-.2.1-.2.1c-8.7 3.9-18.2 4.6-28.1 6.3-7.6 1.3-15.6-.2-23.8-.2-13.7 0-28.2.3-43-3.3-12.9-3.1-26.2-6.5-39.3-12.2-9.1-3.9-18.6-8.1-28.1-13.5-18.8-10.6-38.6-23.7-58.8-39.5-5.6-4.4-11.4-8.9-17.1-13.7-4.8-4-9.7-8.2-14.7-12.6-3.8-3.4-7.7-6.9-11.9-10.7-2.2-2.1-4.3-3.9-6.1-5.6l-2.8-2.5c-1.8-1.7-3.6-3.3-4.9-4.5l-2-1.7-2.6.7c-.9.2-1.3.3-10.2 5.4-3.1 1.8-7 4-11.5 6.5-24.4 13.9-69.7 39.7-112.1 61.4-20.8 10.7-43.2 19.4-64.8 27.7l-.7.3c-9.5 3.7-20 7.1-31.1 10.1-33.6 9-71.3 14.1-106.3 14.1z" class="st3"/><path d="M-397 99.8c.8 4 1.8 7.7 2.9 11.1 2 5.9 4.3 12.5 7 19.6 4.1 10.9 9.3 22.7 16.3 34.4 3.2 5.4 6.8 10.8 10.9 16 4.1 5.3 8.7 10.4 13.9 15.3 15.5 14.5 34.5 26.7 52.7 35.9 16.7 8.4 32.8 14.2 44.8 16.7 9.4 2 18.9 3.1 28.4 3.4 18.5.5 37.2-2.1 56-7.3 25.9-7.2 51.9-19.5 77.9-35.4 24.6-15.1 49.2-33.6 73.4-54.1 17.9-15.2 35.7-31.5 53.2-48.5 40.6-39.4 80-82.4 117.2-123.2 4.4-4.9 8.9-9.6 13.5-14.3 4.5-4.6 9.2-9.2 13.9-13.6 9.9-9.2 20.1-18 30.3-26.3 10.6-8.5 21.2-16.5 31.5-23.9 10.8-7.7 21.3-14.7 31.1-20.9 1.2-.8 2.4-1.5 3.6-2.3 9.2-5.8 17.7-10.7 25.1-14.8 2.9-1.6 5.7-3.1 8.3-4.4 4.8-2.4 11.1-4.8 18.4-7 10.4-3.2 22.9-6 35.8-8.5 12.9-2.4 26.2-4.4 38.2-5.8 12.1-1.4 22.9-2.1 30.8-2.1 2.7 0 2 .1 7.4 1.6 4.2 1.2 7 1.6 7.7 2-58.7-32.5-153.2-28-220.5-9.6-11.4 3.1-22 6.6-31.6 10.3-22.3 8.6-44.7 17.3-66 28.2-50 25.7-103 56.3-123.8 68.1-5.3 3-8.4 4.7-9 4.9-1.1-1-2.8-2.5-4.8-4.3-2.4-2.2-5.3-5-8.8-8.2-3.5-3.2-7.5-6.9-12-10.8-4.5-4-9.4-8.3-14.8-12.8-5.3-4.5-11.1-9.2-17.2-14-17.4-13.7-37.7-28-59.5-40.2-9.3-5.2-18.9-10-28.6-14.2-13.3-5.8-26.8-10.3-40.2-13.6-23.8-5.7-47.2-7.2-68.9-3.5-10.2 1.7-20 4.6-29.3 8.8-7 2.5-14.1 6.1-19.2 9.1-7.5 4.5-18.1 14.7-28.1 28.6-6.9 9.6-13.8 20.4-20.1 30.6-6.3 10.2-11.9 19.8-16.3 27-5.7 9.3-10.4 19-14.2 29.1-4.1 10.9-7.8 23-10.9 35.7-3 12.4-5.4 25.3-7 38-1.5 11.2-2.3 22.3-2.5 32.9v4c.3 11.8 1.2 22.8 3.1 32.3z" class="st2"/><path d="M-215.2 247.2c-1.5 0-3.1 0-4.6-.1-9.3-.3-18.5-1.4-27.5-3.3-12.2-2.6-28.1-8.5-43.6-16.3-13.9-7-34.1-18.7-51.5-35.1-4.7-4.4-9.2-9.4-13.4-14.7-3.7-4.8-7.3-10-10.6-15.5-5.8-9.8-10.9-20.5-15.9-33.6-2.4-6.3-4.5-12.4-6.3-17.8l-.6-1.7c-1.1-3.1-2-6.6-2.8-10.4-1.8-8.9-2.7-19.4-2.7-31.3v-4c.2-10.2 1-21.1 2.5-32.3 1.6-12.5 4-25.1 6.9-37.5 3.1-12.7 6.7-24.5 10.7-35.1 3.9-10.1 8.4-19.4 13.8-28.3 1.8-3 3.9-6.4 6.1-10.2 3.1-5.1 6.5-10.9 10.2-16.8 7.7-12.5 14.1-22.2 19.9-30.3 10.6-14.7 20.7-23.7 26.5-27.2 3.5-2.1 10.6-6 18.3-8.7l.2-.1.2-.1c8.7-3.9 18.2-6.7 28.1-8.4 7.6-1.3 15.6-2 23.8-2 13.7 0 28.2 1.8 43 5.4 12.9 3.1 26.2 7.6 39.3 13.3 9.1 3.9 18.6 8.6 28.1 14 18.8 10.6 38.6 23.9 58.8 39.8 5.6 4.4 11.4 9.1 17.1 13.9 4.8 4.1 9.6 8.2 14.7 12.7 3.8 3.4 7.7 6.9 11.9 10.8 2.2 2.1 4.3 3.9 6 5.6l2.8 2.6C-4-53.8-2.2-52.2-.9-51l2 1.7 2.6-.7c.9-.2 1.3-.3 10.2-5.4 3.1-1.8 7-4 11.5-6.6 24.4-13.9 69.7-39.7 112-61.4 20.8-10.7 43.2-19.4 64.8-27.7l.7-.3c9.5-3.7 20-7.1 31.1-10.1 33.4-9.1 71.1-14.2 106.2-14.2 30.5 0 57.9 3.7 81 10.9-4.5.4-9.4.8-14.6 1.4-12.6 1.4-25.9 3.5-38.6 5.8-13.8 2.6-26.3 5.6-36.3 8.6-7.9 2.4-14.4 4.9-19.2 7.3-2.7 1.4-5.5 2.9-8.4 4.4-7.9 4.3-16.5 9.4-25.4 14.9-1.2.7-2.4 1.5-3.6 2.3-10.4 6.6-21 13.7-31.3 21.1-10.9 7.8-21.6 15.9-31.7 24.1-10.8 8.8-21.1 17.7-30.6 26.5-4.6 4.3-9.4 9-14.1 13.7-4.5 4.6-9.1 9.4-13.7 14.4-35.6 38.9-75.9 83.1-117 123C18 120.9.6 136.7-16.2 151-42 172.9-65.8 190.4-89 204.7c-26.7 16.4-52.5 28.1-76.6 34.9-16.9 5.2-33.7 7.6-49.6 7.6z" class="st3"/></g><g id="Layer_2" class="st0"><image width="839" height="425" overflow="visible" transform="translate(-252.917 -158.75)" xlink:href="90DD2074.png"/><image width="334" height="178" overflow="visible" transform="translate(191.083 86.25)" xlink:href="90DD2075.png"/><g class="st1"><defs><path id="SVGID_7_" d="M191.5 142.4c11.8 10 73.1 72 142.8 102 59.5 25.6 122 27.2 164.3-10.2 28.3-25.1 38.9-93.8 5.1-124-74.2-66.2-317.8 27.4-312.2 32.2z"/></defs><clipPath id="SVGID_2_"><use overflow="visible" xlink:href="#SVGID_7_"/></clipPath></g><image width="837" height="425" overflow="visible" transform="translate(-390.917 -176.75)" xlink:href="90DD2073.png"/><image width="335" height="178" overflow="visible" transform="translate(-329.917 -174.75)" xlink:href="90DD207C.png"/><g class="st1"><defs><path id="SVGID_9_" d="M4.1-53.1c-11.8-10-73.1-72-142.8-102-59.5-25.6-122-27.2-164.3 10.2-28.3 25.1-38.9 93.8-5.1 124C-234 45.2 9.7-48.4 4.1-53.1z"/></defs><clipPath id="SVGID_4_"><use overflow="visible" xlink:href="#SVGID_9_"/></clipPath></g><image width="838" height="426" overflow="visible" transform="translate(-251.917 -158.75)" xlink:href="90DD207F.png"/><image width="335" height="178" overflow="visible" transform="translate(190.083 86.25)" xlink:href="90DD207D.png"/><g class="st1"><defs><path id="SVGID_11_" d="M190.8 142.9c11.8 10 73.1 72 142.8 102 59.5 25.6 122 27.2 164.3-10.2 28.3-25.1 38.9-93.8 5.1-124-74.1-66.2-317.7 27.4-312.2 32.2z"/></defs><clipPath id="SVGID_6_"><use overflow="visible" xlink:href="#SVGID_11_"/></clipPath></g></g><g id="Layer_9"><ellipse cx="145.5" cy="52.4" class="st9" rx="1.5" ry="1.5"/><ellipse cx="179.4" cy="56.4" class="st9" rx="1.5" ry="1.5"/><ellipse cx="164" cy="50.9" class="st9" rx="1.5" ry="1.5"/><ellipse cx="165.5" cy="41.3" class="st9" rx="1.5" ry="1.5"/><path d="M149.2 45.6c.3-1.1-.6-1.6-1.5-1.5-.8.1-1.5.7-1.5 1.5s.7 1.5 1.5 1.5 1.3-.7 1.5-1.5z" class="st9"/><ellipse cx="148.6" cy="38.8" class="st9" rx="1.5" ry="1.5"/><ellipse cx="180.3" cy="45" class="st9" rx="1.5" ry="1.5"/><ellipse cx="149.2" cy="33" class="st9" rx="1.5" ry="1.5"/><ellipse cx="165.5" cy="33.6" class="st9" rx="1.5" ry="1.5"/><ellipse cx="180.3" cy="36.1" class="st9" rx="1.5" ry="1.5"/><ellipse cx="149.5" cy="25.3" class="st9" rx="1.5" ry="1.5"/><ellipse cx="165.5" cy="24.7" class="st9" rx="1.5" ry="1.5"/><ellipse cx="179.4" cy="27.8" class="st9" rx="1.5" ry="1.5"/><ellipse cx="149.5" cy="18.5" class="st9" rx="1.5" ry="1.5"/><ellipse cx="164.6" cy="18.5" class="st9" rx="1.5" ry="1.5"/><ellipse cx="178.4" cy="21.3" class="st9" rx="1.5" ry="1.5"/><ellipse cx="149.2" cy="11.8" class="st9" rx="1.5" ry="1.5"/><ellipse cx="163.1" cy="11.8" class="st9" rx="1.5" ry="1.5"/><ellipse cx="176.9" cy="14.8" class="st9" rx="1.5" ry="1.5"/><path d="M170.3 84.1c.3.3.3.7.1 1h.3V85c0-.4-.1-.7-.4-.9.1 0 .1 0 0 0z" class="st9"/><ellipse cx="183.1" cy="70.9" class="st9" rx="1.5" ry="1.5"/><path d="M178.8 76.5c-.3.8-.9 1.6-1.1 2.5 0 .1 0 .2-.1.3.2.1.5.2.8.2.8 0 1.5-.7 1.5-1.5.1-.8-.4-1.4-1.1-1.5z" class="st9"/><ellipse cx="189.8" cy="56.4" class="st9" rx="1.5" ry="1.5"/><ellipse cx="187.4" cy="64.4" class="st9" rx="1.5" ry="1.5"/><ellipse cx="191.7" cy="47.8" class="st9" rx="1.5" ry="1.5"/><ellipse cx="192.3" cy="39.8" class="st9" rx="1.5" ry="1.5"/><ellipse cx="191.1" cy="32.1" class="st9" rx="1.5" ry="1.5"/><ellipse cx="188.6" cy="25.6" class="st9" rx="1.5" ry="1.5"/><ellipse cx="183.4" cy="17.3" class="st9" rx="1.5" ry="1.5"/><ellipse cx="161.8" cy="7.1" class="st9" rx="1.5" ry="1.5"/><ellipse cx="148.3" cy="8.1" class="st9" rx="1.5" ry="1.5"/><ellipse cx="175.1" cy="11.1" class="st9" rx="1.5" ry="1.5"/><ellipse cx="148" cy="6.2" class="st9" rx="1.5" ry="1.5"/><ellipse cx="161.5" cy="5.6" class="st9" rx="1.5" ry="1.5"/><ellipse cx="132.3" cy="17.6" class="st9" rx="1.5" ry="1.5"/><ellipse cx="132.3" cy="14.5" class="st9" rx="1.5" ry="1.5"/><ellipse cx="132" cy="13.6" class="st9" rx="1.5" ry="1.5"/><ellipse cx="132.3" cy="24.4" class="st9" rx="1.5" ry="1.5"/><ellipse cx="132" cy="30.8" class="st9" rx="1.5" ry="1.5"/><ellipse cx="131.4" cy="36.1" class="st9" rx="1.5" ry="1.5"/><ellipse cx="129.8" cy="41.3" class="st9" rx="1.5" ry="1.5"/><ellipse cx="127.7" cy="47.8" class="st9" rx="1.5" ry="1.5"/><ellipse cx="125.5" cy="52.4" class="st9" rx="1.5" ry="1.5"/><ellipse cx="123.3" cy="55.8" class="st9" rx="1.5" ry="1.5"/><path d="M120.3 61.6l.6-.3c.4-.3.6-.7.6-1.2 0-.8-.7-1.5-1.5-1.5s-1.5.7-1.5 1.5.7 1.5 1.5 1.5h.3zm-4.7 2.6c.6-.6 1.4-.9 2.2-1.2-.2-.6-.8-1.1-1.5-1.1-.8 0-1.5.7-1.5 1.5 0 .5.2.9.6 1.2 0-.1 0-.2.2-.4z" class="st9"/><ellipse cx="92.6" cy="76.4" class="st9" rx="1.5" ry="1.5"/><ellipse cx="97.2" cy="72.1" class="st9" rx="1.5" ry="1.5"/><ellipse cx="100.9" cy="68.1" class="st9" rx="1.5" ry="1.5"/><ellipse cx="103.3" cy="64.7" class="st9" rx="1.5" ry="1.5"/><ellipse cx="105.2" cy="61.9" class="st9" rx="1.5" ry="1.5"/><ellipse cx="108.6" cy="55.2" class="st9" rx="1.5" ry="1.5"/><ellipse cx="110.7" cy="49" class="st9" rx="1.5" ry="1.5"/><ellipse cx="112.9" cy="41.9" class="st9" rx="1.5" ry="1.5"/><ellipse cx="114.1" cy="36.1" class="st9" rx="1.5" ry="1.5"/><ellipse cx="115" cy="30.2" class="st9" rx="1.5" ry="1.5"/><ellipse cx="115.3" cy="26.2" class="st9" rx="1.5" ry="1.5"/><ellipse cx="95" cy="58.9" class="st9" rx="1.5" ry="1.5"/><ellipse cx="99.3" cy="51.2" class="st9" rx="1.5" ry="1.5"/><ellipse cx="101.8" cy="45.9" class="st9" rx="1.5" ry="1.5"/><ellipse cx="103.6" cy="41.3" class="st9" rx="1.5" ry="1.5"/><ellipse cx="105.8" cy="36.1" class="st9" rx="1.5" ry="1.5"/><ellipse cx="91.3" cy="64.4" class="st9" rx="1.5" ry="1.5"/><ellipse cx="85.8" cy="71.5" class="st9" rx="1.5" ry="1.5"/><ellipse cx="82.1" cy="75.8" class="st9" rx="1.5" ry="1.5"/><ellipse cx="78.7" cy="79.2" class="st9" rx="1.5" ry="1.5"/><ellipse cx="75" cy="82.6" class="st9" rx="1.5" ry="1.5"/><ellipse cx="71.3" cy="85.3" class="st9" rx="1.5" ry="1.5"/><ellipse cx="77.2" cy="65.3" class="st9" rx="1.5" ry="1.5"/><ellipse cx="69.8" cy="71.2" class="st9" rx="1.5" ry="1.5"/><ellipse cx="62.7" cy="75.8" class="st9" rx="1.5" ry="1.5"/><ellipse cx="53.8" cy="80.7" class="st9" rx="1.5" ry="1.5"/><ellipse cx="83.3" cy="59.5" class="st9" rx="1.5" ry="1.5"/><ellipse cx="89.5" cy="53" class="st9" rx="1.5" ry="1.5"/><ellipse cx="43.3" cy="83.2" class="st9" rx="1.5" ry="1.5"/><ellipse cx="34.7" cy="84.1" class="st9" rx="1.5" ry="1.5"/><ellipse cx="39" cy="86.9" class="st9" rx="1.5" ry="1.5"/><ellipse cx="59" cy="87.5" class="st9" rx="1.5" ry="1.5"/><ellipse cx="29.8" cy="83.5" class="st9" rx="1.5" ry="1.5"/><g class="st0"><path d="M178 61.7c2.6-11.6 3.4-23.4 1.3-35.7-1-5.2-2.1-10.3-4.1-15.2-.4-.8-.6-1.4-.8-2.1-.2-.4-.4-1-.7-1.1M144.5 54c3.1-7.6 4.6-15.6 5.1-23.8.2-4.1.1-8.2-.2-12.3-.2-2.1-.4-4.1-.7-6.2-.1-1-.3-2.1-.5-3.1s-.1-1.9-.5-2.9c-.2-.4-.4-.9-.7-1.3m-30.2 58.8c6.5-5.3 10.4-12.4 12.5-20.2 3.1-10.3 3.9-20.6 2.6-31.1m-17.4 53c.3-.2.5-.4.8-.5M87.9 79.3c28.9-16.2 27-60.9 28.3-56.2M67.6 87.5c27.1-16.2 40.1-53.9 38.6-55.2" class="st8"/><path d="M123.4 60.3c-1.5-.2-3.2-.4-4.8.2-8.4 3.1-15.2 8.4-23.1 13-2.3 1.4-4.7 2.5-7 3.7-.8.4-1.6.2-2.3.6-9.7 4.7-19.2 8-30.1 10.1-3.1.6-6 .6-9.1.8-3.7.2-7.6-.2-11.3-.4-3.5-.2-6.9-1.4-10.4-2.3-.8-.2-1.8-2-2.3-2.6" class="st8"/><path d="M134 56.6c-2.1-.4-4.2-.6-6.4-.8-2-.2-4-.2-5.9.5-3.9 1.4-7.7 3.2-11.3 5.4-3.4 2.1-6.6 4.6-9.9 6.9-3.4 2.3-6.9 4.3-10.7 5.9-4.1 1.8-8.1 3.5-12.3 5.1-4.1 1.6-8.2 3.3-12.4 4.4-8.5 2.4-17.6 3-26.4 2.5-3.5-.2-6.9-.3-10.4-.4-1 0-.9-1-1.9-1.1-.5 0-2.7-1.5-2.9-2m160.7-12.4c-2.4 2.1-1.1 1.1-4.3 1.6" class="st8"/><path d="M192.8 47.5c-.2.6-7.1-.8-12.5-2.8-9.1-3.4-26.8-5.5-31.7-6.1-5-.6-14.5 1.8-18.8 3-1.3.4-12.1 7.5-13.3 8.3-6.1 3.7-12.3 8.4-18.6 11.3-7 3.1-19.2 10.5-25.8 13.2-6 2.5-17.3 6.6-19.8 6.3" class="st8"/><path d="M191.1 55.9c-.2.6-6.2 2.4-11.6.4-9.1-3.4-27.3-9.9-32.1-11-5.3-1.2-16-.2-19.6 2.3-1.1.8-12.7 8.2-13.9 8.9-6.1 3.7-11.9 7.5-18.3 10.3-7 3.1-19.7 9.3-26.4 12-6 2.5-23.5 4.3-26.1 4" class="st8"/><path d="M148.6 53.4c-2.1-1-4.5-1.8-6.8-2.1-4.9-.6-9.5-1.6-14.2.4-5.8 2.3-11.1 5.4-16.9 8.4-3.5 1.9-6.6 3.9-9.9 6.4-1.7 1.2-3.5 1.9-5.2 3.1-5.1 2.9-10.3 5.1-15.5 7.2-1.2.4-2.1.8-3.3 1-1.7.8-3.7 1.2-5.4 1.9-.6.4-1.2.6-1.7 1-11.3 4.3-23.5 3.5-35.3 3.4m154.5-20.4c-3.4 1.7-5.5 1.4-9.4 1.4" class="st8"/><path d="M193.2 40.2c-.5-.3-7.6-2.4-13-4.4-9.1-3.4-26.1-2.9-30.9-3.1-5.2-.3-14.3 1.7-18.5 3.3-1.3.5-18.9 12.3-20.1 13-6.1 3.7-10.4 6.2-15.9 10.1-6.2 4.3-34.3 18.7-37.2 18.5" class="st8"/><path d="M192.2 32.7c-4-1.7-25.4-13.9-50.3-5.8-30.8 10.1-56 38.9-77.5 46.5" class="st8"/><path d="M184.4 18.4c-4-1.7-17.7-12.9-42.6-4.8-30.7 10.1-43.6 41.7-65.2 49.2" class="st8"/><path d="M189.6 26.3c-4-1.7-22.7-14-47.6-5.8-30.7 10.1-49.9 40.2-71.4 47.8" class="st8"/><path d="M176 11.6c-5-.4-7.6-10.3-32.5-2.1-30.7 10-48.6 43.9-63.5 50.2" class="st8"/><path d="M163.8 52.7c1.9-9.6 2.3-19.1 1.5-28.8-.4-7-2.1-14-5.1-20.5" class="st8"/><path fill="none" stroke="#f2f2f2" stroke-miterlimit="10" d="M86.2 56.9c7.1-7.8 14.6-16 22.3-23.5 3.3-3.2 6.7-6.4 10.1-9.2 4.6-3.9 9.3-7.4 14-10.3 4.9-3 9.9-5.4 14.8-6.8 3.6-1 7.1-1.5 10.7-1.4 1.8.1 3.6.3 5.4.6 2.3.5 5.4 1.6 8.5 3.2 3.5 1.7 7.1 4.1 10 6.8 1 .9 1.9 1.9 2.6 2.9.8 1 1.5 2 2.1 3.1 1.3 2.2 2.3 4.5 3.1 6.6.5 1.4.9 2.6 1.3 3.7.2.6.4 1.4.6 2.1.4 1.8.5 3.9.5 6.2v.8c0 2-.2 4.1-.5 6.3-.3 2.4-.8 4.9-1.3 7.2-.6 2.4-1.3 4.7-2.1 6.8-.7 1.9-1.6 3.8-2.7 5.6-.8 1.4-1.9 3.2-3.1 5.1s-2.5 4-3.8 5.8c-1.9 2.6-3.9 4.6-5.3 5.5-1.8 1.1-4.7 2.5-6.8 2.3-5.8-.5-12.5-4.7-19.4-9.4-4.8-3.3-9.8-6.7-14.8-9.1-6.3-3-12.1-4.8-16.9-3.6-.1 0-.7.4-1.7.9-4 2.2-14.1 8.1-23.6 13-4.1 2.1-8.3 3.7-12.6 5.4-1.8.7-3.9 1.4-6 2-12.8 3.5-30.8 4.4-42-1.8.1.1.7.1 1.5.4 1 .3.9.3 1.4.3 1.5 0 3.6-.1 5.9-.4 2.3-.3 4.8-.6 7.3-1.1 2.5-.5 4.8-1 6.8-1.6 1.4-.4 2.6-.9 3.5-1.3.5-.3 1-.5 1.6-.8 1.4-.8 3-1.7 4.8-2.8.2-.1.5-.3.7-.4 1.9-1.2 3.9-2.5 5.9-4 2-1.4 4-2.9 6-4.6 2-1.6 3.9-3.3 5.8-5 .9-.8 1.8-1.7 2.7-2.6 1-1.1 1.9-2 2.7-2.9z"/><path d="M115.5 63.1c-.1 0-.7.4-1.7 1-4 2.3-14.1 8.4-23.6 13.4-4.1 2.2-8.3 3.9-12.6 5.6-1.8.7-3.9 1.4-6 2-12.8 3.6-30.8 4.5-42-1.9.1.1.7.2 1.5.4 1 .3.9.3 1.4.3 1.5 0 3.6-.2 5.9-.4 2.3-.3 4.8-.7 7.3-1.1 2.5-.5 4.8-1 6.8-1.7 1.4-.4 2.6-.9 3.5-1.4.5-.3 1-.5 1.6-.9 1.4-.8 3-1.8 4.8-2.9.2-.1.5-.3.7-.4C65 73.9 67 72.5 69 71c2-1.5 4-3 6-4.7 2-1.6 3.9-3.4 5.8-5.2l2.7-2.7c.9-.9 1.7-1.9 2.6-2.8 7.1-8 14.6-16.5 22.3-24.3 3.3-3.4 6.7-6.6 10.1-9.6 4.6-4.1 9.3-7.7 14-10.7 4.9-3.1 9.9-5.6 14.8-7 3.6-1 7.1-1.5 10.7-1.4 1.8.1 3.6.3 5.4.7 2.3.5 5.4 1.6 8.5 3.3 3.5 1.8 7.1 4.2 10 7.1 1 1 1.9 2 2.6 3 .8 1 1.5 2.1 2.1 3.2 1.3 2.3 2.3 4.6 3.1 6.8.5 1.4.9 2.7 1.3 3.9.2.7.4 1.4.6 2.2.4 1.9.5 4 .5 6.4v.8c0 2.1-.2 4.3-.5 6.5-.3 2.5-.8 5.1-1.3 7.5-.6 2.5-1.3 4.9-2.1 7-.7 2-1.6 3.9-2.7 5.7-.8 1.4-1.9 3.3-3.1 5.3s-2.5 4.1-3.8 6c-1.9 2.7-3.9 4.8-5.3 5.6-1.8 1.1-4.7 2.6-6.8 2.4" class="st8"/></g><ellipse cx="137.7" cy="80.8" class="st9" rx=".9" ry=".9"/><ellipse cx="149.2" cy="75.4" class="st9" rx=".9" ry=".9"/><ellipse cx="148.3" cy="69.3" class="st9" rx=".9" ry=".9"/><ellipse cx="165.8" cy="75.9" class="st9" rx=".9" ry=".9"/><ellipse cx="165.8" cy="69.7" class="st9" rx=".9" ry=".9"/><ellipse cx="165.2" cy="62.6" class="st9" rx=".9" ry=".9"/><ellipse cx="132.7" cy="72.2" class="st9" rx=".9" ry=".9"/><ellipse cx="149.9" cy="81" class="st9" rx=".9" ry=".9"/><ellipse cx="164.9" cy="82.2" class="st9" rx=".9" ry=".9"/><ellipse cx="134.9" cy="76.4" class="st9" rx=".9" ry=".9"/><ellipse cx="150.8" cy="86" class="st9" rx=".9" ry=".9"/><ellipse cx="163.7" cy="87" class="st9" rx=".9" ry=".9"/><ellipse cx="170.2" cy="84.5" class="st9" rx=".9" ry=".9"/><ellipse cx="173.2" cy="79.9" class="st9" rx=".9" ry=".9"/><ellipse cx="174.4" cy="75" class="st9" rx=".9" ry=".9"/><ellipse cx="174.8" cy="69.7" class="st9" rx=".9" ry=".9"/><ellipse cx="174.1" cy="63.5" class="st9" rx=".9" ry=".9"/><ellipse cx="164.7" cy="58.6" class="st9" rx=".9" ry=".9"/><ellipse cx="173.2" cy="59.1" class="st9" rx=".9" ry=".9"/><path d="M129.2 64.1c-.1 0-.1-.1-.2-.1.1.1.1 0 0 0s-.1 0-.2-.1c0 0-.1 0-.1-.1.1.4.4.7.9.7.1 0 .2 0 .3-.1-.3 0-.5-.2-.7-.3z" class="st9"/><ellipse cx="130.8" cy="67.8" class="st9" rx=".9" ry=".9"/><ellipse cx="177.1" cy="78.5" class="st9" rx=".9" ry=".9"/><path d="M147.6 53.6c.3-.1.5 0 .7.1 0-.4-.4-.8-.9-.8s-.9.4-.9.9v.2c.3-.2.7-.3 1.1-.4z" class="st9"/><ellipse cx="163.7" cy="52.9" class="st9" rx=".9" ry=".9"/><ellipse cx="171.1" cy="54.7" class="st9" rx=".9" ry=".9"/><ellipse cx="179.7" cy="69.5" class="st9" rx=".9" ry=".9"/><ellipse cx="179.7" cy="65.3" class="st9" rx=".9" ry=".9"/><ellipse cx="178.1" cy="60.9" class="st9" rx=".9" ry=".9"/><ellipse cx="179" cy="74.5" class="st9" rx=".9" ry=".9"/><path d="M131.5 57.5h.1c-.1-.4-.4-.7-.9-.7s-.9.4-.9.9c0 .1 0 .3.1.4.6-.3 1.1-.5 1.6-.6z" class="st9"/><ellipse cx="116.1" cy="64.2" class="st9" rx=".9" ry=".9"/><ellipse cx="115.4" cy="63.7" class="st9" rx=".9" ry=".9"/><ellipse cx="117.5" cy="66.2" class="st9" rx=".9" ry=".9"/><ellipse cx="120" cy="67.9" class="st9" rx=".9" ry=".9"/><ellipse cx="122.8" cy="70.4" class="st9" rx=".9" ry=".9"/><path d="M179.6 65.3c-.2-1.6-.7-3.1-1.3-4.4-.7-1.5-1.6-2.7-2.8-3.7-1.3-1.2-3-2.2-4.9-2.9-2.1-.8-4.6-1.3-7.3-1.6-1.2-.1-2.6-.2-3.9-.2-3.4 0-7.3.3-11.5 1-4.7.8-9.8 1.9-15.1 3.5-4 1.2-8.1 2.6-11.1 3.8-1.7.7-2.9 1.3-3.5 1.7-.6.4-.9 1-1 1.6 0 .6.2 1.1.6 1.5.2.2.5.4.8.7l.5.4c.3.3.7.6 1.1 1 .7.7 1.4 1.3 2.1 1.9.9.8 1.7 1.5 2.6 2.2 1 .9 2 1.7 3 2.5 3.6 2.8 7.2 5.2 10.5 7.1 1.7 1 3.5 1.8 5.1 2.6 2.4 1 4.9 1.9 7.3 2.4 2.8.7 5.5 1 8.1 1 1.6 0 3.1-.1 4.6-.4 2.3-.4 4.4-1.1 6.4-2.1 1.7-.8 3.2-1.9 4.7-3.1 1-.9 1.8-1.9 2.6-3.2.7-1.2 1.3-2.6 1.7-4.1.4-1.5.7-3 .9-4.5.1-1.6 0-3.2-.2-4.7z" class="st11"/><path d="M150.6 85.9c-.7-6.1-1.7-12.2-2.6-18.3m15.6 19.3c4.9-12.5.1-34 .1-34m6.4 31.7c9.2-10.2 2.3-29.2.8-30.1m-33.1 26.4c-3.3-5.1-6.5-10.4-7.9-16.4" class="st12"/><path d="M153.8 58.8c4.2-.3 8.5-.5 12.7-.3 3.9.1 8.2.3 11.6 2.3m-62.6 2.7c4-.9 7.9-1.1 11.8-1.8m-9.8 4.3c.4-.1 14.1 2.3 29.3 3.2 13.6.8 31.1.4 32.9.2M120.1 68c.4-.1 12.6 5.2 26.7 7.1 13.8 1.8 30.8-.2 32.3-.8" class="st12"/><path d="M122.8 70.4c.4-.1 9.3 6 22.8 9.7 6.6 1.8 13.5 2.8 19.5 2 6.2-.8 11.3-3.4 12.1-3.7m-24.1-16.1c7.9-.5 15.9.1 24 1.6 1 .2 1.7.8 2.5 1.3m-63.5-.8c4.1-.3 8.1-.5 12.2-.8" class="st12"/><g><ellipse cx="133.8" cy="66.5" class="st9" rx=".7" ry=".7"/><ellipse cx="140.7" cy="68.4" class="st9" rx=".7" ry=".7"/><ellipse cx="143.9" cy="68.7" class="st9" rx=".7" ry=".7"/><ellipse cx="140.5" cy="66.6" class="st9" rx=".7" ry=".7"/><ellipse cx="144.4" cy="66.6" class="st9" rx=".7" ry=".7"/><ellipse cx="146.6" cy="68.1" class="st9" rx=".7" ry=".7"/><ellipse cx="147.5" cy="66.1" class="st9" rx=".7" ry=".7"/><ellipse cx="144.9" cy="63.7" class="st9" rx=".7" ry=".7"/><ellipse cx="148.4" cy="63.3" class="st9" rx=".7" ry=".7"/><ellipse cx="140.3" cy="63.9" class="st9" rx=".7" ry=".7"/><ellipse cx="149.2" cy="67" class="st9" rx=".7" ry=".7"/><ellipse cx="150.2" cy="65" class="st9" rx=".7" ry=".7"/><ellipse cx="151.3" cy="62.5" class="st9" rx=".7" ry=".7"/><ellipse cx="149" cy="59.9" class="st9" rx=".7" ry=".7"/><ellipse cx="152" cy="59.4" class="st9" rx=".7" ry=".7"/><ellipse cx="144.9" cy="60.4" class="st9" rx=".7" ry=".7"/><ellipse cx="139.9" cy="61" class="st9" rx=".7" ry=".7"/><ellipse cx="144.7" cy="57.3" class="st9" rx=".7" ry=".7"/><ellipse cx="149.4" cy="56.7" class="st9" rx=".7" ry=".7"/><ellipse cx="152.5" cy="56.3" class="st9" rx=".7" ry=".7"/><ellipse cx="154" cy="58.9" class="st9" rx=".7" ry=".7"/><ellipse cx="153.5" cy="61.5" class="st9" rx=".7" ry=".7"/><ellipse cx="154.3" cy="56" class="st9" rx=".7" ry=".7"/><ellipse cx="139.3" cy="58.3" class="st9" rx=".7" ry=".7"/><ellipse cx="132.9" cy="65.2" class="st9" rx=".7" ry=".7"/><ellipse cx="131.6" cy="63.5" class="st9" rx=".7" ry=".7"/><ellipse cx="130.3" cy="61.8" class="st9" rx=".7" ry=".7"/><ellipse cx="128.9" cy="60" class="st9" rx=".7" ry=".7"/><ellipse cx="127.7" cy="63.1" class="st9" rx=".7" ry=".7"/><ellipse cx="126.2" cy="62.1" class="st9" rx=".7" ry=".7"/><ellipse cx="125" cy="61.2" class="st9" rx=".7" ry=".7"/><ellipse cx="124" cy="60.3" class="st9" rx=".7" ry=".7"/><g class="st0"><path d="M123.7 60.1c2 1.8 5.8 4.6 10.2 6.3 4.5 1.8 9.3 2.6 11.9 2 5.4-1.3 9.2-5.6 8.4-15.1m-10.3 15.2c1.7-4.4.8-13 .5-14.1m-3.7 14c-.3-6.3-1.7-11.1-2-12.6m7.9 12.4c2.3-4.2 3.2-13.1 2.8-14.6m-15.5 12.8c-2.8-3.8-5.2-6.4-5.9-8m20.9 8.8c3.1-3.7 3.9-12.8 3.6-14.4" class="st8"/><path d="M152.6 63.6c.2-.1-2.9 3-9.5 3.2-4 .1-9.3-.7-16.2-4.1" class="st8"/><path d="M153.5 61.5c.2-.1-3 2-9.6 2.3-4 .1-12.1.7-17.8-1.7m27.9-3c.2-.1-3.2.7-9.8 1.3-3.9.4-13.9 2.4-19.3.8m29.4-5.3c.2-.1-3.2.4-9.6 1.4-3.9.6-16 3.4-20.8 3" class="st8"/></g><path d="M123.7 60.1c5.5-2.3 26.9-8 30.5-6.8" class="st11"/></g><g><ellipse cx="49.2" cy="37.2" class="st9" rx="1.5" ry="1.5"/><ellipse cx="15.3" cy="33.2" class="st9" rx="1.5" ry="1.5"/><ellipse cx="30.7" cy="38.7" class="st9" rx="1.5" ry="1.5"/><ellipse cx="29.2" cy="48.3" class="st9" rx="1.5" ry="1.5"/><ellipse cx="47" cy="44" class="st9" rx="1.5" ry="1.5"/><ellipse cx="46.1" cy="50.7" class="st9" rx="1.5" ry="1.5"/><ellipse cx="14.4" cy="44.6" class="st9" rx="1.5" ry="1.5"/><ellipse cx="45.5" cy="56.6" class="st9" rx="1.5" ry="1.5"/><ellipse cx="29.2" cy="56" class="st9" rx="1.5" ry="1.5"/><ellipse cx="14.4" cy="53.5" class="st9" rx="1.5" ry="1.5"/><ellipse cx="45.2" cy="64.3" class="st9" rx="1.5" ry="1.5"/><ellipse cx="29.2" cy="64.9" class="st9" rx="1.5" ry="1.5"/><ellipse cx="15.3" cy="61.8" class="st9" rx="1.5" ry="1.5"/><ellipse cx="45.2" cy="71.1" class="st9" rx="1.5" ry="1.5"/><ellipse cx="30.1" cy="71.1" class="st9" rx="1.5" ry="1.5"/><ellipse cx="16.2" cy="68.3" class="st9" rx="1.5" ry="1.5"/><ellipse cx="45.5" cy="77.8" class="st9" rx="1.5" ry="1.5"/><ellipse cx="31.6" cy="77.8" class="st9" rx="1.5" ry="1.5"/><ellipse cx="17.8" cy="74.7" class="st9" rx="1.5" ry="1.5"/><path d="M24.3 5.5c-.3-.3-.3-.7-.1-1h-.3v.1c0 .3.2.7.4.9z" class="st9"/><ellipse cx="11.6" cy="18.7" class="st9" rx="1.5" ry="1.5"/><path d="M15.9 13.1c.3-.8.9-1.6 1.1-2.5 0-.1 0-.2.1-.3-.2-.1-.5-.2-.8-.2-.8 0-1.5.7-1.5 1.5-.1.8.4 1.4 1.1 1.5z" class="st9"/><ellipse cx="4.8" cy="33.2" class="st9" rx="1.5" ry="1.5"/><ellipse cx="7.3" cy="25.2" class="st9" rx="1.5" ry="1.5"/><ellipse cx="3" cy="41.8" class="st9" rx="1.5" ry="1.5"/><ellipse cx="2.4" cy="49.8" class="st9" rx="1.5" ry="1.5"/><ellipse cx="3.6" cy="57.5" class="st9" rx="1.5" ry="1.5"/><ellipse cx="6.1" cy="64" class="st9" rx="1.5" ry="1.5"/><ellipse cx="11.3" cy="72.3" class="st9" rx="1.5" ry="1.5"/><ellipse cx="32.8" cy="82.4" class="st9" rx="1.5" ry="1.5"/><ellipse cx="46.4" cy="81.5" class="st9" rx="1.5" ry="1.5"/><ellipse cx="19.6" cy="78.4" class="st9" rx="1.5" ry="1.5"/><ellipse cx="46.7" cy="83.4" class="st9" rx="1.5" ry="1.5"/><ellipse cx="33.2" cy="84" class="st9" rx="1.5" ry="1.5"/><ellipse cx="62.4" cy="72" class="st9" rx="1.5" ry="1.5"/><ellipse cx="62.4" cy="75.1" class="st9" rx="1.5" ry="1.5"/><ellipse cx="62.7" cy="76" class="st9" rx="1.5" ry="1.5"/><ellipse cx="62.4" cy="65.2" class="st9" rx="1.5" ry="1.5"/><ellipse cx="62.7" cy="58.7" class="st9" rx="1.5" ry="1.5"/><ellipse cx="63.3" cy="53.5" class="st9" rx="1.5" ry="1.5"/><ellipse cx="64.9" cy="48.3" class="st9" rx="1.5" ry="1.5"/><ellipse cx="67" cy="41.8" class="st9" rx="1.5" ry="1.5"/><ellipse cx="69.2" cy="37.2" class="st9" rx="1.5" ry="1.5"/><ellipse cx="71.3" cy="33.8" class="st9" rx="1.5" ry="1.5"/><path d="M74.4 28l-.6.3c-.4.3-.6.7-.6 1.2 0 .8.7 1.5 1.5 1.5s1.5-.7 1.5-1.5-.7-1.5-1.5-1.5h-.3zm4.7-2.6c-.6.6-1.4.9-2.2 1.2.2.6.8 1.1 1.5 1.1.8 0 1.5-.7 1.5-1.5 0-.5-.2-.9-.6-1.2 0 .1-.1.2-.2.4z" class="st9"/><ellipse cx="102.1" cy="13.2" class="st9" rx="1.5" ry="1.5"/><ellipse cx="97.5" cy="17.5" class="st9" rx="1.5" ry="1.5"/><ellipse cx="93.8" cy="21.5" class="st9" rx="1.5" ry="1.5"/><ellipse cx="91.3" cy="24.9" class="st9" rx="1.5" ry="1.5"/><ellipse cx="89.5" cy="27.7" class="st9" rx="1.5" ry="1.5"/><ellipse cx="86.1" cy="34.4" class="st9" rx="1.5" ry="1.5"/><ellipse cx="83.9" cy="40.6" class="st9" rx="1.5" ry="1.5"/><ellipse cx="81.8" cy="47.7" class="st9" rx="1.5" ry="1.5"/><ellipse cx="80.6" cy="53.5" class="st9" rx="1.5" ry="1.5"/><ellipse cx="79.6" cy="59.4" class="st9" rx="1.5" ry="1.5"/><ellipse cx="79.3" cy="63.4" class="st9" rx="1.5" ry="1.5"/><ellipse cx="99.6" cy="30.7" class="st9" rx="1.5" ry="1.5"/><ellipse cx="95.3" cy="38.4" class="st9" rx="1.5" ry="1.5"/><ellipse cx="92.9" cy="43.7" class="st9" rx="1.5" ry="1.5"/><ellipse cx="91" cy="48.3" class="st9" rx="1.5" ry="1.5"/><ellipse cx="88.9" cy="53.5" class="st9" rx="1.5" ry="1.5"/><ellipse cx="103.3" cy="25.2" class="st9" rx="1.5" ry="1.5"/><ellipse cx="108.9" cy="18.1" class="st9" rx="1.5" ry="1.5"/><ellipse cx="112.6" cy="13.8" class="st9" rx="1.5" ry="1.5"/><ellipse cx="115.9" cy="10.4" class="st9" rx="1.5" ry="1.5"/><ellipse cx="119.6" cy="7" class="st9" rx="1.5" ry="1.5"/><ellipse cx="123.3" cy="4.3" class="st9" rx="1.5" ry="1.5"/><ellipse cx="117.5" cy="24.3" class="st9" rx="1.5" ry="1.5"/><ellipse cx="124.9" cy="18.4" class="st9" rx="1.5" ry="1.5"/><ellipse cx="132" cy="13.8" class="st9" rx="1.5" ry="1.5"/><ellipse cx="140.9" cy="8.9" class="st9" rx="1.5" ry="1.5"/><ellipse cx="111.3" cy="30.1" class="st9" rx="1.5" ry="1.5"/><ellipse cx="105.2" cy="36.6" class="st9" rx="1.5" ry="1.5"/><ellipse cx="151.3" cy="6.4" class="st9" rx="1.5" ry="1.5"/><ellipse cx="160" cy="5.5" class="st9" rx="1.5" ry="1.5"/><ellipse cx="155.7" cy="2.7" class="st9" rx="1.5" ry="1.5"/><ellipse cx="135.6" cy="2.1" class="st9" rx="1.5" ry="1.5"/><ellipse cx="164.9" cy="6.1" class="st9" rx="1.5" ry="1.5"/></g><g class="st0"><path d="M16.6 28.4c-2.6 11.8-3.4 23.9-1.3 36.3 1 5.3 2.1 10.5 4.1 15.4M27 1.3c-.2.3-.3.6-.5.8m23.6 34.1C47 43.9 45.5 52.1 45 60.4c-.2 4.2-.1 8.4.2 12.5.2 2.1.4 4.2.7 6.3.1 1.1.3 2.1.5 3.2.2 1 .1 2 .5 3 .2.5.4.9.7 1.3m30.2-59.8c-6.5 5.3-10.4 12.7-12.5 20.6-3.1 10.5-3.9 21-2.6 31.7m17.5-54.1c-.3.2-.5.4-.8.6m27.3-15.3c-28.9 16.5-27 62.1-28.3 57.2M127 2.1C99.9 18.6 86.9 57 88.5 58.4" class="st8"/><path d="M71.2 29.8c1.5.2 3.2.4 4.8-.2 8.4-3.2 15.2-8.5 23.1-13.3 2.3-1.4 4.7-2.6 7-3.8.8-.4 1.6-.2 2.3-.6 9.7-4.7 19.2-8.1 30.1-10.3 3.1-.6 6-.6 9.1-.8 3.7-.2 7.6.2 11.3.4 3.5.2 7 .8 10.5 1.6.8.2 2.9 3 3.4 3.6" class="st8"/><path d="M60.7 33.6c2.1.4 4.2.6 6.4.8 2 .2 4 .2 5.9-.5 3.9-1.4 7.7-3.2 11.3-5.5 3.4-2.1 6.6-4.7 9.9-7 3.4-2.4 6.9-4.3 10.7-6 4.1-1.8 8.1-3.5 12.3-5.2 4.1-1.6 8.2-3.3 12.4-4.5 8.5-2.5 17.6-3.1 26.4-2.6 3.5.2 6.9.3 10.4.4 1 0 1.6.8 2.6.8.5 0 3.3 1.4 3.5 2M10.1 19.5c2.4-2.1 1.4-1.2 4.6-1.8" class="st8"/><path d="M2.2 42.9c.2-.6 6.8.8 12.1 2.8 9.1 3.4 26.8 5.6 31.7 6.2 5 .7 14.5-1.9 18.8-3 1.3-.4 12.1-7.7 13.3-8.4 6.1-3.8 12.3-8.6 18.6-11.5 7-3.2 19.2-10.7 25.8-13.4 6-2.5 17.3-6.7 19.8-6.5" class="st8"/><path d="M4.2 34.2c.2-.6 5.6-2.3 11-.3 9.1 3.4 27.3 10.1 32.1 11.2 5.3 1.2 16 .2 19.6-2.4 1.1-.8 12.7-8.4 13.9-9.1C86.9 29.8 92.7 26 99 23.1c7-3.2 19.7-9.4 26.4-12.2 6-2.5 23.5-4.4 26.1-4.1" class="st8"/><path d="M46.1 36.8c2.1 1 4.5 1.8 6.8 2.2 4.9.6 9.5 1.6 14.2-.4 5.8-2.4 11.1-5.5 16.9-8.5 3.5-2 6.6-4 9.9-6.5 1.7-1.2 3.5-2 5.2-3.2 5.1-3 10.3-5.1 15.5-7.3 1.2-.4 2.1-.8 3.3-1 1.7-.8 3.7-1.2 5.4-2 .6-.4 1.2-.6 1.7-1 11.3-4.4 23.5-3.6 35.3-3.5M6.5 26.1c3.4-1.7 4.7-1.2 8.6-1.2" class="st8"/><path d="M1.4 50.7c.5.4 7.6 2 13 4.1 9.1 3.4 26.1 2.9 30.9 3.2 5.2.3 14.3-1.7 18.5-3.4C65.1 54 82.7 42 83.9 41.2c6.1-3.7 10.4-6.3 16-10.2 6.2-4.4 34.3-19 37.2-18.8" class="st8"/><path d="M3 58.1c4 1.7 24.9 14 49.9 5.7 30.7-10.3 55.9-39.6 77.4-47.3" class="st8"/><path d="M11 73c4 1.7 16.9 12.6 41.8 4.3C83.6 67 96.5 34.9 118 27.2" class="st8"/><path d="M5.6 64.7c4 1.7 22.1 14 47.1 5.6 30.7-10.3 49.9-41 71.4-48.7" class="st8"/><path d="M19.1 79.2c4 1.7 7.1 10.7 32 2.4 30.7-10.3 48.6-44.7 63.5-51.2" class="st8"/><path d="M30.9 37.5C29 47.3 28.6 57 29.4 66.9c.4 7.1 2.1 14.2 5.1 20.8" class="st8"/><path d="M79.2 26.1c.1 0 .7-.4 1.7-.9 4-2.3 14.1-8.2 23.6-13.2 4.1-2.1 8.3-3.8 12.6-5.5 1.8-.7 3.9-1.4 6-2 12.8-3.6 30.8-4.5 42 1.9-.1-.1-.7-.1-1.5-.4-1-.3-.9-.3-1.4-.3-1.5 0-3.6.1-5.9.4-2.3.3-4.8.7-7.3 1.1-2.5.5-4.8 1-6.8 1.6-1.4.4-2.6.9-3.5 1.4-.5.3-1 .5-1.6.8-1.4.8-3 1.8-4.8 2.9-.2.1-.5.3-.7.4-1.9 1.2-3.9 2.6-5.9 4.1-2 1.4-4 3-6 4.6-2 1.6-3.9 3.3-5.8 5.1-.9.9-1.8 1.7-2.7 2.6-.9.9-1.7 1.8-2.6 2.8-7.1 7.9-14.6 16.3-22.3 23.9-3.3 3.3-6.7 6.5-10.1 9.4-4.6 4-9.3 7.6-14 10.5-4.9 3.1-9.9 5.5-14.8 6.9-3.6 1-7.1 1.5-10.7 1.4-1.8-.1-3.6-.3-5.4-.7-2.3-.5-5.4-1.6-8.5-3.2-3.5-1.8-7.1-4.1-10-7-1-.9-1.9-1.9-2.6-3-.8-1-1.5-2.1-2.1-3.1C6.8 66.3 5.8 64 5 61.9c-.5-1.4-.9-2.7-1.3-3.8L3.1 56c-.4-1.9-.5-4-.5-6.3v-.8c0-2 .2-4.2.5-6.4.3-2.5.8-5 1.3-7.4.6-2.5 1.3-4.8 2.1-6.9.7-2 1.6-3.9 2.7-5.7.8-1.4 1.9-3.3 3.1-5.2 1.2-2 2.5-4.1 3.8-5.9C18 8.9 20 6.9 21.4 6c1.8-1.1 4.7-2.5 6.8-2.3" class="st8"/></g><g><ellipse cx="57" cy="8.8" class="st9" rx=".9" ry=".9"/><ellipse cx="45.5" cy="14.2" class="st9" rx=".9" ry=".9"/><ellipse cx="46.4" cy="20.2" class="st9" rx=".9" ry=".9"/><ellipse cx="28.9" cy="13.7" class="st9" rx=".9" ry=".9"/><ellipse cx="28.9" cy="19.9" class="st9" rx=".9" ry=".9"/><ellipse cx="29.4" cy="27" class="st9" rx=".9" ry=".9"/><ellipse cx="61.9" cy="17.4" class="st9" rx=".9" ry=".9"/><ellipse cx="44.8" cy="8.6" class="st9" rx=".9" ry=".9"/><ellipse cx="29.8" cy="7.3" class="st9" rx=".9" ry=".9"/><ellipse cx="59.8" cy="13.2" class="st9" rx=".9" ry=".9"/><ellipse cx="43.9" cy="3.6" class="st9" rx=".9" ry=".9"/><ellipse cx="31" cy="2.6" class="st9" rx=".9" ry=".9"/><ellipse cx="24.5" cy="5" class="st9" rx=".9" ry=".9"/><ellipse cx="21.5" cy="9.6" class="st9" rx=".9" ry=".9"/><ellipse cx="20.2" cy="14.6" class="st9" rx=".9" ry=".9"/><ellipse cx="19.9" cy="19.9" class="st9" rx=".9" ry=".9"/><ellipse cx="20.6" cy="26.1" class="st9" rx=".9" ry=".9"/><ellipse cx="30" cy="31" class="st9" rx=".9" ry=".9"/><ellipse cx="21.5" cy="30.5" class="st9" rx=".9" ry=".9"/><path d="M65.4 25.5c.1 0 .1.1.2.1-.1-.1-.1 0 0 0s.1 0 .2.1c0 0 .1 0 .1.1-.1-.4-.4-.7-.9-.7-.1 0-.2 0-.3.1.3 0 .5.1.7.3z" class="st9"/><ellipse cx="63.9" cy="21.8" class="st9" rx=".9" ry=".9"/><ellipse cx="17.6" cy="11.1" class="st9" rx=".9" ry=".9"/><path d="M47.1 35.9c-.3.1-.5 0-.7-.1 0 .4.4.8.9.8s.9-.4.9-.9v-.2c-.4.3-.8.4-1.1.4z" class="st9"/><ellipse cx="31" cy="36.7" class="st9" rx=".9" ry=".9"/><ellipse cx="23.6" cy="34.9" class="st9" rx=".9" ry=".9"/><ellipse cx="14.9" cy="20.1" class="st9" rx=".9" ry=".9"/><ellipse cx="14.9" cy="24.3" class="st9" rx=".9" ry=".9"/><ellipse cx="16.5" cy="28.7" class="st9" rx=".9" ry=".9"/><ellipse cx="15.6" cy="15.1" class="st9" rx=".9" ry=".9"/><path d="M63.2 32.1h-.1c.1.4.4.7.9.7s.9-.4.9-.9c0-.1 0-.3-.1-.4-.6.3-1.1.4-1.6.6z" class="st9"/><ellipse cx="78.5" cy="25.4" class="st9" rx=".9" ry=".9"/><ellipse cx="79.2" cy="25.9" class="st9" rx=".9" ry=".9"/><ellipse cx="77.1" cy="23.4" class="st9" rx=".9" ry=".9"/><ellipse cx="74.7" cy="21.7" class="st9" rx=".9" ry=".9"/><ellipse cx="71.8" cy="19.2" class="st9" rx=".9" ry=".9"/><path d="M15.1 24.3c.2 1.6.7 3.1 1.3 4.4.7 1.5 1.6 2.7 2.8 3.7 1.3 1.2 3 2.2 4.9 2.9 2.1.8 4.6 1.3 7.3 1.6 1.2.1 2.6.2 3.9.2 3.4 0 7.3-.3 11.5-1 4.7-.8 9.8-1.9 15.1-3.5 4-1.2 8.1-2.6 11.1-3.8 1.7-.7 2.9-1.3 3.5-1.7.6-.4.9-1 1-1.6 0-.6-.2-1.1-.6-1.5-.2-.2-.5-.4-.8-.7l-.5-.4c-.3-.3-.7-.6-1.1-1-.7-.7-1.4-1.3-2.1-1.9-.9-.8-1.7-1.5-2.6-2.2-1-.9-2-1.7-3-2.5-3.6-2.8-7.2-5.2-10.5-7.1-1.7-1-3.5-1.8-5.1-2.6-2.4-1-4.9-1.9-7.3-2.4-2.8-.7-5.5-1-8.1-1-1.6 0-3.1.1-4.6.4-2.3.4-4.4 1.1-6.4 2.1-1.7.8-3.2 1.9-4.7 3.1-1 .9-1.8 1.9-2.6 3.2-.7 1.2-1.3 2.6-1.7 4.1-.4 1.5-.7 3-.9 4.5-.1 1.6-.1 3.2.2 4.7z" class="st11"/><path d="M44 3.6c.7 6.1 1.7 12.2 2.6 18.3M31 2.7c-4.9 12.5-.1 34-.1 34M24.5 5c-9.2 10.2-2.3 29.2-.8 30.1M56.9 8.7c3.3 5.1 6.5 10.4 7.9 16.4" class="st12"/><path d="M40.8 30.8c-4.2.3-8.5.5-12.7.3-3.9-.1-8.2-.3-11.6-2.3m62.7-2.7c-4 .9-7.9 1.1-11.8 1.8m9.7-4.3c-.4.1-14.1-2.3-29.3-3.2-13.6-.8-31.1-.4-32.9-.2m59.7 1.4c-.4.1-12.6-5.2-26.7-7.1-13.8-1.8-30.8.2-32.3.8" class="st12"/><path d="M71.9 19.2c-.4.1-9.3-6-22.8-9.7-6.6-1.8-13.5-2.8-19.5-2-6.2.8-11.3 3.4-12.1 3.7m24 16.1c-7.9.5-15.9-.1-24-1.6-1-.2-1.7-.8-2.5-1.3m63.5.8c-4.1.3-8.1.5-12.2.8" class="st12"/></g><g><ellipse cx="60.9" cy="23.1" class="st9" rx=".7" ry=".7"/><ellipse cx="54" cy="21.2" class="st9" rx=".7" ry=".7"/><ellipse cx="50.8" cy="20.9" class="st9" rx=".7" ry=".7"/><ellipse cx="54.1" cy="23" class="st9" rx=".7" ry=".7"/><ellipse cx="50.2" cy="23" class="st9" rx=".7" ry=".7"/><ellipse cx="48.1" cy="21.5" class="st9" rx=".7" ry=".7"/><ellipse cx="47.1" cy="23.5" class="st9" rx=".7" ry=".7"/><ellipse cx="49.8" cy="25.9" class="st9" rx=".7" ry=".7"/><ellipse cx="46.3" cy="26.3" class="st9" rx=".7" ry=".7"/><ellipse cx="54.4" cy="25.6" class="st9" rx=".7" ry=".7"/><ellipse cx="45.5" cy="22.5" class="st9" rx=".7" ry=".7"/><ellipse cx="44.4" cy="24.6" class="st9" rx=".7" ry=".7"/><ellipse cx="43.3" cy="27.1" class="st9" rx=".7" ry=".7"/><ellipse cx="45.6" cy="29.7" class="st9" rx=".7" ry=".7"/><ellipse cx="42.7" cy="30.2" class="st9" rx=".7" ry=".7"/><ellipse cx="49.8" cy="29.2" class="st9" rx=".7" ry=".7"/><ellipse cx="54.8" cy="28.6" class="st9" rx=".7" ry=".7"/><ellipse cx="50" cy="32.3" class="st9" rx=".7" ry=".7"/><ellipse cx="45.2" cy="32.9" class="st9" rx=".7" ry=".7"/><ellipse cx="42.1" cy="33.3" class="st9" rx=".7" ry=".7"/><ellipse cx="40.6" cy="30.6" class="st9" rx=".7" ry=".7"/><ellipse cx="41.2" cy="28.1" class="st9" rx=".7" ry=".7"/><ellipse cx="40.4" cy="33.6" class="st9" rx=".7" ry=".7"/><ellipse cx="55.3" cy="31.3" class="st9" rx=".7" ry=".7"/><ellipse cx="61.8" cy="24.4" class="st9" rx=".7" ry=".7"/><ellipse cx="63" cy="26.1" class="st9" rx=".7" ry=".7"/><ellipse cx="64.4" cy="27.8" class="st9" rx=".7" ry=".7"/><ellipse cx="65.7" cy="29.6" class="st9" rx=".7" ry=".7"/><ellipse cx="66.9" cy="26.5" class="st9" rx=".7" ry=".7"/><ellipse cx="68.4" cy="27.5" class="st9" rx=".7" ry=".7"/><ellipse cx="69.6" cy="28.3" class="st9" rx=".7" ry=".7"/><ellipse cx="70.7" cy="29.3" class="st9" rx=".7" ry=".7"/><g class="st0"><path d="M71 29.5c-2-1.8-5.8-4.6-10.2-6.3-4.5-1.8-9.3-2.6-11.9-2-5.4 1.3-9.2 5.6-8.4 15.1M50.8 21c-1.7 4.4-.8 13-.5 14.1M54 21.2c.3 6.3 1.7 11.1 2 12.6m-7.9-12.4c-2.3 4.2-3.2 13.1-2.8 14.6m15.5-12.9c2.8 3.8 5.2 6.4 5.9 8m-21-8.7c-3.1 3.7-3.9 12.8-3.6 14.4" class="st8"/><path d="M42.1 26c-.2.1 2.9-3 9.5-3.2 4-.1 9.3.7 16.2 4.1" class="st8"/><path d="M41.2 28.1c-.2.1 3-2 9.6-2.3 4-.1 12.1-.7 17.8 1.7m-27.9 3c-.2.1 3.2-.7 9.8-1.3 3.9-.4 13.9-2.4 19.3-.8m-29.4 5.2c-.2.1 3.2-.4 9.6-1.4 3.9-.6 16-3.4 20.8-3" class="st8"/></g><path d="M71 29.5c-5.5 2.3-26.9 8-30.5 6.8" class="st11"/></g></g></g></switch></svg>