<?xml version="1.0" encoding="iso-8859-1"?>
<!-- Generator: Adobe Illustrator 17.1.0, SVG Export Plug-In . SVG Version: 6.00 Build 0)  -->
<!DOCTYPE svg PUBLIC "-//W3C//DTD SVG 1.1//EN" "http://www.w3.org/Graphics/SVG/1.1/DTD/svg11.dtd" [
	<!ENTITY ns_extend "http://ns.adobe.com/Extensibility/1.0/">
	<!ENTITY ns_ai "http://ns.adobe.com/AdobeIllustrator/10.0/">
	<!ENTITY ns_graphs "http://ns.adobe.com/Graphs/1.0/">
	<!ENTITY ns_vars "http://ns.adobe.com/Variables/1.0/">
	<!ENTITY ns_imrep "http://ns.adobe.com/ImageReplacement/1.0/">
	<!ENTITY ns_sfw "http://ns.adobe.com/SaveForWeb/1.0/">
	<!ENTITY ns_custom "http://ns.adobe.com/GenericCustomNamespace/1.0/">
	<!ENTITY ns_adobe_xpath "http://ns.adobe.com/XPath/1.0/">
]>
<svg version="1.1" xmlns:x="&ns_extend;" xmlns:i="&ns_ai;" xmlns:graph="&ns_graphs;"
	 xmlns="http://www.w3.org/2000/svg" xmlns:xlink="http://www.w3.org/1999/xlink" x="0px" y="0px" viewBox="0 0 243.33 131.265"
	 style="enable-background:new 0 0 243.33 131.265;transform: rotate(90deg);" xml:space="preserve">
<metadata>
	<sfw  xmlns="&ns_sfw;">
		<slices></slices>
		<sliceSourceBounds  height="179.104" width="289.168" x="456" y="-369.104" bottomLeftOrigin="true"></sliceSourceBounds>
	</sfw>
</metadata>

<g id="Layer_2" >
	<path style="fill:#5B525E;" d="M79.165,91.531c-1.396,1.562-19.75,21.708-44,20.833c-35.967-1.298-29.63-29.292-29.63-29.292
		c-14.037,46.167,67.297,67.667,98.797,23L79.165,91.531z"/>
	<path style="fill:#584F5B;" d="M3.165,47.489l1.25,34.75c42.5-28,95.072,23.183,147.25,42.5c45.87,16.982,85.5,1.25,87.75-52.25
		C171.165,114.989,65.091-88.43,3.165,47.489z"/>
	<path style="fill:none;stroke:#000000;stroke-miterlimit:10;" d="M239.415,72.489"/>
	<path style="fill:#5B525E;" d="M147.915,42.364l17.5,13c29-25.375,76.625-17.125,74,17.125
		C252.665,21.614,174.54,2.614,147.915,42.364z"/>
</g>
</svg>
