<svg xmlns="http://www.w3.org/2000/svg" id="Layer_1" x="0" y="0" version="1.1" viewBox="0 0 301.7 138.3" xml:space="preserve"><style>.st0{stroke:#999}.st0,.st1{fill:none;stroke-miterlimit:10}.st1,.st2,.st3{display:none;stroke:#999}.st2{stroke-miterlimit:10;fill:#fff}.st3{fill:none}.st4,.st5{fill:#fff;stroke:#f2f2f2;stroke-miterlimit:10}.st5{stroke:#999}</style><switch><g><path d="M276.9 96.3c4.1-18.3 5.3-37 2-56.3-1.5-8.3-3.3-16.3-6.3-23.9M224.5 85.1c4.8-11.9 7.8-25.6 8.4-38.4.3-6.5.2-13-.3-19.4-.3-3.3-.6-6.5-1-9.8-.2-1.6-1-6-1.2-7.6M181.5 99.5c10-8.3 16.7-20.6 20-32.8 4.8-16.3 6.4-29.5 4.3-46.1M138 123.1c44.8-25.5 40.7-89.8 42.7-82.4M108.9 134.1c42-25.5 58.4-76.8 56-78.9" class="st0"/><path d="M193.6 94.5c-2.3-.4-6.2-1.1-8.7-.2-13 4.9-23.5 13.2-35.8 20.5-3.6 2.1-7.2 4-10.8 5.8-1.2.6-33 13-49.9 16.4-4.8.9-13.6-1-18.5-.6" class="st0"/><path d="M211.1 88.6c-3.3-.6-9-1.3-12.3-1.6-3.2-.3-6.2-.3-9.2.8-6.1 2.2-12 5-17.5 8.4-5.3 3.3-10.2 7.2-15.4 10.8-5.3 3.7-10.7 6.7-16.5 9.3-6.3 2.8-12.6 5.5-19 8.1-6.3 2.5-12.7 5.1-19.2 7-13.2 3.8-27.3 4.8-40.9 4M284.9 111.3c-3.8 3.3-.7.7-5.6 1.6" class="st0"/><path d="M298.1 73.8c-.3 1-9.3-1.2-17.6-4.3-14.1-5.3-41.6-8.7-49.1-9.6-7.8-1-22.5 2.9-29.2 4.7-2.1.6-18.7 11.9-20.6 13-9.5 5.8-19 13.3-28.8 17.8-10.8 5-29.7 16.5-40 20.8-9.3 3.9-26.3 10.7-30.2 10.2" class="st0"/><path d="M295.4 87.8c-.3 1-7.9 3.1-16.3 0-14.1-5.3-42.4-15.6-49.7-17.3-8.2-1.9-24.8-.3-30.4 3.7-1.8 1.3-19.7 13-21.5 14.1-9.5 5.8-18.5 11.8-28.3 16.3-10.8 5-30.6 14.6-40.9 18.9-9.3 3.9-36.5 6.8-40.4 6.3" class="st0"/><path d="M233.3 84c-3.3-1.5-8.9-3.5-12.5-4.1-7.5-.9-14.8-2.5-22 .6-9 3.7-17.2 8.6-26.2 13.2-5.4 3.1-10.2 6.1-15.4 10.1-2.7 1.8-5.4 3.1-8.1 4.9-7.8 4.6-16 8-24.1 11.3-1.8.6-3.3 1.2-5.1 1.5-2.7 1.2-5.7 1.8-8.4 3.1-.9.6-1.8.9-2.7 1.5-17.5 6.7-36.4 5.5-54.7 5.4M291.1 100.3c-5.3 2.6-5.9 1.3-11.9 1.3" class="st0"/><path d="M298.8 61.2C276.3 51.6 251.5 50 226.7 50c-10.8 0-20.1 3.1-29.4 9.3-32.5 23.2-64.7 43.6-99.3 59.2" class="st0"/><path d="M297.3 49.6c-18.7-8.6-37.6-14.5-58.5-12.1-28.5 3.3-54 20.6-76.6 37.2-16.8 12.3-35 27-53.6 36.6" class="st0"/><path d="M285.6 27.2c-5.4-2.5-10.2-5.8-15.9-7.8-10.7-3.8-22.2-4.5-33.3-2.8-26.2 4.1-47.3 19.5-65.5 37.9C156.7 69.1 145.6 87 126.8 96" class="st0"/><path d="M293.3 39.6c-17.8-8.3-34.4-14.7-54.6-12.4-27.3 3.2-50.7 19.6-71.1 37-16 13.6-29.9 29.5-48.9 39M273.1 17.5c-6.2-4.7-12.4-7.8-20.1-9.3" class="st0"/><path d="M254.8 82.1c3-15.1 3.6-30.2 2.4-45.5-.6-11-2.1-18.6-6.7-28.8" class="st0"/><path d="M180 99.8c-.2 0-1.1.6-2.6 1.5-6.1 3.5-21.8 12.7-36.5 20.5-6.3 3.3-12.9 5.9-19.5 8.5-2.8 1.1-6 2.2-9.3 3.1-19.9 5.5-47.8 6.9-65.1-2.9.2.1 1 .2 2.3.6 1.6.5 1.4.5 2.2.5 2.3 0 5.5-.2 9.1-.6 3.6-.4 7.5-1 11.3-1.7 3.8-.7 7.5-1.6 10.6-2.5 2.2-.7 4-1.4 5.4-2.1.8-.4 1.6-.8 2.4-1.3 2.2-1.2 4.7-2.7 7.4-4.4.4-.2.7-.4 1.1-.7 2.9-1.9 6-4 9.2-6.3 3-2.2 6.2-4.6 9.3-7.2 3-2.5 6.1-5.1 9-7.9 1.4-1.3 2.8-2.7 4.1-4.1 1.4-1.4 2.7-2.8 4-4.3 11-12.3 22.6-25.2 34.6-37.1 5.2-5.1 10.4-10 15.7-14.6 7.2-6.2 14.4-11.7 21.7-16.3 7.7-4.8 15.3-8.5 23-10.7 5.5-1.6 11-2.4 16.5-2.2 2.8.1 5.6.4 8.4 1 3.6.8 8.3 2.5 13.2 5 5.4 2.7 11 6.4 15.6 10.8 1.5 1.5 2.9 3 4.1 4.6 1.2 1.6 2.3 3.2 3.2 4.8 2.1 3.5 3.6 7.1 4.8 10.4.8 2.1 1.5 4.1 2.1 5.9.3 1 .6 2.1.9 3.3.6 2.9.8 6.2.8 9.7v1.2c-.1 3.2-.3 6.5-.7 9.9-.5 3.8-1.2 7.7-2.1 11.4-.9 3.8-2 7.5-3.2 10.7-1.1 3.1-2.5 6-4.2 8.8-1.3 2.2-3 5-4.8 8.1-1.9 3.1-3.9 6.3-5.9 9.2-2.9 4.2-6.1 7.3-8.3 8.6-2.8 1.7-7.3 3.9-10.5 3.6" class="st0"/><ellipse cx="213.4" cy="126.7" class="st1" rx="1.4" ry="1.3"/><ellipse cx="231.2" cy="118.2" class="st1" rx="1.4" ry="1.3"/><ellipse cx="257" cy="119" class="st1" rx="1.4" ry="1.3"/><ellipse cx="257" cy="109.5" class="st1" rx="1.4" ry="1.3"/><ellipse cx="256.1" cy="98.5" class="st1" rx="1.4" ry="1.3"/><ellipse cx="205.8" cy="113.3" class="st1" rx="1.4" ry="1.3"/><ellipse cx="232.3" cy="127" class="st1" rx="1.4" ry="1.3"/><ellipse cx="255.6" cy="128.9" class="st1" rx="1.4" ry="1.3"/><ellipse cx="209" cy="119.9" class="st1" rx="1.4" ry="1.3"/><ellipse cx="233.7" cy="134.6" class="st1" rx="1.4" ry="1.3"/><ellipse cx="253.7" cy="136.3" class="st1" rx="1.4" ry="1.3"/><ellipse cx="263.8" cy="132.4" class="st1" rx="1.4" ry="1.3"/><ellipse cx="268.5" cy="125.3" class="st1" rx="1.4" ry="1.3"/><ellipse cx="270.4" cy="117.7" class="st1" rx="1.4" ry="1.3"/><ellipse cx="270.9" cy="109.5" class="st1" rx="1.4" ry="1.3"/><ellipse cx="269.8" cy="99.9" class="st1" rx="1.4" ry="1.3"/><ellipse cx="255.3" cy="92.2" class="st1" rx="1.4" ry="1.3"/><ellipse cx="268.5" cy="93" class="st1" rx="1.4" ry="1.3"/><path d="M200.3 100.7c-.1-.1-.2-.1-.2-.2.1.1.1.1-.1 0h-.1c-.1 0-.2-.1-.3-.1-.1 0-.1 0-.2-.1.1.6.7 1.1 1.3 1.1.2 0 .3 0 .5-.1-.2-.1-.5-.3-.9-.6z" class="st1"/><ellipse cx="202.7" cy="106.4" class="st1" rx="1.4" ry="1.3"/><ellipse cx="274.5" cy="123.1" class="st1" rx="1.4" ry="1.3"/><path d="M228.8 84.6c.4-.1.7 0 1 .1-.1-.7-.6-1.2-1.4-1.2-.8 0-1.4.6-1.4 1.3v.3c.6-.3 1.2-.4 1.8-.5z" class="st1"/><ellipse cx="253.7" cy="83.4" class="st1" rx="1.4" ry="1.3"/><ellipse cx="265.2" cy="86.2" class="st1" rx="1.4" ry="1.3"/><ellipse cx="278.6" cy="109.2" class="st1" rx="1.4" ry="1.3"/><ellipse cx="278.6" cy="102.6" class="st1" rx="1.4" ry="1.3"/><ellipse cx="276.1" cy="95.8" class="st1" rx="1.4" ry="1.3"/><ellipse cx="277.5" cy="116.8" class="st1" rx="1.4" ry="1.3"/><path d="M203.8 90.6h.2c-.1-.6-.7-1-1.3-1-.8 0-1.4.6-1.4 1.3 0 .2.1.4.1.6.8-.5 1.6-.7 2.4-.9z" class="st1"/><ellipse cx="180" cy="101" class="st1" rx="1.4" ry="1.3"/><ellipse cx="178.9" cy="100.1" class="st1" rx="1.4" ry="1.3"/><ellipse cx="182.2" cy="104" class="st1" rx="1.4" ry="1.3"/><ellipse cx="186" cy="106.7" class="st1" rx="1.4" ry="1.3"/><path d="M278.4 102.7c-.4-2.5-1.1-4.8-2.1-6.9-1.1-2.3-2.5-4.2-4.3-5.8-2.1-1.9-4.6-3.4-7.6-4.5-3.2-1.2-7.1-2.1-11.4-2.4-1.9-.2-4-.3-6.1-.3-5.3 0-11.3.5-17.8 1.6-7.3 1.2-15.2 3-23.3 5.4-6.2 1.8-12.5 4-17.2 5.9-2.7 1.1-4.5 2-5.4 2.6-1 .7-1.5 1.5-1.5 2.5 0 .9.3 1.7 1 2.3.3.3.8.7 1.2 1.1l.7.7c.5.4 1 1 1.6 1.5 1.1 1 2.2 2 3.3 2.9 1.3 1.2 2.5 2.2 4 3.5 1.6 1.3 3.2 2.6 4.7 3.8 5.6 4.4 11.1 8.1 16.3 11 2.7 1.5 5.4 2.8 7.9 4 3.8 1.6 7.5 2.9 11.2 3.8 4.3 1 8.5 1.6 12.5 1.6 2.4 0 4.8-.2 7.1-.6 3.5-.6 6.8-1.7 9.9-3.2 2.6-1.3 5-2.9 7.2-4.9 1.5-1.3 2.8-3 4-5 1.1-1.9 2-4 2.7-6.3.7-2.3 1.1-4.6 1.3-7 .5-2.6.4-5 .1-7.3zM233.5 134.6c-1.1-9.5-2.6-18.9-4-28.3M253.6 136.1c7.7-19.4.1-52.7.2-52.7M263.7 132.5c14.3-15.9 3.5-45.2 1.3-46.7M213.6 126.8c-5.1-7.9-10.1-16.1-12.3-25.3" class="st0"/><path d="M238.5 92.6c6.5-.4 13.1-.7 19.7-.5 6 .2 12.7.5 18 3.6M179 99.9c6.2-1.5 12.2-1.8 18.3-2.9M184 104.1c31.2 4.2 63.1 7.2 94.6 4.8M187.5 107.3c28.6 10.7 59.9 15.6 90.1 9.4M192.6 112c24.5 13.6 54.9 24 81.9 10.9M237.4 98c12.2-.8 24.6.1 37.2 2.5 1.5.3 2.7 1.2 3.9 2M181.8 101.2c6.3-.4 10.8-.6 17.1-1.1" class="st0"/><ellipse cx="207.4" cy="104.5" class="st2" rx="1" ry="1"/><ellipse cx="218.1" cy="107.4" class="st2" rx="1" ry="1"/><ellipse cx="223.1" cy="107.8" class="st2" rx="1" ry="1"/><ellipse cx="217.8" cy="104.7" class="st2" rx="1" ry="1"/><ellipse cx="223.9" cy="104.7" class="st2" rx="1" ry="1"/><ellipse cx="227.2" cy="107" class="st2" rx="1" ry="1"/><ellipse cx="228.7" cy="103.9" class="st2" rx="1" ry="1"/><ellipse cx="224.5" cy="100.1" class="st2" rx="1" ry="1"/><ellipse cx="230" cy="99.5" class="st2" rx="1" ry="1"/><ellipse cx="217.4" cy="100.5" class="st2" rx="1" ry="1"/><ellipse cx="231.2" cy="105.3" class="st2" rx="1" ry="1"/><ellipse cx="232.9" cy="102.2" class="st2" rx="1" ry="1"/><ellipse cx="234.6" cy="98.2" class="st2" rx="1" ry="1"/><ellipse cx="231" cy="94.3" class="st2" rx="1" ry="1"/><ellipse cx="235.6" cy="93.4" class="st2" rx="1" ry="1"/><ellipse cx="224.5" cy="95.1" class="st2" rx="1" ry="1"/><ellipse cx="216.8" cy="95.9" class="st2" rx="1" ry="1"/><ellipse cx="224.3" cy="90.3" class="st2" rx="1" ry="1"/><ellipse cx="231.6" cy="89.2" class="st2" rx="1" ry="1"/><ellipse cx="236.4" cy="88.6" class="st2" rx="1" ry="1"/><ellipse cx="237.9" cy="96.8" class="st2" rx="1" ry="1"/><ellipse cx="239.2" cy="88.2" class="st2" rx="1" ry="1"/><ellipse cx="216" cy="91.8" class="st2" rx="1" ry="1"/><ellipse cx="205.9" cy="102.4" class="st2" rx="1" ry="1"/><ellipse cx="204.1" cy="99.9" class="st2" rx="1" ry="1"/><ellipse cx="202" cy="97.2" class="st2" rx="1" ry="1"/><ellipse cx="199.9" cy="94.5" class="st2" rx="1" ry="1"/><ellipse cx="198" cy="99.3" class="st2" rx="1" ry="1"/><ellipse cx="195.7" cy="97.6" class="st2" rx="1" ry="1"/><ellipse cx="193.8" cy="96.3" class="st2" rx="1" ry="1"/><ellipse cx="192.2" cy="94.9" class="st2" rx="1" ry="1"/><path d="M191.7 94.6c3.1 2.7 9 7.1 15.8 9.8 6.9 2.8 14.4 4.1 18.5 3.1 8.4-2 14.3-8.6 13-23.4M223 107.7c2.6-6.7 1.2-20.2.8-21.9M218 107.4c-.4-9.8-2.6-17.2-3.1-19.6M227.2 107.2c3.5-6.5 4.9-20.2 4.4-22.6M207.5 104.4c-4.4-5.9-8.1-9.9-9.2-12.3M230.9 105.6c4.8-5.7 6.1-19.9 5.5-22.3" class="st0"/><path d="M236.5 100c.3-.1-4.4 4.6-14.6 4.9-6.2.2-14.5-1-25.1-6.4" class="st0"/><path d="M237.9 96.8c.3-.1-4.7 3.2-14.9 3.5-6.2.2-18.8 1.2-27.6-2.7M238.7 93c.3-.1-5 1-15.1 2.1-6.1.6-21.6 3.7-29.8 1.2M239.2 88.1c.3-.1-5 .6-14.9 2.1-6.1.9-24.7 5.3-32.2 4.7" class="st0"/><path d="M191.7 94.6c8.4-3.6 41.6-12.4 47.2-10.5" class="st3"/><ellipse cx="121.9" cy="97.5" class="st4" rx="2.4" ry="2.3"/><ellipse cx="239.5" cy="93.1" class="st5" rx="1" ry="1"/><ellipse cx="217.9" cy="96.2" class="st5" rx="1" ry="1"/><ellipse cx="225.6" cy="100.8" class="st5" rx="1" ry="1"/><ellipse cx="225.6" cy="90" class="st5" rx="1" ry="1"/><ellipse cx="231.8" cy="94.7" class="st5" rx="1" ry="1"/><ellipse cx="217.9" cy="105.5" class="st5" rx="1" ry="1"/><ellipse cx="230.2" cy="103.9" class="st5" rx="1" ry="1"/><ellipse cx="234.8" cy="99.3" class="st5" rx="1" ry="1"/><ellipse cx="236.4" cy="88.5" class="st5" rx="1" ry="1"/><ellipse cx="224" cy="108.5" class="st5" rx="1" ry="1"/><ellipse cx="200.9" cy="94.7" class="st5" rx="1" ry="1"/><ellipse cx="205.5" cy="100.8" class="st5" rx="1" ry="1"/><ellipse cx="206.8" cy="113.9" class="st5" rx="1.4" ry="1.3"/><ellipse cx="233" cy="127.8" class="st5" rx="1.4" ry="1.3"/><ellipse cx="183.6" cy="101.5" class="st5" rx="1.4" ry="1.3"/><ellipse cx="189.8" cy="109.2" class="st5" rx="1.4" ry="1.3"/><ellipse cx="214.5" cy="127.8" class="st5" rx="1.4" ry="1.3"/><ellipse cx="254.6" cy="137" class="st5" rx="1.4" ry="1.3"/><ellipse cx="257.7" cy="120" class="st5" rx="1.4" ry="1.3"/><ellipse cx="268.5" cy="126.2" class="st5" rx="1.4" ry="1.3"/><ellipse cx="256.2" cy="98.4" class="st5" rx="1.4" ry="1.3"/><ellipse cx="271.6" cy="109.2" class="st5" rx="1.4" ry="1.3"/><ellipse cx="274.7" cy="123.1" class="st5" rx="1.4" ry="1.3"/><ellipse cx="268.5" cy="93.8" class="st5" rx="1.4" ry="1.3"/><ellipse cx="279.3" cy="109.2" class="st5" rx="1.4" ry="1.3"/><ellipse cx="276.2" cy="95.4" class="st5" rx="1.4" ry="1.3"/><ellipse cx="254.6" cy="83" class="st5" rx="1.4" ry="1.3"/><ellipse cx="202.2" cy="66" class="st5" rx="2.4" ry="2.3"/><ellipse cx="196" cy="83" class="st5" rx="2.4" ry="2.3"/><ellipse cx="172.8" cy="76.8" class="st5" rx="2.4" ry="2.3"/><ellipse cx="179" cy="55.2" class="st5" rx="2.4" ry="2.3"/><ellipse cx="186.7" cy="95.4" class="st5" rx="2.4" ry="2.3"/><ellipse cx="157.4" cy="78.4" class="st5" rx="2.4" ry="2.3"/><ellipse cx="206.8" cy="47.5" class="st5" rx="2.4" ry="2.3"/><ellipse cx="206.8" cy="27.5" class="st5" rx="2.4" ry="2.3"/><ellipse cx="165.1" cy="96.9" class="st5" rx="2.4" ry="2.3"/><ellipse cx="180.6" cy="41.3" class="st5" rx="2.4" ry="2.3"/><ellipse cx="229.9" cy="8.9" class="st4" rx="2.4" ry="2.3"/><ellipse cx="273.1" cy="16.7" class="st5" rx="2.4" ry="2.3"/><ellipse cx="283.9" cy="27.5" class="st5" rx="2.4" ry="2.3"/><ellipse cx="256.2" cy="38.3" class="st5" rx="2.4" ry="2.3"/><ellipse cx="233" cy="29" class="st5" rx="2.4" ry="2.3"/><ellipse cx="253.1" cy="16.7" class="st5" rx="2.4" ry="2.3"/><ellipse cx="233" cy="50.6" class="st5" rx="2.4" ry="2.3"/><ellipse cx="257.7" cy="64.5" class="st5" rx="2.4" ry="2.3"/><ellipse cx="276.2" cy="33.6" class="st5" rx="2.4" ry="2.3"/><ellipse cx="229.9" cy="70.7" class="st5" rx="2.4" ry="2.3"/><ellipse cx="280.9" cy="55.2" class="st5" rx="2.4" ry="2.3"/><ellipse cx="277.8" cy="89.2" class="st5" rx="2.4" ry="2.3"/><ellipse cx="296.3" cy="50.6" class="st5" rx="2.4" ry="2.3"/><ellipse cx="297.8" cy="73.8" class="st5" rx="2.4" ry="2.3"/><ellipse cx="290.1" cy="101.5" class="st5" rx="2.4" ry="2.3"/><ellipse cx="163.6" cy="62.9" class="st5" rx="2.4" ry="2.3"/><ellipse cx="157.4" cy="107.7" class="st5" rx="2.4" ry="2.3"/><ellipse cx="145.1" cy="100" class="st5" rx="2.4" ry="2.3"/><ellipse cx="148.2" cy="118.5" class="st5" rx="2.4" ry="2.3"/><ellipse cx="129.6" cy="118.5" class="st5" rx="2.4" ry="2.3"/><ellipse cx="117.3" cy="129.3" class="st5" rx="2.4" ry="2.3"/><g><path d="M23 43.1c-4.2 18.6-5.4 37.6-2 57.2 1.5 8.4 3.4 16.5 6.4 24.3M76.3 54.5c-4.8 12.1-7.9 26-8.5 39-.3 6.6-.2 13.2.3 19.8.3 3.3.6 6.6 1 9.9.2 1.7 1 6.1 1.2 7.8M119.9 39.8c-10.2 8.4-16.9 20.9-20.3 33.4-4.9 16.5-6.5 30-4.4 46.9M164.2 15.8c-45.6 25.9-41.3 91.3-43.4 83.7M193.8 4.7c-42.7 25.9-59.3 78-56.9 80.2" class="st0"/><path d="M107.7 45c2.3.4 6.3 1.1 8.8.2 13.2-5 23.9-13.4 36.4-20.9 3.7-2.2 7.3-4.1 11-5.9 1.2-.6 33.6-13.2 50.7-16.6 4.9-.9 13.9 1 18.8.7" class="st0"/><path d="M89.9 50.9c3.3.6 9.2 1.3 12.5 1.6 3.2.3 6.3.3 9.3-.8 6.2-2.3 12.2-5.1 17.8-8.6 5.4-3.4 10.4-7.3 15.6-11 5.3-3.7 10.9-6.8 16.8-9.5 6.4-2.8 12.8-5.6 19.3-8.2 6.4-2.6 12.9-5.2 19.5-7.1 13.4-3.9 27.7-4.8 41.6-4M14.9 27.9c3.8-3.4.7-.7 5.7-1.6" class="st0"/><path d="M1.5 65.9c.3-1 9.5 1.2 17.9 4.4 14.4 5.4 42.3 8.8 49.9 9.8 7.9 1 22.9-2.9 29.6-4.8 2.1-.6 19-12.1 20.9-13.2 9.6-5.9 19.3-13.5 29.2-18.1 11-5 30.2-16.8 40.6-21.1 9.5-3.9 26.7-10.8 30.7-10.4" class="st0"/><path d="M4.2 51.8c.3-1 8.1-3.2 16.5 0 14.4 5.4 43.1 15.9 50.5 17.6 8.4 1.9 25.2.3 30.9-3.7 1.8-1.3 20-13.2 21.9-14.3 9.6-5.9 18.8-12 28.8-16.5 11-5 31.1-14.9 41.5-19.2 9.5-3.9 37.1-6.9 41-6.4" class="st0"/><path d="M67.4 55.6c3.3 1.6 9 3.5 12.7 4.2 7.7.9 15 2.5 22.3-.6 9.2-3.7 17.4-8.7 26.6-13.4 5.5-3.1 10.4-6.2 15.6-10.3 2.8-1.9 5.5-3.1 8.3-5 8-4.7 16.2-8.1 24.5-11.5 1.8-.6 3.4-1.2 5.2-1.6 2.8-1.2 5.8-1.9 8.6-3.1.9-.6 1.8-.9 2.8-1.6 17.8-6.9 37-5.6 55.6-5.5M8.6 39c5.4-2.7 5.9-1.4 12-1.3" class="st0"/><path d="M.7 78.8C23.6 88.6 48.8 90.2 74 90.2c11 0 20.5-3.1 29.9-9.4 33.1-23.6 65.8-44.3 101-60.2" class="st0"/><path d="M2.3 90.6c19 8.7 38.2 14.7 59.5 12.3 29-3.3 54.9-21 77.8-37.8 17.1-12.5 35.6-27.5 54.5-37.2" class="st0"/><path d="M14.2 113.4c5.4 2.6 10.4 5.9 16.1 7.9 10.8 3.9 22.5 4.6 33.8 2.8 26.7-4.1 48-19.8 66.5-38.6 14.6-14.8 25.8-33 45-42.1" class="st0"/><path d="M6.4 100.7c18.1 8.5 34.9 14.9 55.5 12.6 27.8-3.2 51.5-19.9 72.3-37.6 16.3-13.8 30.4-30 49.7-39.7M26.9 123.2c6.3 4.8 12.6 7.9 20.5 9.5" class="st0"/><path d="M45.5 57.5c-3 15.4-3.7 30.7-2.4 46.2.6 11.2 2.1 18.9 6.8 29.2" class="st0"/><path d="M121.5 39.6c.2 0 1.1-.6 2.7-1.5 6.2-3.6 22.1-13 37.1-20.8 6.4-3.3 13.1-6 19.8-8.6 2.9-1.1 6.1-2.2 9.5-3.1 20.2-5.6 48.5-7 66.2 2.9-.2-.1-1.1-.2-2.3-.6-1.6-.5-1.4-.5-2.2-.5-2.4 0-5.6.2-9.3.7-3.6.4-7.6 1-11.5 1.8-3.9.7-7.6 1.6-10.7 2.6-2.2.7-4.1 1.4-5.5 2.1-.8.4-1.6.8-2.5 1.3-2.2 1.2-4.8 2.8-7.5 4.5-.4.2-.7.5-1.1.7-2.9 1.9-6.1 4-9.3 6.4-3.1 2.2-6.3 4.7-9.4 7.3-3.1 2.5-6.1 5.2-9.1 8-1.4 1.4-2.8 2.7-4.2 4.1-1.4 1.4-2.7 2.9-4.1 4.4-11.2 12.5-23 25.6-35.2 37.7-5.3 5.2-10.6 10.2-16 14.8-7.3 6.3-14.6 11.9-22 16.5-7.8 4.9-15.6 8.6-23.4 10.8-5.6 1.6-11.2 2.4-16.8 2.2-2.9-.1-5.7-.4-8.5-1-3.6-.8-8.4-2.5-13.5-5.1-5.5-2.8-11.2-6.5-15.8-11-1.5-1.5-2.9-3-4.2-4.7-1.2-1.6-2.3-3.2-3.3-4.9-2.1-3.6-3.6-7.2-4.9-10.5-.8-2.2-1.5-4.2-2.1-6-.4-1-.6-2.2-.9-3.4-.6-2.9-.8-6.3-.8-9.9v-1.2c.1-3.2.3-6.6.8-10C2 61.7 2.7 57.8 3.6 54c.9-3.9 2-7.6 3.3-10.9C8 40 9.5 37 11.2 34.2c1.3-2.2 3-5.1 4.9-8.2s4-6.4 6-9.4c3-4.2 6.2-7.4 8.4-8.7 2.8-1.7 7.5-4 10.6-3.7" class="st0"/></g><g><ellipse cx="86.5" cy="12.2" class="st2" rx="1.4" ry="1.4"/><ellipse cx="68.4" cy="20.8" class="st2" rx="1.4" ry="1.4"/><ellipse cx="42.3" cy="20" class="st2" rx="1.4" ry="1.4"/><ellipse cx="42.3" cy="29.7" class="st2" rx="1.4" ry="1.4"/><ellipse cx="43.1" cy="40.9" class="st2" rx="1.4" ry="1.4"/><ellipse cx="94.3" cy="25.8" class="st2" rx="1.4" ry="1.4"/><ellipse cx="67.3" cy="11.9" class="st2" rx="1.4" ry="1.4"/><ellipse cx="43.7" cy="10" class="st2" rx="1.4" ry="1.4"/><ellipse cx="91" cy="19.2" class="st2" rx="1.4" ry="1.4"/><ellipse cx="65.9" cy="4.1" class="st2" rx="1.4" ry="1.4"/><ellipse cx="45.6" cy="2.5" class="st2" rx="1.4" ry="1.4"/><ellipse cx="35.3" cy="6.4" class="st2" rx="1.4" ry="1.4"/><ellipse cx="30.6" cy="13.6" class="st2" rx="1.4" ry="1.4"/><ellipse cx="28.7" cy="21.4" class="st2" rx="1.4" ry="1.4"/><ellipse cx="28.1" cy="29.7" class="st2" rx="1.4" ry="1.4"/><ellipse cx="29.2" cy="39.5" class="st2" rx="1.4" ry="1.4"/><ellipse cx="44" cy="47.3" class="st2" rx="1.4" ry="1.4"/><ellipse cx="30.6" cy="46.4" class="st2" rx="1.4" ry="1.4"/><path d="M99.8 38.6c.1.1.2.1.2.2-.1-.1-.1-.1.1 0h.1c.1 0 .2.1.3.1.1 0 .1.1.2.1-.1-.7-.7-1.2-1.4-1.2-.2 0-.3 0-.5.1.4.2.7.4 1 .7z" class="st2"/><ellipse cx="97.4" cy="32.8" class="st2" rx="1.4" ry="1.4"/><ellipse cx="24.5" cy="15.8" class="st2" rx="1.4" ry="1.4"/><path d="M70.9 55c-.4.1-.8 0-1-.1.1.7.7 1.2 1.4 1.2.8 0 1.4-.6 1.4-1.4v-.3c-.6.4-1.2.5-1.8.6z" class="st2"/><ellipse cx="45.6" cy="56.2" class="st2" rx="1.4" ry="1.4"/><ellipse cx="33.9" cy="53.4" class="st2" rx="1.4" ry="1.4"/><ellipse cx="20.3" cy="30" class="st2" rx="1.4" ry="1.4"/><ellipse cx="20.3" cy="36.7" class="st2" rx="1.4" ry="1.4"/><ellipse cx="22.8" cy="43.6" class="st2" rx="1.4" ry="1.4"/><ellipse cx="21.4" cy="22.2" class="st2" rx="1.4" ry="1.4"/><path d="M96.3 48.9h-.2c.1.6.7 1 1.3 1 .8 0 1.4-.6 1.4-1.4 0-.2-.1-.4-.1-.6-.8.5-1.6.8-2.4 1z" class="st2"/><ellipse cx="120.5" cy="38.4" class="st2" rx="1.4" ry="1.4"/><ellipse cx="121.6" cy="39.2" class="st2" rx="1.4" ry="1.4"/><ellipse cx="118.2" cy="35.3" class="st2" rx="1.4" ry="1.4"/><ellipse cx="114.3" cy="32.5" class="st2" rx="1.4" ry="1.4"/><path fill="none" stroke="#999" d="M20.5 36.6c.4 2.5 1.1 4.9 2.1 7 1.1 2.3 2.6 4.3 4.4 5.9 2.1 1.9 4.7 3.4 7.7 4.6 3.3 1.3 7.2 2.1 11.5 2.5 1.9.2 4 .3 6.2.3 5.4 0 11.5-.5 18.1-1.6 7.5-1.2 15.4-3.1 23.7-5.5 6.3-1.9 12.7-4 17.5-6 2.7-1.1 4.5-2 5.4-2.6 1-.7 1.5-1.5 1.5-2.5 0-.9-.3-1.7-1-2.3-.3-.3-.8-.7-1.2-1.1l-.8-.7c-.5-.5-1-1-1.7-1.5-1.2-1.1-2.2-2-3.3-3-1.4-1.2-2.5-2.2-4.1-3.5l-4.8-3.9c-5.7-4.5-11.3-8.2-16.6-11.2-2.7-1.5-5.5-2.9-8.1-4-3.8-1.7-7.7-2.9-11.4-3.9-4.2-1.3-8.5-1.8-12.6-1.8-2.5 0-4.9.2-7.2.6-3.6.6-7 1.7-10 3.2-2.6 1.3-5.1 3-7.3 5-1.5 1.3-2.9 3.1-4.1 5.1-1.1 1.9-2 4.1-2.7 6.4-.7 2.3-1.1 4.7-1.3 7.2-.3 2.5-.2 4.9.1 7.3z"/><path d="M66.1 4.1c1.2 9.6 2.7 19.2 4 28.8M45.7 2.6c-7.8 19.7-.1 53.6-.2 53.6M35.4 6.3c-14.5 16.1-3.5 46-1.3 47.5M86.4 12.1c5.2 8 10.2 16.4 12.5 25.7" class="st0"/><path d="M61.1 46.9c-6.6.4-13.3.7-20 .5-6.1-.2-12.9-.6-18.3-3.6M121.5 39.5c-6.3 1.5-12.4 1.8-18.6 2.9M116.4 35.1c-31.7-4.2-64.1-7.3-96.1-4.9M112.8 32C83.7 21.1 52 16.1 21.2 22.5M107.7 27.1C82.8 13.4 51.8 2.8 24.5 16M62.2 41.4c-12.4.8-25-.1-37.8-2.6-1.5-.3-2.8-1.2-4-2M118.7 38.2c-6.4.4-11 .6-17.4 1.1" class="st0"/></g><g><ellipse cx="92.6" cy="34.8" class="st2" rx="1.1" ry="1"/><ellipse cx="81.8" cy="31.8" class="st2" rx="1.1" ry="1"/><ellipse cx="76.7" cy="31.4" class="st2" rx="1.1" ry="1"/><ellipse cx="82" cy="34.5" class="st2" rx="1.1" ry="1"/><ellipse cx="75.9" cy="34.5" class="st2" rx="1.1" ry="1"/><ellipse cx="72.5" cy="32.2" class="st2" rx="1.1" ry="1"/><ellipse cx="71" cy="35.4" class="st2" rx="1.1" ry="1"/><ellipse cx="75.2" cy="39.2" class="st2" rx="1.1" ry="1"/><ellipse cx="69.7" cy="39.9" class="st2" rx="1.1" ry="1"/><ellipse cx="82.5" cy="38.8" class="st2" rx="1.1" ry="1"/><ellipse cx="68.4" cy="33.9" class="st2" rx="1.1" ry="1"/><ellipse cx="66.7" cy="37.1" class="st2" rx="1.1" ry="1"/><ellipse cx="65" cy="41.1" class="st2" rx="1.1" ry="1"/><ellipse cx="68.7" cy="45.2" class="st2" rx="1.1" ry="1"/><ellipse cx="64" cy="46" class="st2" rx="1.1" ry="1"/><ellipse cx="75.2" cy="44.3" class="st2" rx="1.1" ry="1"/><ellipse cx="83.1" cy="43.5" class="st2" rx="1.1" ry="1"/><ellipse cx="75.4" cy="49.2" class="st2" rx="1.1" ry="1"/><ellipse cx="68" cy="50.3" class="st2" rx="1.1" ry="1"/><ellipse cx="63.1" cy="50.9" class="st2" rx="1.1" ry="1"/><ellipse cx="61.6" cy="42.6" class="st2" rx="1.1" ry="1"/><ellipse cx="60.4" cy="51.3" class="st2" rx="1.1" ry="1"/><ellipse cx="83.9" cy="47.7" class="st2" rx="1.1" ry="1"/><ellipse cx="94.1" cy="36.9" class="st2" rx="1.1" ry="1"/><ellipse cx="96" cy="39.4" class="st2" rx="1.1" ry="1"/><ellipse cx="98.2" cy="42.2" class="st2" rx="1.1" ry="1"/><ellipse cx="100.3" cy="44.9" class="st2" rx="1.1" ry="1"/><ellipse cx="102.2" cy="40.1" class="st2" rx="1.1" ry="1"/><ellipse cx="104.5" cy="41.8" class="st2" rx="1.1" ry="1"/><ellipse cx="106.4" cy="43" class="st2" rx="1.1" ry="1"/><ellipse cx="108.1" cy="44.5" class="st2" rx="1.1" ry="1"/><path d="M108.5 44.8c-3.1-2.8-9.1-7.2-16-9.9-7-2.8-14.6-4.1-18.8-3.1-8.6 2.1-14.5 8.8-13.2 23.8M76.7 31.5c-2.6 6.9-1.2 20.5-.7 22.3M81.8 31.8c.5 9.9 2.6 17.5 3.2 19.9M72.5 32c-3.6 6.6-5 20.6-4.4 23M92.5 34.9c4.4 6 8.2 10.1 9.3 12.5M68.8 33.6c-4.9 5.8-6.2 20.2-5.6 22.6" class="st0"/><path d="M63.1 39.4c-.3.1 4.5-4.6 14.9-5 6.3-.2 14.7 1 25.5 6.5" class="st0"/><path d="M61.6 42.6c-.3.1 4.7-3.2 15.1-3.6 6.3-.2 19.1-1.2 28 2.7M60.9 46.5c-.3.1 5-1.1 15.4-2.1 6.2-.6 21.9-3.8 30.3-1.2M60.4 51.4c-.3.1 5.1-.6 15.1-2.1 6.2-.9 25.1-5.4 32.7-4.8" class="st0"/><path d="M108.5 44.8c-8.6 3.6-42.3 12.6-48 10.7" class="st3"/></g><linearGradient id="SVGID_1_" x1="45.034" x2="301.745" y1="70.451" y2="70.451" gradientUnits="userSpaceOnUse"><stop offset=".257" stop-color="#602665"/><stop offset=".319" stop-color="#572f60"/><stop offset=".421" stop-color="#404953"/><stop offset=".551" stop-color="#1a723d"/><stop offset=".591" stop-color="#0d8036"/><stop offset=".994" stop-color="#756de9"/></linearGradient><path fill="url(#SVGID_1_)" d="M225.6 95.7c-.6 0-1-.5-1-1s.5-1 1-1c.6 0 1 .5 1 1s-.4 1-1 1zm-6.7 5.1c0-.6-.5-1-1-1-.6 0-1 .5-1 1 0 .6.5 1 1 1s1-.4 1-1zm6.2 4.7c0-.6-.5-1-1-1-.6 0-1 .5-1 1 0 .6.5 1 1 1s1-.5 1-1zm-7.7-13.9c0-.6-.5-1-1-1-.6 0-1 .5-1 1s.5 1 1 1 1-.5 1-1zm15.4-1.6c0-.6-.5-1-1-1-.6 0-1 .5-1 1s.5 1 1 1 1-.4 1-1zm-29.3 7.7c0-.6-.5-1-1-1s-1 .5-1 1 .5 1 1 1 1-.4 1-1zm27.8 2.5c0-.6-.5-1-1-1-.6 0-1 .5-1 1 0 .6.5 1 1 1s1-.4 1-1zm6.1-5.5c0-.6-.5-1-1-1s-1 .5-1 1 .5 1 1 1 1-.5 1-1zm-16.9 13.8c0-.6-.5-1-1-1-.6 0-1 .5-1 1s.5 1 1 1c.5.1 1-.4 1-1zm-12.4-4.6c0-.6-.5-1-1-1-.6 0-1 .5-1 1 0 .6.5 1 1 1s1-.4 1-1zm21.6 4.6c0-.6-.5-1-1-1-.6 0-1 .5-1 1s.5 1 1 1c.5.1 1-.4 1-1zm4.6-3c0-.6-.5-1-1-1-.6 0-1 .5-1 1 0 .6.5 1 1 1 .6 0 1-.5 1-1zm5.6-7.8c0-.6-.5-1-1-1-.6 0-1 .5-1 1s.5 1 1 1c.5.1 1-.4 1-1zm2.2-9.2c0-.6-.5-1-1-1-.6 0-1 .5-1 1 0 .6.5 1 1 1s1-.5 1-1zM211.2 120c0-.7-.6-1.3-1.4-1.3s-1.4.6-1.4 1.3c0 .7.6 1.3 1.4 1.3s1.4-.5 1.4-1.3zm-6.1-13.8c0-.7-.6-1.3-1.4-1.3-.8 0-1.4.6-1.4 1.3 0 .7.6 1.3 1.4 1.3.8 0 1.4-.6 1.4-1.3zm27.7 12.3c0-.7-.6-1.3-1.4-1.3s-1.4.6-1.4 1.3.6 1.3 1.4 1.3 1.4-.6 1.4-1.3zm-46.2-13.9c0-.7-.6-1.3-1.4-1.3s-1.4.6-1.4 1.3c0 .7.6 1.3 1.4 1.3s1.4-.6 1.4-1.3zm10.8 9.3c0-.7-.6-1.3-1.4-1.3s-1.4.6-1.4 1.3.6 1.3 1.4 1.3 1.4-.6 1.4-1.3zm38.5 21.6c0-.7-.6-1.3-1.4-1.3s-1.4.6-1.4 1.3c0 .7.6 1.3 1.4 1.3s1.4-.6 1.4-1.3zm21.6-6.2c0-.7-.6-1.3-1.4-1.3-.8 0-1.4.6-1.4 1.3s.6 1.3 1.4 1.3c.8 0 1.4-.6 1.4-1.3zm9.3 4.6c0-.7-.6-1.3-1.4-1.3-.8 0-1.4.6-1.4 1.3s.6 1.3 1.4 1.3c.8.1 1.4-.5 1.4-1.3zm6.2-15.4c0-.7-.6-1.3-1.4-1.3-.8 0-1.4.6-1.4 1.3s.6 1.3 1.4 1.3c.8 0 1.4-.6 1.4-1.3zm-13.9-7.7c0-.7-.6-1.3-1.4-1.3s-1.4.6-1.4 1.3.6 1.3 1.4 1.3 1.4-.6 1.4-1.3zm12.3-10.8c0-.7-.6-1.3-1.4-1.3-.8 0-1.4.6-1.4 1.3s.6 1.3 1.4 1.3c.8 0 1.4-.6 1.4-1.3zm7.7 17c0-.7-.6-1.3-1.4-1.3-.8 0-1.4.6-1.4 1.3s.6 1.3 1.4 1.3c.8 0 1.4-.6 1.4-1.3zm-21.6-24.7c0-.7-.6-1.3-1.4-1.3-.8 0-1.4.6-1.4 1.3s.6 1.3 1.4 1.3c.8 0 1.4-.6 1.4-1.3zm23.2 9.2c0-.7-.6-1.3-1.4-1.3-.8 0-1.4.6-1.4 1.3 0 .7.6 1.3 1.4 1.3.8.1 1.4-.5 1.4-1.3zm-13.9-15.4c0-.7-.6-1.3-1.4-1.3-.8 0-1.4.6-1.4 1.3 0 .7.6 1.3 1.4 1.3.8 0 1.4-.6 1.4-1.3zm-59.2-30.9c0-1.3-1.1-2.3-2.4-2.3-1.3 0-2.4 1-2.4 2.3 0 1.3 1.1 2.3 2.4 2.3 1.4 0 2.4-1 2.4-2.3zm-6.1 20.1c0-1.3-1.1-2.3-2.4-2.3-1.3 0-2.4 1-2.4 2.3s1.1 2.3 2.4 2.3c1.3 0 2.4-1 2.4-2.3zm-29.4 10.8c0-1.3-1.1-2.3-2.4-2.3-1.3 0-2.4 1-2.4 2.3 0 1.3 1.1 2.3 2.4 2.3 1.4 0 2.4-1 2.4-2.3zm7.7-20.1c0-1.3-1.1-2.3-2.4-2.3-1.3 0-2.4 1-2.4 2.3s1.1 2.3 2.4 2.3c1.4.1 2.4-1 2.4-2.3zm15.5 23.2c0-1.3-1.1-2.3-2.4-2.3-1.3 0-2.4 1-2.4 2.3 0 1.3 1.1 2.3 2.4 2.3 1.3 0 2.4-1 2.4-2.3zM182.9 46c0-1.3-1.1-2.3-2.4-2.3s-2.4 1-2.4 2.3c0 1.3 1.1 2.3 2.4 2.3s2.4-1 2.4-2.3zm26.3-7.7c0-1.3-1.1-2.3-2.4-2.3-1.3 0-2.4 1-2.4 2.3 0 1.3 1.1 2.3 2.4 2.3 1.3 0 2.4-1.1 2.4-2.3zm-44.8 63.2c0-1.3-1.1-2.3-2.4-2.3-1.3 0-2.4 1-2.4 2.3s1.1 2.3 2.4 2.3c1.4 0 2.4-1 2.4-2.3zm-10.8-10.8c0-1.3-1.1-2.3-2.4-2.3s-2.4 1-2.4 2.3 1.1 2.3 2.4 2.3 2.4-1 2.4-2.3zm10.8-21.6c0-1.3-1.1-2.3-2.4-2.3-1.3 0-2.4 1-2.4 2.3 0 1.3 1.1 2.3 2.4 2.3 1.4 0 2.4-1 2.4-2.3zm131.2-29.3c0-1.3-1.1-2.3-2.4-2.3s-2.4 1-2.4 2.3c0 1.3 1.1 2.3 2.4 2.3s2.4-1 2.4-2.3zm-60.2-1.5c0-1.3-1.1-2.3-2.4-2.3-1.3 0-2.4 1-2.4 2.3 0 1.3 1.1 2.3 2.4 2.3 1.3 0 2.4-1.1 2.4-2.3zm-1.5-20.1c0-1.3-1.1-2.3-2.4-2.3-1.3 0-2.4 1-2.4 2.3 0 1.3 1.1 2.3 2.4 2.3 1.3 0 2.4-1 2.4-2.3zm24.6 9.3c0-1.3-1.1-2.3-2.4-2.3-1.3 0-2.4 1-2.4 2.3 0 1.3 1.1 2.3 2.4 2.3 1.4 0 2.4-1.1 2.4-2.3zm1.6 24.6c0-1.3-1.1-2.3-2.4-2.3s-2.4 1-2.4 2.3 1.1 2.3 2.4 2.3 2.4-1 2.4-2.3zm-26.2 7.8c0-1.3-1.1-2.3-2.4-2.3-1.3 0-2.4 1-2.4 2.3s1.1 2.3 2.4 2.3c1.3 0 2.4-1.1 2.4-2.3zm47.8-17c0-1.3-1.1-2.3-2.4-2.3-1.3 0-2.4 1-2.4 2.3s1.1 2.3 2.4 2.3c1.3 0 2.4-1 2.4-2.3zm-4.6-20.1c0-1.3-1.1-2.3-2.4-2.3-1.3 0-2.4 1-2.4 2.3 0 1.3 1.1 2.3 2.4 2.3 1.3 0 2.4-1 2.4-2.3zM257 79.9c0-1.3-1.1-2.3-2.4-2.3s-2.4 1-2.4 2.3 1.1 2.3 2.4 2.3 2.4-1 2.4-2.3zm-29.3 1.6c0-1.3-1.1-2.3-2.4-2.3s-2.4 1-2.4 2.3 1.1 2.3 2.4 2.3 2.4-1.1 2.4-2.3zm55.5-12.4c0-1.3-1.1-2.3-2.4-2.3-1.3 0-2.4 1-2.4 2.3 0 1.3 1.1 2.3 2.4 2.3 1.4 0 2.4-1 2.4-2.3zm18.5-7.7c0-1.3-1.1-2.3-2.4-2.3s-2.4 1-2.4 2.3 1.1 2.3 2.4 2.3 2.4-1 2.4-2.3zm-4.6 27.8c0-1.3-1.1-2.3-2.4-2.3-1.3 0-2.4 1-2.4 2.3 0 1.3 1.1 2.3 2.4 2.3 1.4 0 2.4-1 2.4-2.3zm-10.8 24.7c0-1.3-1.1-2.3-2.4-2.3s-2.4 1-2.4 2.3 1.1 2.3 2.4 2.3 2.4-1.1 2.4-2.3zm-132.7 0c0-1.3-1.1-2.3-2.4-2.3s-2.4 1-2.4 2.3 1.1 2.3 2.4 2.3 2.4-1.1 2.4-2.3zm-15.4-3.1c0-1.3-1.1-2.3-2.4-2.3-1.3 0-2.4 1-2.4 2.3s1.1 2.3 2.4 2.3c1.3 0 2.4-1 2.4-2.3zm-12.4 13.9c0-1.3-1.1-2.3-2.4-2.3-1.3 0-2.4 1-2.4 2.3 0 1.3 1.1 2.3 2.4 2.3 1.4 0 2.4-1.1 2.4-2.3zm-12.3 9.2c0-1.3-1.1-2.3-2.4-2.3-1.3 0-2.4 1-2.4 2.3s1.1 2.3 2.4 2.3c1.3 0 2.4-1 2.4-2.3zm-63.7-2.5c0-1.3-1.1-2.3-2.4-2.3-1.3 0-2.4 1-2.4 2.3s1.1 2.3 2.4 2.3c1.3 0 2.4-1 2.4-2.3zM135 83.6c0 1.3 1.1 2.3 2.4 2.3 1.3 0 2.4-1 2.4-2.3 0-1.3-1.1-2.3-2.4-2.3-1.4 0-2.4 1-2.4 2.3zm32.5-28.4c0-1.3-1.1-2.3-2.4-2.3-1.3 0-2.4 1-2.4 2.3 0 1.3 1.1 2.3 2.4 2.3 1.3 0 2.4-1 2.4-2.3zm41.1-34.9c0-1.3-1.1-2.3-2.4-2.3-1.3 0-2.4 1-2.4 2.3s1.1 2.3 2.4 2.3c1.4 0 2.4-1 2.4-2.3zm44.8-12.4c0-1.3-1.1-2.3-2.4-2.3-1.3 0-2.4 1-2.4 2.3s1.1 2.3 2.4 2.3c1.3.1 2.4-1 2.4-2.3zm-.7-1.5c0 1.3 1.1 2.3 2.4 2.3s2.4-1 2.4-2.3-1.1-2.3-2.4-2.3-2.4 1-2.4 2.3z"/></g></switch></svg>