<svg xmlns="http://www.w3.org/2000/svg" id="Layer_1" x="0" y="0" version="1.1" viewBox="0 0 102.4 47.8" xml:space="preserve"><style>.st0{fill:none;stroke-miterlimit:10}.st0,.st1,.st2,.st3{stroke:#999;stroke-width:.4}.st1{display:none;stroke-miterlimit:10;fill:#fff}.st2,.st3{fill:none}.st3{display:none}.st4{stroke:#f2f2f2;stroke-width:.4;stroke-miterlimit:10}.st4,.st5{fill:#fff}.st5,.st6{stroke-width:.4;stroke-miterlimit:10}.st5{stroke:#999}.st6{fill:#1b441b;stroke:#1b441b}</style><switch><g><path d="M93.4 33.1c1.4-6.1 1.8-12.4.7-18.9-.5-2.8-1.1-5.5-2.1-8M75.8 29.3c1.6-4 2.6-8.6 2.8-12.9.1-2.2.1-4.4-.1-6.5l-.3-3.3c-.1-.5-.3-2-.4-2.6M61.4 34.1c3.4-2.8 5.6-6.9 6.7-11 1.6-5.5 2.1-9.9 1.5-15.5M46.8 42.1c15-8.6 13.6-30.1 14.3-27.6M37 45.7C51.1 37.2 56.6 20 55.8 19.3" class="st0"/><path d="M65.5 32.4c-.8-.1-2.1-.4-2.9-.1-4.3 1.6-7.9 4.4-12 6.9-1.2.7-2.4 1.3-3.6 2-.4.2-11.1 4.4-16.7 5.5-1.6.3-4.6-.3-6.2-.2" class="st0"/><path d="M71.3 30.5c-1.1-.2-3-.4-4.1-.5-1.1-.1-2.1-.1-3.1.3-2 .7-4 1.7-5.9 2.8-1.8 1.1-3.4 2.4-5.2 3.6-1.8 1.2-3.6 2.3-5.5 3.1-2.1.9-4.2 1.8-6.4 2.7-2.1.9-4.3 1.7-6.4 2.4-4.4 1.3-9.2 1.6-13.7 1.3m75.1-8.1c-1.3 1.1-.2.2-1.9.5" class="st0"/><path d="M100.5 25.5c-.1.3-3.1-.4-5.9-1.4-4.7-1.8-14-2.9-16.5-3.2-2.6-.3-7.6 1-9.8 1.6-.7.2-6.3 4-6.9 4.4-3.2 2-6.4 4.5-9.7 6-3.6 1.7-10 5.5-13.4 7-3.1 1.3-8.8 3.6-10.1 3.4" class="st0"/><path d="M99.6 30.2c-.1.3-2.7 1.1-5.5 0-4.7-1.8-14.1-5.2-16.6-5.8-2.8-.6-8.3-.1-10.2 1.2-.6.4-6.6 4.3-7.2 4.7-3.2 2-6.2 4-9.5 5.5-3.6 1.7-10.3 4.9-13.7 6.3-3.1 1.3-12.2 2.3-13.5 2.1" class="st0"/><path d="M78.8 28.9c-1.1-.5-3-1.2-4.2-1.4-2.5-.3-5-.8-7.4.2-3 1.2-5.8 2.9-8.8 4.4-1.8 1-3.4 2.1-5.2 3.4-.9.6-1.8 1-2.7 1.6-2.6 1.5-5.4 2.7-8.1 3.8-.6.2-1.1.4-1.7.5-.9.4-1.9.6-2.8 1-.3.2-.6.3-.9.5-5.9 2.3-12.2 1.9-18.3 1.8m79.5-10.3c-1.8.9-2 .4-4 .4" class="st0"/><path d="M100.8 21.3c-7.6-3.2-15.9-3.8-24.2-3.8-3.6 0-6.8 1-9.9 3.1C55.8 28.4 45 35.3 33.3 40.5" class="st0"/><path d="M100.2 17.4c-6.3-2.9-12.6-4.9-19.6-4-9.6 1.1-18.1 6.9-25.7 12.5-5.6 4.1-11.7 9.1-18 12.3" class="st0"/><path d="M96.3 9.9c-1.8-.9-3.4-2-5.3-2.7-3.6-1.2-7.4-1.5-11.2-.9C71 7.7 64 12.9 57.9 19c-4.8 4.9-8.5 10.9-14.9 14" class="st0"/><path d="M98.9 14c-6-2.8-11.5-4.9-18.3-4.1-9.2 1.1-17 6.6-23.9 12.4-5.4 4.6-10 9.9-16.4 13.1M92.1 6.6C90.1 5 88 4 85.4 3.5" class="st0"/><path d="M86 28.3c1-5.1 1.2-10.1.8-15.3-.2-3.7-.7-6.2-2.2-9.7" class="st0"/><path d="M60.9 34.2c-.1 0-.4.2-.9.5-2.1 1.2-7.3 4.3-12.3 6.9-2.1 1.1-4.3 2-6.5 2.8-1 .4-2 .7-3.1 1-6.7 1.9-16 2.3-21.8-1 .1 0 .3.1.8.2.5.2.5.2.7.2.8 0 1.9-.1 3.1-.2 1.2-.1 2.5-.3 3.8-.6 1.3-.2 2.5-.5 3.5-.9.7-.2 1.4-.5 1.8-.7.3-.1.5-.3.8-.4.7-.4 1.6-.9 2.5-1.5.1-.1.2-.2.4-.2 1-.6 2-1.3 3.1-2.1 1-.7 2.1-1.6 3.1-2.4 1-.8 2-1.7 3-2.7.5-.4.9-.9 1.4-1.4.5-.5.9-1 1.3-1.4 3.7-4.1 7.6-8.5 11.6-12.4 1.7-1.7 3.5-3.4 5.3-4.9 2.4-2.1 4.8-3.9 7.3-5.5 2.5-1.5 5-2.8 7.6-3.5 1.9-.5 3.7-.8 5.5-.7.9 0 1.9.1 2.8.3 1.2.3 2.8.8 4.4 1.7 1.8.9 3.7 2.2 5.2 3.6.5.5 1 1 1.4 1.5.4.5.8 1.1 1.1 1.6.7 1.2 1.2 2.4 1.6 3.5.3.7.5 1.4.7 2 .1.3.2.7.3 1.1.2 1 .3 2.1.3 3.3v.4c0 1.1-.1 2.2-.2 3.3-.2 1.3-.4 2.6-.7 3.8-.3 1.3-.7 2.5-1.1 3.6-.4 1-.8 2-1.4 2.9-.4.7-1 1.7-1.6 2.7-.6 1-1.3 2.1-2 3.1-1 1.4-2 2.4-2.8 2.9-.9.6-2.5 1.3-3.5 1.2" class="st0"/><ellipse cx="72.1" cy="43.3" class="st1" rx=".5" ry=".4"/><ellipse cx="78.1" cy="40.4" class="st1" rx=".5" ry=".4"/><ellipse cx="86.7" cy="40.7" class="st1" rx=".5" ry=".4"/><ellipse cx="86.7" cy="37.5" class="st1" rx=".5" ry=".4"/><ellipse cx="86.4" cy="33.8" class="st1" rx=".5" ry=".4"/><ellipse cx="69.5" cy="38.8" class="st1" rx=".5" ry=".4"/><ellipse cx="78.4" cy="43.3" class="st1" rx=".5" ry=".4"/><ellipse cx="86.3" cy="44" class="st1" rx=".5" ry=".4"/><ellipse cx="70.6" cy="41" class="st1" rx=".5" ry=".4"/><ellipse cx="78.9" cy="45.9" class="st1" rx=".5" ry=".4"/><ellipse cx="85.6" cy="46.5" class="st1" rx=".5" ry=".4"/><ellipse cx="89" cy="45.2" class="st1" rx=".5" ry=".4"/><ellipse cx="90.6" cy="42.8" class="st1" rx=".5" ry=".4"/><ellipse cx="91.2" cy="40.2" class="st1" rx=".5" ry=".4"/><ellipse cx="91.4" cy="37.5" class="st1" rx=".5" ry=".4"/><ellipse cx="91" cy="34.3" class="st1" rx=".5" ry=".4"/><ellipse cx="86.2" cy="31.7" class="st1" rx=".5" ry=".4"/><ellipse cx="90.6" cy="32" class="st1" rx=".5" ry=".4"/><path d="M67.7 34.5l-.1-.1h-.2c0 .2.2.4.5.4h.2c-.2-.1-.3-.2-.4-.3z" class="st1"/><ellipse cx="68.5" cy="36.5" class="st1" rx=".5" ry=".4"/><ellipse cx="92.6" cy="42.1" class="st1" rx=".5" ry=".4"/><path d="M77.3 29.1h.3c0-.2-.2-.4-.5-.4s-.5.2-.5.4v.1c.3 0 .5 0 .7-.1z" class="st1"/><ellipse cx="85.6" cy="28.7" class="st1" rx=".5" ry=".4"/><ellipse cx="89.5" cy="29.7" class="st1" rx=".5" ry=".4"/><ellipse cx="94" cy="37.4" class="st1" rx=".5" ry=".4"/><ellipse cx="94" cy="35.2" class="st1" rx=".5" ry=".4"/><ellipse cx="93.1" cy="32.9" class="st1" rx=".5" ry=".4"/><ellipse cx="93.6" cy="40" class="st1" rx=".5" ry=".4"/><path d="M68.9 31.1c0-.2-.2-.4-.4-.4-.3 0-.5.2-.5.4v.2c.4 0 .6-.1.9-.2z" class="st1"/><ellipse cx="60.9" cy="34.6" class="st1" rx=".5" ry=".4"/><ellipse cx="60.5" cy="34.3" class="st1" rx=".5" ry=".4"/><ellipse cx="61.6" cy="35.6" class="st1" rx=".5" ry=".4"/><ellipse cx="62.9" cy="36.6" class="st1" rx=".5" ry=".4"/><path d="M93.9 35.2c-.1-.8-.4-1.6-.7-2.3-.4-.8-.9-1.4-1.4-1.9-.7-.6-1.6-1.1-2.6-1.5-1.1-.4-2.4-.7-3.8-.8-.6-.1-1.3-.1-2-.1-1.8 0-3.8.2-6 .5-2.5.4-5.1 1-7.8 1.8-2.1.6-4.2 1.3-5.8 2-.9.4-1.5.7-1.8.9-.3.2-.5.5-.5.8 0 .3.1.6.3.8.1.1.3.2.4.4l.2.2.5.5c.4.4.7.7 1.1 1 .4.4.8.7 1.4 1.2.5.4 1.1.9 1.6 1.3 1.9 1.5 3.7 2.7 5.5 3.7.9.5 1.8 1 2.7 1.3 1.3.5 2.5 1 3.8 1.3 1.4.3 2.9.5 4.2.5.8 0 1.6-.1 2.4-.2 1.2-.2 2.3-.6 3.3-1.1.9-.4 1.7-1 2.4-1.6.5-.4 1-1 1.3-1.7.4-.6.7-1.3.9-2.1.2-.8.4-1.6.4-2.4.1-.9.1-1.7 0-2.5z" class="st2"/><path d="M78.8 45.9c-.4-3.2-.9-6.3-1.3-9.5m8.1 10c2.6-6.5 0-17.7.1-17.7M89 45.2c4.8-5.3 1.2-15.2.4-15.7M72.2 43.3c-1.7-2.6-3.4-5.4-4.1-8.5" class="st0"/><path d="M80.5 31.8c2.2-.1 4.4-.2 6.6-.2 2 .1 4.3.2 6 1.2m-32.5 1.5c2.1-.5 4.1-.6 6.1-1m-4.5 2.4c10.5 1.4 21.2 2.4 31.7 1.6m-30.5-.6c9.6 3.6 20.1 5.2 30.2 3.1m-28.5-1.5c8.2 4.6 18.4 8 27.5 3.7m-12.5-8.4c4.1-.3 8.2 0 12.5.9.5.1.9.4 1.3.7m-32.4-.5c2.1-.1 3.6-.2 5.7-.4" class="st0"/><ellipse cx="70.1" cy="35.8" class="st1" rx=".4" ry=".3"/><ellipse cx="73.7" cy="36.8" class="st1" rx=".4" ry=".3"/><ellipse cx="75.3" cy="36.9" class="st1" rx=".4" ry=".3"/><ellipse cx="73.6" cy="35.9" class="st1" rx=".4" ry=".3"/><ellipse cx="75.6" cy="35.9" class="st1" rx=".4" ry=".3"/><ellipse cx="76.7" cy="36.6" class="st1" rx=".4" ry=".3"/><ellipse cx="77.2" cy="35.6" class="st1" rx=".4" ry=".3"/><ellipse cx="75.8" cy="34.3" class="st1" rx=".4" ry=".3"/><ellipse cx="77.7" cy="34.1" class="st1" rx=".4" ry=".3"/><ellipse cx="73.5" cy="34.5" class="st1" rx=".4" ry=".3"/><ellipse cx="78.1" cy="36.1" class="st1" rx=".4" ry=".3"/><ellipse cx="78.6" cy="35" class="st1" rx=".4" ry=".3"/><ellipse cx="79.2" cy="33.7" class="st1" rx=".4" ry=".3"/><ellipse cx="78" cy="32.4" class="st1" rx=".4" ry=".3"/><ellipse cx="79.6" cy="32.1" class="st1" rx=".4" ry=".3"/><ellipse cx="75.8" cy="32.7" class="st1" rx=".4" ry=".3"/><ellipse cx="73.2" cy="32.9" class="st1" rx=".4" ry=".3"/><ellipse cx="75.8" cy="31" class="st1" rx=".4" ry=".3"/><ellipse cx="78.2" cy="30.7" class="st1" rx=".4" ry=".3"/><ellipse cx="79.8" cy="30.5" class="st1" rx=".4" ry=".3"/><ellipse cx="80.3" cy="33.2" class="st1" rx=".4" ry=".3"/><ellipse cx="80.7" cy="30.3" class="st1" rx=".4" ry=".3"/><ellipse cx="73" cy="31.5" class="st1" rx=".4" ry=".3"/><ellipse cx="69.6" cy="35.1" class="st1" rx=".4" ry=".3"/><ellipse cx="69" cy="34.3" class="st1" rx=".4" ry=".3"/><ellipse cx="68.3" cy="33.4" class="st1" rx=".4" ry=".3"/><ellipse cx="67.6" cy="32.4" class="st1" rx=".4" ry=".3"/><ellipse cx="66.9" cy="34.1" class="st1" rx=".4" ry=".3"/><ellipse cx="66.2" cy="33.5" class="st1" rx=".4" ry=".3"/><ellipse cx="65.5" cy="33.1" class="st1" rx=".4" ry=".3"/><ellipse cx="65" cy="32.6" class="st1" rx=".4" ry=".3"/><path d="M64.8 32.5c1 .9 3 2.4 5.3 3.3 2.3.9 4.8 1.4 6.2 1 2.8-.7 4.8-2.9 4.4-7.9m-5.4 8c.9-2.3.4-6.8.3-7.4m-1.9 7.3c-.1-3.3-.9-5.8-1-6.6m4 6.5c1.2-2.2 1.6-6.8 1.5-7.6m-8.1 6.7c-1.5-2-2.7-3.3-3.1-4.1m11 4.5c1.6-1.9 2-6.7 1.9-7.5" class="st0"/><path d="M79.9 34.3c.1 0-1.5 1.5-4.9 1.7-2.1.1-4.9-.3-8.4-2.1" class="st0"/><path d="M80.3 33.2c.1 0-1.6 1.1-5 1.2-2.1.1-6.3.4-9.2-.9m14.5-1.6c.1 0-1.7.3-5.1.7-2 .2-7.2 1.2-10 .4m15.2-2.7c.1 0-1.7.2-5 .7-2 .3-8.3 1.8-10.8 1.6" class="st0"/><path d="M64.8 32.5c2.8-1.2 14-4.2 15.8-3.5" class="st3"/><ellipse cx="80.8" cy="32" class="st5" rx=".3" ry=".3"/><ellipse cx="76.2" cy="32.5" class="st6" rx=".3" ry=".3"/><ellipse cx="73.6" cy="33" class="st5" rx=".3" ry=".3"/><ellipse cx="76.2" cy="34.6" class="st5" rx=".3" ry=".3"/><ellipse cx="73.6" cy="34.6" class="st6" rx=".3" ry=".3"/><ellipse cx="75.7" cy="36.1" class="st6" rx=".3" ry=".3"/><ellipse cx="73.1" cy="31.5" class="st6" rx=".3" ry=".3"/><ellipse cx="76.2" cy="31" class="st5" rx=".3" ry=".3"/><ellipse cx="78.3" cy="32.5" class="st5" rx=".3" ry=".3"/><ellipse cx="78.3" cy="31" class="st6" rx=".3" ry=".3"/><ellipse cx="68.4" cy="33.5" class="st6" rx=".3" ry=".3"/><ellipse cx="73.6" cy="36.1" class="st5" rx=".3" ry=".3"/><ellipse cx="77.7" cy="35.6" class="st5" rx=".3" ry=".3"/><ellipse cx="77.7" cy="34.4" class="st6" rx=".3" ry=".3"/><ellipse cx="79.3" cy="34.1" class="st5" rx=".3" ry=".3"/><ellipse cx="79.8" cy="30.4" class="st5" rx=".3" ry=".3"/><ellipse cx="79.8" cy="32.5" class="st6" rx=".3" ry=".3"/><ellipse cx="75.7" cy="37.2" class="st5" rx=".3" ry=".3"/><ellipse cx="74.1" cy="37.2" class="st6" rx=".3" ry=".3"/><ellipse cx="67.9" cy="32.5" class="st5" rx=".3" ry=".3"/><ellipse cx="69.5" cy="34.6" class="st5" rx=".3" ry=".3"/><ellipse cx="70" cy="35.6" class="st6" rx=".3" ry=".3"/><ellipse cx="77.2" cy="37.2" class="st6" rx=".3" ry=".3"/><ellipse cx="78.8" cy="36.1" class="st6" rx=".3" ry=".3"/><ellipse cx="80.6" cy="33.5" class="st6" rx=".3" ry=".3"/><ellipse cx="81.4" cy="30.4" class="st6" rx=".3" ry=".3"/><ellipse cx="69.9" cy="39" class="st5" rx=".5" ry=".4"/><ellipse cx="70.9" cy="41" class="st6" rx=".5" ry=".4"/><ellipse cx="68.8" cy="36.4" class="st6" rx=".5" ry=".4"/><ellipse cx="78.2" cy="40.5" class="st6" rx=".5" ry=".4"/><ellipse cx="78.7" cy="43.6" class="st5" rx=".5" ry=".4"/><ellipse cx="62.1" cy="34.8" class="st5" rx=".5" ry=".4"/><ellipse cx="62.6" cy="35.8" class="st6" rx=".5" ry=".4"/><ellipse cx="64.2" cy="37.4" class="st5" rx=".5" ry=".4"/><ellipse cx="66.3" cy="39" class="st6" rx=".5" ry=".4"/><ellipse cx="72.5" cy="43.6" class="st5" rx=".5" ry=".4"/><ellipse cx="79.2" cy="46.2" class="st6" rx=".5" ry=".4"/><ellipse cx="85.9" cy="46.7" class="st5" rx=".5" ry=".4"/><ellipse cx="86.5" cy="44.1" class="st6" rx=".5" ry=".4"/><ellipse cx="87" cy="41" class="st5" rx=".5" ry=".4"/><ellipse cx="90.6" cy="43.1" class="st5" rx=".5" ry=".4"/><ellipse cx="89.6" cy="45.7" class="st6" rx=".5" ry=".4"/><ellipse cx="91.6" cy="40.5" class="st6" rx=".5" ry=".4"/><ellipse cx="87" cy="37.9" class="st6" rx=".5" ry=".4"/><ellipse cx="86.5" cy="33.8" class="st5" rx=".5" ry=".4"/><ellipse cx="91.6" cy="37.4" class="st5" rx=".5" ry=".4"/><ellipse cx="91.1" cy="34.3" class="st6" rx=".5" ry=".4"/><ellipse cx="93.7" cy="40" class="st6" rx=".5" ry=".4"/><ellipse cx="92.7" cy="42.1" class="st5" rx=".5" ry=".4"/><ellipse cx="86.5" cy="31.7" class="st6" rx=".5" ry=".4"/><ellipse cx="94.2" cy="34.8" class="st6" rx=".5" ry=".4"/><ellipse cx="90.6" cy="32.2" class="st5" rx=".5" ry=".4"/><ellipse cx="94.2" cy="37.4" class="st5" rx=".5" ry=".4"/><ellipse cx="93.2" cy="32.7" class="st5" rx=".5" ry=".4"/><ellipse cx="85.9" cy="28.6" class="st5" rx=".5" ry=".4"/><ellipse cx="89.6" cy="29.6" class="st6" rx=".5" ry=".4"/><ellipse cx="68.3" cy="22.9" class="st5" rx=".8" ry=".8"/><ellipse cx="69.4" cy="19.3" class="st6" rx=".8" ry=".8"/><ellipse cx="67.3" cy="26" class="st6" rx=".8" ry=".8"/><ellipse cx="66.3" cy="28.6" class="st5" rx=".8" ry=".8"/><ellipse cx="57.5" cy="29.6" class="st6" rx=".8" ry=".8"/><ellipse cx="58.5" cy="26.5" class="st5" rx=".8" ry=".8"/><ellipse cx="60" cy="22.9" class="st6" rx=".8" ry=".8"/><ellipse cx="60.6" cy="19.3" class="st5" rx=".8" ry=".8"/><ellipse cx="65.2" cy="30.7" class="st6" rx=".8" ry=".8"/><ellipse cx="63.2" cy="32.7" class="st5" rx=".8" ry=".8"/><ellipse cx="53.3" cy="27" class="st5" rx=".8" ry=".8"/><ellipse cx="61.1" cy="16.2" class="st6" rx=".8" ry=".8"/><ellipse cx="69.9" cy="16.7" class="st5" rx=".8" ry=".8"/><ellipse cx="69.9" cy="13.6" class="st6" rx=".8" ry=".8"/><ellipse cx="69.9" cy="10" class="st5" rx=".8" ry=".8"/><ellipse cx="55.9" cy="33.3" class="st5" rx=".8" ry=".8"/><ellipse cx="54.9" cy="34.8" class="st6" rx=".8" ry=".8"/><ellipse cx="51.2" cy="31.2" class="st6" rx=".8" ry=".8"/><ellipse cx="54.9" cy="23.9" class="st6" rx=".8" ry=".8"/><ellipse cx="61.1" cy="14.6" class="st5" rx=".8" ry=".8"/><ellipse cx="77.6" cy="3.7" class="st4" rx=".8" ry=".8"/><ellipse cx="92.1" cy="6.3" class="st5" rx=".8" ry=".8"/><ellipse cx="95.8" cy="10" class="st5" rx=".8" ry=".8"/><ellipse cx="98.9" cy="14.1" class="st6" rx=".8" ry=".8"/><ellipse cx="86.5" cy="13.6" class="st5" rx=".8" ry=".8"/><ellipse cx="78.7" cy="13.6" class="st6" rx=".8" ry=".8"/><ellipse cx="78.2" cy="6.9" class="st6" rx=".8" ry=".8"/><ellipse cx="78.7" cy="10.5" class="st5" rx=".8" ry=".8"/><ellipse cx="86.5" cy="10" class="st6" rx=".8" ry=".8"/><ellipse cx="85.4" cy="6.3" class="st5" rx=".8" ry=".8"/><ellipse cx="78.7" cy="17.7" class="st5" rx=".8" ry=".8"/><ellipse cx="87" cy="18.2" class="st6" rx=".8" ry=".8"/><ellipse cx="78.2" cy="20.8" class="st6" rx=".8" ry=".8"/><ellipse cx="87" cy="22.4" class="st5" rx=".8" ry=".8"/><ellipse cx="94.2" cy="15.1" class="st6" rx=".8" ry=".8"/><ellipse cx="93.2" cy="12" class="st5" rx=".8" ry=".8"/><ellipse cx="92.7" cy="8.4" class="st6" rx=".8" ry=".8"/><ellipse cx="77.6" cy="24.5" class="st5" rx=".8" ry=".8"/><ellipse cx="85.9" cy="27.6" class="st6" rx=".8" ry=".8"/><ellipse cx="76.1" cy="28.1" class="st6" rx=".8" ry=".8"/><ellipse cx="94.7" cy="19.3" class="st5" rx=".8" ry=".8"/><ellipse cx="94.7" cy="23.9" class="st6" rx=".8" ry=".8"/><ellipse cx="93.7" cy="30.7" class="st5" rx=".8" ry=".8"/><ellipse cx="99.9" cy="17.7" class="st5" rx=".8" ry=".8"/><ellipse cx="100.9" cy="21.3" class="st6" rx=".8" ry=".8"/><ellipse cx="100.4" cy="25.5" class="st5" rx=".8" ry=".8"/><ellipse cx="99.4" cy="30.7" class="st6" rx=".8" ry=".8"/><ellipse cx="97.8" cy="34.8" class="st5" rx=".8" ry=".8"/><ellipse cx="95.8" cy="39" class="st6" rx=".8" ry=".8"/><ellipse cx="55.4" cy="21.9" class="st5" rx=".8" ry=".8"/><ellipse cx="53.3" cy="36.9" class="st5" rx=".8" ry=".8"/><ellipse cx="51.2" cy="39" class="st6" rx=".8" ry=".8"/><ellipse cx="49.2" cy="34.3" class="st5" rx=".8" ry=".8"/><ellipse cx="50.2" cy="40.5" class="st5" rx=".8" ry=".8"/><ellipse cx="46.1" cy="37.9" class="st6" rx=".8" ry=".8"/><ellipse cx="44" cy="40.5" class="st5" rx=".8" ry=".8"/><ellipse cx="41.9" cy="42.6" class="st6" rx=".8" ry=".8"/><ellipse cx="39.9" cy="44.1" class="st5" rx=".8" ry=".8"/><ellipse cx="37.8" cy="45.7" class="st6" rx=".8" ry=".8"/><path d="M8.2 15.2c-1.4 6.2-1.8 12.6-.7 19.2.5 2.8 1.1 5.5 2.2 8.2M26.1 19c-1.6 4.1-2.7 8.7-2.9 13.1-.1 2.2-.1 4.4.1 6.6l.3 3.3c.1.6.3 2 .4 2.6m16.7-30.5c-3.4 2.8-5.7 7-6.8 11.2-1.6 5.5-2.2 10.1-1.5 15.7M55.6 6.1c-15.3 8.7-13.9 30.6-14.6 28M65.5 2.3C51.2 11 45.6 28.5 46.4 29.2" class="st0"/><path d="M36.6 15.8c.8.1 2.1.4 3 .1 4.4-1.7 8-4.5 12.2-7 1.2-.7 2.5-1.4 3.7-2 .4-.2 11.3-4.4 17-5.6 1.6-.3 4.7.3 6.3.2" class="st0"/><path d="M30.6 17.8c1.1.2 3.1.4 4.2.6 1.1.1 2.1.1 3.1-.3 2.1-.8 4.1-1.7 6-2.9 1.8-1.1 3.5-2.5 5.2-3.7 1.8-1.3 3.6-2.3 5.6-3.2 2.1-1 4.3-1.9 6.5-2.7 2.2-.9 4.3-1.7 6.5-2.4 4.5-1.3 9.3-1.6 14-1.3M5.5 10.1c1.3-1.1.3-.2 1.9-.5" class="st0"/><path d="M1 22.9c.1-.3 3.2.4 6 1.5 4.8 1.8 14.2 3 16.7 3.3 2.7.3 7.7-1 9.9-1.6.7-.2 6.4-4.1 7-4.4 3.2-2 6.5-4.5 9.8-6.1C54.1 13.9 60.5 10 64 8.5c3.2-1.3 9-3.6 10.3-3.5" class="st0"/><path d="M1.9 18.1c.1-.3 2.7-1.1 5.5 0 4.8 1.8 14.4 5.3 17 5.9 2.8.6 8.5.1 10.4-1.3.6-.4 6.7-4.4 7.3-4.8 3.2-2 6.3-4 9.6-5.5 3.7-1.7 10.4-5 13.9-6.4C68.8 4.7 78 3.7 79.4 3.8" class="st0"/><path d="M23.1 19.4c1.1.5 3 1.2 4.3 1.4 2.6.3 5 .8 7.5-.2 3.1-1.3 5.9-2.9 8.9-4.5 1.8-1 3.5-2.1 5.2-3.5.9-.6 1.8-1 2.8-1.7C54.5 9.3 57.2 8.2 60 7c.6-.2 1.1-.4 1.7-.5.9-.4 2-.6 2.9-1 .3-.2.6-.3.9-.5 6-2.3 12.4-1.9 18.6-1.8M3.4 13.8c1.8-.9 2-.5 4-.4" class="st0"/><path d="M.7 27.2C8.4 30.5 16.9 31 25.4 31c3.7 0 6.9-1.1 10-3.2C46.5 19.9 57.5 13 69.3 7.6" class="st0"/><path d="M1.3 31.1c6.4 2.9 12.8 4.9 20 4.1 9.7-1.1 18.4-7 26.1-12.7 5.7-4.2 11.9-9.2 18.3-12.5" class="st0"/><path d="M5.2 38.8c1.8.9 3.5 2 5.4 2.7 3.6 1.3 7.6 1.5 11.4.9 9-1.4 16.1-6.7 22.3-13 4.9-5 8.7-11.1 15.1-14.1" class="st0"/><path d="M2.6 34.5c6.1 2.8 11.7 5 18.6 4.2 9.3-1.1 17.3-6.7 24.3-12.6C51 21.5 55.7 16 62.2 12.8M9.5 42.1c2.1 1.6 4.2 2.7 6.9 3.2" class="st0"/><path d="M15.7 20c-1 5.2-1.2 10.3-.8 15.5.2 3.8.7 6.3 2.3 9.8" class="st0"/><path d="M41.3 14c.1 0 .4-.2.9-.5 2.1-1.2 7.4-4.3 12.5-7 2.1-1.1 4.4-2 6.6-2.9 1-.4 2-.7 3.2-1.1C71.3.6 80.8.1 86.7 3.5c-.1 0-.4-.1-.8-.2-.5-.2-.5-.2-.7-.2-.8 0-1.9.1-3.1.2s-2.6.5-3.9.7c-1.3.2-2.6.5-3.6.9-.7.2-1.4.5-1.9.7-.3.1-.5.3-.8.4-.7.4-1.6.9-2.5 1.5-.1.1-.2.2-.4.2-1 .6-2 1.4-3.1 2.1-1 .8-2.1 1.6-3.2 2.5-1 .9-2.1 1.8-3.1 2.7l-1.4 1.4c-.5.5-.9 1-1.4 1.5-3.8 4.2-7.7 8.6-11.8 12.6-1.8 1.7-3.6 3.4-5.4 5-2.4 2.1-4.9 4-7.4 5.5-2.6 1.6-5.2 2.9-7.8 3.6-1.9.5-3.8.8-5.6.8-1 0-1.9-.1-2.9-.3-1.2-.3-2.8-.9-4.5-1.7-1.8-.9-3.8-2.2-5.3-3.7-.5-.5-1-1-1.4-1.6-.4-.5-.8-1.1-1.1-1.6C3 35.3 2.4 34.1 2 33c-.3-.7-.5-1.4-.7-2-.1-.3-.2-.7-.3-1.1-.2-1-.3-2.1-.3-3.3v-.4c0-1.1.1-2.2.3-3.4.2-1.3.4-2.6.7-3.9.3-1.3.7-2.5 1.1-3.7.4-1 .9-2 1.4-3 .4-.7 1-1.7 1.6-2.8s1.3-2.2 2-3.1c1-1.4 2.1-2.5 2.8-2.9.9-.6 2.5-1.3 3.6-1.2" class="st0"/><g><ellipse cx="29.5" cy="4.8" class="st1" rx=".5" ry=".5"/><ellipse cx="23.5" cy="7.7" class="st1" rx=".5" ry=".5"/><ellipse cx="14.7" cy="7.5" class="st1" rx=".5" ry=".5"/><ellipse cx="14.7" cy="10.7" class="st1" rx=".5" ry=".5"/><ellipse cx="15" cy="14.5" class="st1" rx=".5" ry=".5"/><ellipse cx="32.1" cy="9.4" class="st1" rx=".5" ry=".5"/><ellipse cx="23.1" cy="4.7" class="st1" rx=".5" ry=".5"/><ellipse cx="15.2" cy="4.1" class="st1" rx=".5" ry=".5"/><ellipse cx="31" cy="7.2" class="st1" rx=".5" ry=".5"/><ellipse cx="22.6" cy="2.1" class="st1" rx=".5" ry=".5"/><ellipse cx="15.8" cy="1.6" class="st1" rx=".5" ry=".5"/><ellipse cx="12.3" cy="2.9" class="st1" rx=".5" ry=".5"/><ellipse cx="10.8" cy="5.3" class="st1" rx=".5" ry=".5"/><ellipse cx="10.1" cy="7.9" class="st1" rx=".5" ry=".5"/><ellipse cx="9.9" cy="10.7" class="st1" rx=".5" ry=".5"/><ellipse cx="10.3" cy="14" class="st1" rx=".5" ry=".5"/><ellipse cx="15.2" cy="16.6" class="st1" rx=".5" ry=".5"/><ellipse cx="10.8" cy="16.3" class="st1" rx=".5" ry=".5"/><path d="M34 13.7l.1.1h.2c0-.2-.2-.4-.5-.4h-.2c.2.1.3.2.4.3z" class="st1"/><ellipse cx="33.2" cy="11.7" class="st1" rx=".5" ry=".5"/><ellipse cx="8.7" cy="6.1" class="st1" rx=".5" ry=".5"/><path d="M24.3 19.2h-.4c0 .2.2.4.5.4s.5-.2.5-.5V19c-.2.1-.4.2-.6.2z" class="st1"/><ellipse cx="15.8" cy="19.6" class="st1" rx=".5" ry=".5"/><ellipse cx="11.9" cy="18.7" class="st1" rx=".5" ry=".5"/><ellipse cx="7.3" cy="10.8" class="st1" rx=".5" ry=".5"/><ellipse cx="7.3" cy="13.1" class="st1" rx=".5" ry=".5"/><ellipse cx="8.1" cy="15.4" class="st1" rx=".5" ry=".5"/><ellipse cx="7.7" cy="8.2" class="st1" rx=".5" ry=".5"/><path d="M32.8 17.2s-.1 0 0 0c0 .2.2.4.4.4.3 0 .5-.2.5-.5v-.2c-.4.1-.6.2-.9.3z" class="st1"/><ellipse cx="40.9" cy="13.6" class="st1" rx=".5" ry=".5"/><ellipse cx="41.3" cy="13.9" class="st1" rx=".5" ry=".5"/><ellipse cx="40.2" cy="12.6" class="st1" rx=".5" ry=".5"/><ellipse cx="38.9" cy="11.7" class="st1" rx=".5" ry=".5"/><path d="M7.4 13c.1.8.4 1.6.7 2.3.4.8.9 1.4 1.5 2 .7.6 1.6 1.1 2.6 1.5 1.1.4 2.4.7 3.9.8.7.1 1.4.1 2.1.1 1.8 0 3.8-.2 6.1-.5 2.5-.4 5.2-1 8-1.8 2.1-.6 4.3-1.4 5.9-2 .9-.4 1.5-.7 1.8-.9.3-.2.5-.5.5-.8 0-.3-.1-.6-.3-.8-.1-.1-.3-.2-.4-.4l-.3-.2c-.2-.2-.4-.3-.6-.5-.4-.4-.8-.7-1.1-1-.5-.4-.8-.7-1.4-1.2-.5-.5-1.1-.9-1.6-1.3-1.9-1.5-3.8-2.8-5.6-3.8-.9-.5-1.8-1-2.7-1.3-1.3-.6-2.6-1-3.8-1.3-1.5-.4-2.9-.5-4.3-.5-.8 0-1.6.1-2.4.2-1.2.2-2.3.6-3.4 1.1-.9.4-1.7 1-2.5 1.7-.5.5-1 1-1.4 1.7-.4.6-.7 1.3-.9 2.1-.2.8-.4 1.6-.5 2.4-.1.8 0 1.6.1 2.4z" class="st2"/><path d="M22.7 2.1c.4 3.2.9 6.4 1.4 9.7M15.8 1.6c-2.6 6.6 0 18-.1 18M12.4 2.8c-4.9 5.4-1.2 15.4-.4 15.9M29.5 4.8c1.7 2.7 3.4 5.5 4.2 8.6" class="st0"/><path d="M21 16.5c-2.2.1-4.5.2-6.7.2-2-.1-4.3-.2-6.1-1.2M41.3 14c-2.1.5-4.2.6-6.2 1m4.5-2.5C28.9 11.1 18 10.1 7.3 10.9m31.1.6C28.6 7.8 17.9 6.2 7.6 8.3m29 1.6C28.3 5.2 17.9 1.7 8.7 6.1m12.7 8.5c-4.2.3-8.4 0-12.7-.9-.5-.1-.9-.4-1.3-.7m32.9.5c-2.1.1-3.7.2-5.8.4" class="st0"/></g><g><ellipse cx="31.6" cy="12.4" class="st1" rx=".4" ry=".3"/><ellipse cx="27.9" cy="11.4" class="st1" rx=".4" ry=".3"/><ellipse cx="26.2" cy="11.3" class="st1" rx=".4" ry=".3"/><ellipse cx="28" cy="12.3" class="st1" rx=".4" ry=".3"/><ellipse cx="26" cy="12.3" class="st1" rx=".4" ry=".3"/><ellipse cx="24.8" cy="11.6" class="st1" rx=".4" ry=".3"/><ellipse cx="24.3" cy="12.6" class="st1" rx=".4" ry=".3"/><ellipse cx="25.7" cy="13.9" class="st1" rx=".4" ry=".3"/><ellipse cx="23.9" cy="14.1" class="st1" rx=".4" ry=".3"/><ellipse cx="28.2" cy="13.8" class="st1" rx=".4" ry=".3"/><ellipse cx="23.5" cy="12.1" class="st1" rx=".4" ry=".3"/><ellipse cx="22.9" cy="13.2" class="st1" rx=".4" ry=".3"/><ellipse cx="22.3" cy="14.5" class="st1" rx=".4" ry=".3"/><ellipse cx="23.5" cy="15.9" class="st1" rx=".4" ry=".3"/><ellipse cx="22" cy="16.2" class="st1" rx=".4" ry=".3"/><ellipse cx="25.7" cy="15.6" class="st1" rx=".4" ry=".3"/><ellipse cx="28.4" cy="15.3" class="st1" rx=".4" ry=".3"/><ellipse cx="25.8" cy="17.3" class="st1" rx=".4" ry=".3"/><ellipse cx="23.3" cy="17.6" class="st1" rx=".4" ry=".3"/><ellipse cx="21.7" cy="17.8" class="st1" rx=".4" ry=".3"/><ellipse cx="21.2" cy="15" class="st1" rx=".4" ry=".3"/><ellipse cx="20.8" cy="18" class="st1" rx=".4" ry=".3"/><ellipse cx="28.7" cy="16.8" class="st1" rx=".4" ry=".3"/><ellipse cx="32.1" cy="13.1" class="st1" rx=".4" ry=".3"/><ellipse cx="32.7" cy="14" class="st1" rx=".4" ry=".3"/><ellipse cx="33.4" cy="14.9" class="st1" rx=".4" ry=".3"/><ellipse cx="34.1" cy="15.8" class="st1" rx=".4" ry=".3"/><ellipse cx="34.8" cy="14.2" class="st1" rx=".4" ry=".3"/><ellipse cx="35.6" cy="14.8" class="st1" rx=".4" ry=".3"/><ellipse cx="36.2" cy="15.2" class="st1" rx=".4" ry=".3"/><ellipse cx="36.8" cy="15.7" class="st1" rx=".4" ry=".3"/><path d="M36.9 15.8c-1.1-.9-3.1-2.4-5.4-3.3-2.4-.9-4.9-1.4-6.3-1.1-2.9.7-4.9 2.9-4.4 8m5.4-8.1c-.9 2.3-.4 6.9-.3 7.5m2.1-7.4c.2 3.3.9 5.9 1.1 6.7m-4.3-6.6c-1.2 2.2-1.7 6.9-1.5 7.7m8.2-6.8c1.5 2 2.8 3.4 3.1 4.2m-11-4.6c-1.6 1.9-2.1 6.8-1.9 7.6" class="st0"/><path d="M21.7 14c-.1 0 1.5-1.6 5-1.7 2.1-.1 4.9.3 8.6 2.2" class="st0"/><path d="M21.2 15c-.1 0 1.6-1.1 5.1-1.2 2.1-.1 6.4-.4 9.4.9m-14.8 1.6c-.1 0 1.7-.4 5.2-.7 2.1-.2 7.4-1.3 10.2-.4M20.8 18c-.1 0 1.7-.2 5.1-.7 2.1-.3 8.4-1.8 11-1.6" class="st0"/><path d="M36.9 15.8C34 17 22.7 20 20.8 19.4" class="st3"/></g><ellipse cx="16.4" cy="44.8" class="st6" rx=".8" ry=".8"/><ellipse cx="46.6" cy="28.8" class="st6" rx=".8" ry=".8"/><ellipse cx="55.9" cy="19.3" class="st6" rx=".8" ry=".8"/><ellipse cx="69.7" cy="7.6" class="st6" rx=".8" ry=".8"/><ellipse cx="84.7" cy="3.4" class="st6" rx=".8" ry=".8"/><ellipse cx="86.1" cy="2.9" class="st6" rx=".8" ry=".8"/><ellipse cx="41.4" cy="33.4" class="st4" rx=".8" ry=".8"/></g></switch></svg>