<svg xmlns="http://www.w3.org/2000/svg" xmlns:xlink="http://www.w3.org/1999/xlink" viewBox="0 0 96.3 44.8"><style>.st0{display:none}.st2,.st3{fill:none;stroke:white;stroke-width:27}.st3{stroke:white;stroke-width:10}.st9{fill:none;stroke-miterlimit:10}.st10,.st11,.st12,.st9{stroke:white;stroke-width:.5}.st10{display:none;stroke-miterlimit:10;fill:#fff}.st11,.st12{fill:none}.st12{display:none}.st13{fill:#fff}.st13,.st14{display:inline;stroke:white;stroke-miterlimit:10}</style><switch><g><g id="Layer_4" class="st0"><path d="M544.7-33.1c-.8-4-1.8-7.7-2.9-11.1-2-5.9-4.3-12.5-7-19.6-4.1-10.9-9.3-22.7-16.3-34.4-3.2-5.4-6.8-10.8-10.9-16-4.1-5.3-8.7-10.4-13.9-15.3-15.5-14.5-34.5-26.7-52.7-35.9-16.7-8.4-32.8-14.2-44.8-16.7-9.4-2-18.9-3.1-28.4-3.4-18.5-.5-37.2 2.1-56 7.3-25.9 7.2-51.9 19.5-77.9 35.4-24.6 15.1-49.2 33.6-73.4 54.1-17.9 15.2-35.7 31.5-53.2 48.5C66.7-.7 27.3 42.4-10 83.1c-4.4 4.9-8.9 9.6-13.5 14.3-4.5 4.6-9.2 9.2-13.9 13.6-9.9 9.2-20.1 18-30.3 26.3-10.6 8.5-21.2 16.5-31.5 23.9-10.8 7.7-21.3 14.7-31.1 20.9-1.2.8-2.4 1.5-3.6 2.3-9.2 5.8-17.7 10.7-25.1 14.8-2.9 1.6-5.7 3.1-8.3 4.4-4.8 2.4-11.1 4.8-18.4 7-10.4 3.2-22.9 6-35.8 8.5-12.9 2.4-26.2 4.4-38.2 5.8-12.1 1.4-22.9 2.1-30.8 2.1-2.7 0-2-.1-7.4-1.6-4.2-1.2-7-1.6-7.7-2 58.7 32.5 153.2 28 220.5 9.6 11.4-3.1 22-6.6 31.6-10.3 22.3-8.6 44.7-17.3 66-28.2 50-25.7 103-56.3 123.8-68.1 5.3-3 8.4-4.7 9-4.9 1.1 1 2.8 2.5 4.8 4.3 2.4 2.2 5.3 5 8.8 8.2 3.5 3.2 7.5 6.9 12 10.8 4.5 4 9.4 8.3 14.8 12.8 5.3 4.5 11.1 9.2 17.2 14 17.4 13.7 37.7 28 59.5 40.2 9.3 5.2 18.9 10 28.6 14.2 13.3 5.8 26.8 10.3 40.2 13.6 23.8 5.7 47.2 7.2 68.9 3.5 10.2-1.7 20-4.6 29.3-8.8 7-2.5 14.1-6.1 19.2-9.1 7.5-4.5 18.1-14.7 28.1-28.6 6.9-9.6 13.8-20.4 20.1-30.6 6.3-10.2 11.9-19.8 16.3-27 5.7-9.3 10.4-19 14.2-29.1 4.1-10.9 7.8-23 10.9-35.7 3-12.4 5.4-25.3 7-38 1.5-11.2 2.3-22.3 2.5-32.9v-4c-.2-11.9-1-22.8-3-32.4z" class="st2"/><path d="M-192.7 247.2c-30.5 0-57.9-3.7-81-10.9 4.5-.4 9.4-.8 14.6-1.4 12.6-1.4 25.9-3.5 38.6-5.8 13.8-2.6 26.3-5.6 36.3-8.6 7.9-2.4 14.4-4.9 19.2-7.3 2.6-1.3 5.5-2.8 8.4-4.4 7.9-4.3 16.5-9.4 25.4-14.9 1.2-.7 2.4-1.5 3.6-2.3 10.4-6.6 21-13.7 31.3-21.1 10.9-7.8 21.6-15.9 31.7-24.1 10.8-8.8 21.1-17.7 30.6-26.5 4.6-4.3 9.4-9 14.1-13.7 4.5-4.6 9.1-9.4 13.7-14.4 35.6-38.9 75.9-83.1 117-123 18.7-18.2 36.1-34 52.9-48.3 25.8-21.9 49.6-39.4 72.8-53.7 26.7-16.4 52.5-28.1 76.6-34.9 17.1-4.8 33.8-7.2 49.8-7.2 1.5 0 3.1 0 4.6.1 9.3.3 18.5 1.4 27.5 3.3 12.2 2.6 28.1 8.5 43.6 16.3 13.9 7 34.1 18.7 51.5 35.1 4.7 4.4 9.2 9.4 13.4 14.7 3.7 4.8 7.3 10 10.6 15.5C520-80.8 525-70.1 530-57c2.4 6.4 4.5 12.5 6.4 17.8l.6 1.6c1.1 3.1 2 6.6 2.8 10.4 1.8 8.9 2.7 19.4 2.7 31.3v4c-.2 10.2-1 21.1-2.5 32.3-1.6 12.5-4 25.1-6.9 37.5-3.1 12.7-6.7 24.5-10.7 35.1-3.9 10.1-8.4 19.4-13.8 28.3-1.8 3-3.9 6.5-6.1 10.2-3.1 5.1-6.5 10.9-10.2 16.8-7.7 12.6-14.1 22.2-19.9 30.3-10.6 14.7-20.7 23.7-26.5 27.2-3.5 2.1-10.6 6-18.3 8.7l-.2.1-.2.1c-8.7 3.9-18.2 4.6-28.1 6.3-7.6 1.3-15.6-.2-23.8-.2-13.7 0-28.2.3-43-3.3-12.9-3.1-26.2-6.5-39.3-12.2-9.1-3.9-18.6-8.1-28.1-13.5-18.8-10.6-38.6-23.7-58.8-39.5-5.6-4.4-11.4-8.9-17.1-13.7-4.8-4-9.7-8.2-14.7-12.6-3.8-3.4-7.7-6.9-11.9-10.7-2.2-2.1-4.3-3.9-6.1-5.6l-2.8-2.5c-1.8-1.7-3.6-3.3-4.9-4.5l-2-1.7-2.6.7c-.9.2-1.3.3-10.2 5.4-3.1 1.8-7 4-11.5 6.5-24.6 13.8-69.9 39.6-112.3 61.3-20.8 10.7-43.2 19.4-64.8 27.7l-.7.3c-9.5 3.7-20 7.1-31.1 10.1-33.3 9.2-71 14.2-106.1 14.2z" class="st3"/><path d="M-446.7 76.4c.8 4 1.8 7.7 2.9 11.1 2 5.9 4.3 12.5 7 19.6 4.1 10.9 9.3 22.7 16.3 34.4 3.2 5.4 6.8 10.8 10.9 16 4.1 5.3 8.7 10.4 13.9 15.3 15.5 14.5 34.5 26.7 52.7 35.9 16.7 8.4 32.8 14.2 44.8 16.7 9.4 2 18.9 3.1 28.4 3.4 18.5.5 37.2-2.1 56-7.3 25.9-7.2 51.9-19.5 77.9-35.4 24.6-15.1 49.2-33.6 73.4-54.1 17.9-15.2 35.7-31.5 53.2-48.5C31.4 44 70.8.9 108-39.9c4.4-4.9 8.9-9.6 13.5-14.3 4.5-4.6 9.2-9.2 13.9-13.6 9.9-9.2 20.1-18 30.3-26.3 10.6-8.5 21.2-16.5 31.5-23.9 10.8-7.7 21.3-14.7 31.1-20.9 1.2-.8 2.4-1.5 3.6-2.3 9.2-5.8 17.7-10.7 25.1-14.8 2.9-1.6 5.7-3.1 8.3-4.4 4.8-2.4 11.1-4.8 18.4-7 10.4-3.2 22.9-6 35.8-8.5 12.9-2.4 26.2-4.4 38.2-5.8 12.1-1.4 22.9-2.1 30.8-2.1 2.7 0 2 .1 7.4 1.6 4.2 1.2 7 1.6 7.7 2-58.7-32.5-153.2-28-220.5-9.6-11.4 3.1-22 6.6-31.6 10.3-22.3 8.6-44.7 17.3-66 28.2-50 25.7-103 56.3-123.8 68.1-5.3 3-8.4 4.7-9 4.9-1.1-1-2.8-2.5-4.8-4.3-2.4-2.2-5.3-5-8.8-8.2-3.5-3.2-7.5-6.9-12-10.8-4.5-4-9.4-8.3-14.8-12.8-5.3-4.5-11.1-9.2-17.2-14-17.4-13.7-37.7-28-59.5-40.2-9.3-5.2-18.9-10-28.6-14.2-13.3-5.8-26.8-10.3-40.2-13.6-23.8-5.7-47.2-7.2-68.9-3.5-10.2 1.7-20 4.6-29.3 8.8-7 2.5-14.1 6.1-19.2 9.1-7.5 4.5-18.1 14.7-28.1 28.6-6.9 9.6-13.8 20.4-20.1 30.6-6.3 10.2-11.9 19.8-16.3 27-5.7 9.3-10.4 19-14.2 29.1-4.1 10.9-7.8 23-10.9 35.7-3 12.4-5.4 25.3-7 38-1.5 11.2-2.3 22.3-2.5 32.9v4c.2 11.9 1.1 22.9 3 32.5z" class="st2"/><path d="M-264.9 223.8c-1.5 0-3.1 0-4.6-.1-9.3-.3-18.5-1.4-27.5-3.3-12.2-2.6-28.1-8.5-43.6-16.3-13.9-7-34.1-18.7-51.5-35.1-4.7-4.4-9.2-9.4-13.4-14.7-3.7-4.8-7.3-10-10.6-15.5-5.8-9.8-10.9-20.5-15.9-33.6-2.4-6.3-4.5-12.4-6.3-17.8l-.6-1.7c-1.1-3.1-2-6.6-2.8-10.4-1.8-8.9-2.7-19.4-2.7-31.3v-4c.2-10.2 1-21.1 2.5-32.3 1.6-12.5 4-25.1 6.9-37.5 3.1-12.7 6.7-24.5 10.7-35.1 3.9-10.1 8.4-19.4 13.8-28.3 1.8-3 3.9-6.4 6.1-10.2 3.1-5.1 6.5-10.9 10.2-16.8 7.7-12.5 14.1-22.2 19.9-30.3 10.6-14.7 20.7-23.7 26.5-27.2 3.5-2.1 10.6-6 18.3-8.7l.2-.1.2-.1c8.7-3.9 18.2-6.7 28.1-8.4 7.6-1.3 15.6-2 23.8-2 13.7 0 28.2 1.8 43 5.4 12.9 3.1 26.2 7.6 39.3 13.3 9.1 3.9 18.6 8.6 28.1 14 18.8 10.6 38.6 23.9 58.8 39.8 5.6 4.4 11.4 9.1 17.1 13.9 4.8 4.1 9.6 8.2 14.7 12.7 3.8 3.4 7.7 6.9 11.9 10.8 2.2 2.1 4.3 3.9 6 5.6l2.8 2.6c1.8 1.7 3.6 3.3 4.9 4.5l2 1.7 2.6-.7c.9-.2 1.3-.3 10.2-5.4 3.1-1.8 7-4 11.5-6.6 24.4-13.9 69.7-39.7 112-61.4 20.8-10.7 43.2-19.4 64.8-27.7l.7-.3c9.5-3.7 20-7.1 31.1-10.1 33.4-9.1 71.1-14.2 106.2-14.2 30.5 0 57.9 3.7 81 10.9-4.5.4-9.4.8-14.6 1.4-12.6 1.4-25.9 3.5-38.6 5.8-13.8 2.6-26.3 5.6-36.3 8.6-7.9 2.4-14.4 4.9-19.2 7.3-2.7 1.4-5.5 2.9-8.4 4.4-7.9 4.3-16.5 9.4-25.4 14.9-1.2.7-2.4 1.5-3.6 2.3-10.4 6.6-21 13.7-31.3 21.1-10.9 7.8-21.6 15.9-31.7 24.1-10.8 8.8-21.1 17.7-30.6 26.5-4.6 4.3-9.4 9-14.1 13.7-4.5 4.6-9.1 9.4-13.7 14.4C68.4-4.8 28.1 39.4-13 79.3c-18.7 18.2-36.1 34-52.9 48.3-25.8 21.9-49.6 39.4-72.8 53.7-26.7 16.4-52.5 28.1-76.6 34.9-16.9 5.1-33.6 7.6-49.6 7.6z" class="st3"/></g><g id="Layer_2" class="st0"><image width="839" height="425" overflow="visible" transform="translate(-302.594 -182.188)" xlink:href="E31FDE06.png"/><image width="837" height="425" overflow="visible" transform="translate(-440.594 -200.188)" xlink:href="E31FDE01.png"/><image width="838" height="426" overflow="visible" transform="translate(-301.594 -182.188)" xlink:href="E31FDE03.png"/></g><g id="Layer_12"><path d="M87.7 31c1.3-5.7 1.7-11.6.6-17.7-.5-2.6-1-5.1-2-7.5M71.2 27.4c1.5-3.7 2.4-8 2.6-12.1.1-2 .1-4.1-.1-6.1-.1-1-.2-2.1-.3-3.1-.1-.5-.3-1.9-.4-2.4M57.7 32c3.2-2.6 5.2-6.5 6.3-10.3 1.5-5.1 2-9.3 1.4-14.5M44 39.4c14.1-8 12.8-28.2 13.4-25.9M34.9 42.9c13.2-8 18.4-24.1 17.6-24.8" class="st9"/><path d="M61.5 30.4c-.7-.1-2-.3-2.7-.1-4.1 1.5-7.4 4.1-11.3 6.5-1.1.7-2.3 1.3-3.4 1.8-.4.2-10.4 4.1-15.7 5.1-1.5.3-4.3-.3-5.8-.2" class="st9"/><path d="M67 28.6c-1-.2-2.8-.4-3.9-.5-1-.1-1.9-.1-2.9.3-1.9.7-3.8 1.6-5.5 2.7-1.7 1-3.2 2.3-4.8 3.4-1.7 1.2-3.4 2.1-5.2 2.9-2 .9-4 1.7-6 2.5s-4 1.6-6 2.2c-4.2 1.2-8.6 1.5-12.9 1.2m70.4-7.6c-1.2 1-.2.2-1.8.5" class="st9"/><path d="M94.4 23.9c-.1.3-2.9-.4-5.5-1.4-4.4-1.7-13.1-2.7-15.4-3-2.5-.3-7.1.9-9.2 1.5-.7.2-5.9 3.7-6.5 4.1-3 1.8-6 4.2-9.1 5.6-3.4 1.6-9.3 5.2-12.6 6.5-2.9 1.2-8.3 3.4-9.5 3.2" class="st9"/><path d="M93.5 28.3c-.1.3-2.5 1-5.1 0-4.4-1.7-13.3-4.9-15.6-5.4-2.6-.6-7.8-.1-9.6 1.2-.6.4-6.2 4.1-6.8 4.4-3 1.8-5.8 3.7-8.9 5.1-3.4 1.6-9.6 4.6-12.9 5.9-2.9 1.2-11.5 2.1-12.7 2" class="st9"/><path d="M74 27.1c-1-.5-2.8-1.1-3.9-1.3-2.4-.3-4.6-.8-6.9.2-2.8 1.2-5.4 2.7-8.2 4.1-1.7 1-3.2 1.9-4.8 3.2-.9.6-1.7 1-2.6 1.5-2.5 1.4-5 2.5-7.6 3.6-.6.2-1 .4-1.6.5-.9.4-1.8.6-2.7 1-.3.2-.6.3-.9.5-5.5 2.1-11.5 1.7-17.2 1.7m74.6-9.9c-1.7.8-1.8.4-3.7.4" class="st9"/><path d="M94.6 19.9c-7.1-3-14.9-3.5-22.7-3.5-3.4 0-6.3 1-9.3 2.9C52.4 26.6 42.3 33 31.4 38" class="st9"/><path d="M94.1 16.3c-5.9-2.7-11.8-4.6-18.4-3.8-9 1-17 6.5-24.1 11.7-5.3 3.9-11 8.5-16.9 11.5" class="st9"/><path d="M90.5 9.2c-1.7-.8-3.2-1.8-5-2.4-3.4-1.2-7-1.4-10.5-.9-8.3 1.3-14.9 6.1-20.6 11.9-4.5 4.6-8 10.2-13.9 13" class="st9"/><path d="M92.9 13.1C87.3 10.5 82 8.5 75.7 9.2c-8.6 1-16 6.2-22.4 11.6-5 4.3-9.4 9.3-15.4 12.3M86.5 6.2c-1.9-1.5-3.9-2.4-6.3-2.9" class="st9"/><path d="M80.8 26.5c.9-4.8 1.1-9.5.8-14.3-.2-3.5-.6-5.8-2.1-9.1" class="st9"/><path d="M57.2 32.1s-.3.2-.8.5c-1.9 1.1-6.9 4-11.5 6.4-2 1-4.1 1.9-6.1 2.7-.9.4-1.9.7-2.9 1-6.2 1.7-15 2.2-20.5-.9.1 0 .3.1.7.2.5.1.4.2.7.2.7 0 1.7-.1 2.9-.2 1.1-.1 2.4-.3 3.5-.5 1.2-.2 2.4-.5 3.3-.8.7-.2 1.3-.4 1.7-.7.2-.1.5-.3.8-.4.7-.4 1.5-.9 2.3-1.4.1-.1.2-.1.3-.2.9-.6 1.9-1.2 2.9-2 1-.7 1.9-1.5 2.9-2.3 1-.8 1.9-1.6 2.8-2.5.4-.4.9-.8 1.3-1.3.4-.4.8-.9 1.3-1.4 3.5-3.9 7.1-7.9 10.9-11.7 1.6-1.6 3.3-3.2 4.9-4.6 2.3-1.9 4.5-3.7 6.8-5.1 2.4-1.5 4.8-2.7 7.2-3.4 1.9-.5 3.6-.7 5.3-.7.9 0 1.8.1 2.6.3 1.1.2 2.6.8 4.2 1.6 1.7.9 3.5 2 4.9 3.4.5.5.9.9 1.3 1.4.4.5.7 1 1 1.5.6 1.1 1.1 2.2 1.5 3.3.3.7.5 1.3.6 1.9.1.3.2.7.3 1 .2.9.3 1.9.3 3.1v.4c0 1-.1 2-.2 3.1-.2 1.2-.4 2.4-.7 3.6-.3 1.2-.6 2.3-1 3.4-.4 1-.8 1.9-1.3 2.8-.4.7-.9 1.6-1.5 2.6s-1.2 2-1.9 2.9c-.9 1.3-1.9 2.3-2.6 2.7-.9.5-2.3 1.2-3.3 1.1" class="st9"/><circle cx="68.1" cy="40.5" class="st10" r=".4"/><circle cx="73.7" cy="37.9" class="st10" r=".4"/><circle cx="81.7" cy="38.1" class="st10" r=".4"/><circle cx="81.7" cy="35.1" class="st10" r=".4"/><circle cx="81.5" cy="31.7" class="st10" r=".4"/><circle cx="65.6" cy="36.3" class="st10" r=".4"/><circle cx="74" cy="40.6" class="st10" r=".4"/><circle cx="81.3" cy="41.2" class="st10" r=".4"/><circle cx="66.7" cy="38.4" class="st10" r=".4"/><circle cx="74.4" cy="43" class="st10" r=".4"/><circle cx="80.7" cy="43.5" class="st10" r=".4"/><circle cx="83.9" cy="42.3" class="st10" r=".4"/><circle cx="85.4" cy="40.1" class="st10" r=".4"/><circle cx="86" cy="37.7" class="st10" r=".4"/><circle cx="86.1" cy="35.1" class="st10" r=".4"/><circle cx="85.8" cy="32.1" class="st10" r=".4"/><circle cx="81.2" cy="29.7" class="st10" r=".4"/><circle cx="85.4" cy="29.9" class="st10" r=".4"/><path d="M63.9 32.4c0-.1 0-.1 0 0 0-.1 0-.1 0 0l-.1-.1h-.2c0 .2.2.4.4.4h.1c0-.2-.1-.2-.2-.3z" class="st10"/><circle cx="64.7" cy="34.2" class="st10" r=".4"/><circle cx="87.3" cy="39.4" class="st10" r=".4"/><path d="M72.9 27.3h.3c0-.2-.2-.4-.4-.4s-.4.2-.4.4v.1c.1 0 .3-.1.5-.1z" class="st10"/><circle cx="80.7" cy="26.9" class="st10" r=".4"/><circle cx="84.3" cy="27.8" class="st10" r=".4"/><circle cx="88.6" cy="35" class="st10" r=".4"/><circle cx="88.6" cy="33" class="st10" r=".4"/><circle cx="87.8" cy="30.8" class="st10" r=".4"/><circle cx="88.2" cy="37.4" class="st10" r=".4"/><path d="M65 29.2c.1 0 .1 0 0 0 0-.2-.1-.3-.3-.3-.2 0-.4.2-.4.4v.2c.2-.2.5-.3.7-.3z" class="st10"/><circle cx="57.6" cy="32.4" class="st10" r=".4"/><circle cx="57.2" cy="32.2" class="st10" r=".4"/><circle cx="58.2" cy="33.4" class="st10" r=".4"/><circle cx="59.4" cy="34.2" class="st10" r=".4"/><path d="M88.5 33c-.1-.8-.3-1.5-.7-2.2-.3-.7-.8-1.3-1.4-1.8-.7-.6-1.5-1.1-2.4-1.4-1-.4-2.2-.6-3.6-.8-.6-.1-1.2-.1-1.9-.1-1.7 0-3.5.2-5.6.5-2.3.4-4.8.9-7.3 1.7-2 .6-3.9 1.3-5.4 1.9-.8.3-1.4.6-1.7.8-.3.2-.5.5-.5.8 0 .3.1.5.3.7.1.1.2.2.4.3l.2.2c.2.1.3.3.5.5.4.3.7.6 1 .9.4.4.8.7 1.3 1.1l1.5 1.2c1.8 1.4 3.5 2.5 5.1 3.5.8.5 1.7.9 2.5 1.2 1.2.5 2.4.9 3.5 1.2 1.4.3 2.7.5 3.9.5.8 0 1.5-.1 2.2-.2 1.1-.2 2.2-.5 3.1-1 .8-.4 1.6-.9 2.3-1.5.5-.4.9-.9 1.3-1.6.3-.6.6-1.3.8-2 .2-.7.4-1.5.4-2.2.3-.7.3-1.5.2-2.2z" class="st11"/><path d="M74.4 43c-.4-3-.8-5.9-1.2-8.9m7.5 9.4c2.4-6.1 0-16.6.1-16.6m3.1 15.5c4.5-5 1.1-14.2.4-14.7M68.1 40.6c-1.6-2.5-3.2-5.1-3.9-8" class="st9"/><path d="M75.9 29.8c2.1-.1 4.1-.2 6.2-.2 1.9 0 4 .2 5.7 1.1m-30.6 1.4c1.9-.5 3.8-.6 5.7-.9m-4.1 2.2c9.8 1.3 19.8 2.3 29.7 1.5m-28.6-.5c9 3.4 18.8 4.9 28.3 2.9m-26.7-1.4c7.7 4.3 17.3 7.5 25.8 3.4m-11.7-7.8c3.8-.2 7.7 0 11.7.8.5.1.9.4 1.2.6m-30.4-.4c2-.1 3.4-.2 5.4-.3" class="st9"/><g><circle cx="66.2" cy="33.5" class="st10" r=".3"/><circle cx="69.5" cy="34.5" class="st10" r=".3"/><circle cx="71.1" cy="34.6" class="st10" r=".3"/><circle cx="69.4" cy="33.6" class="st10" r=".3"/><circle cx="71.4" cy="33.6" class="st10" r=".3"/><circle cx="72.4" cy="34.3" class="st10" r=".3"/><circle cx="72.9" cy="33.4" class="st10" r=".3"/><circle cx="71.6" cy="32.2" class="st10" r=".3"/><circle cx="73.3" cy="32" class="st10" r=".3"/><circle cx="69.3" cy="32.3" class="st10" r=".3"/><circle cx="73.7" cy="33.8" class="st10" r=".3"/><circle cx="74.2" cy="32.8" class="st10" r=".3"/><circle cx="74.7" cy="31.6" class="st10" r=".3"/><circle cx="73.6" cy="30.3" class="st10" r=".3"/><circle cx="75" cy="30.1" class="st10" r=".3"/><circle cx="71.6" cy="30.6" class="st10" r=".3"/><circle cx="69.1" cy="30.9" class="st10" r=".3"/><circle cx="71.5" cy="29.1" class="st10" r=".3"/><circle cx="73.8" cy="28.8" class="st10" r=".3"/><circle cx="75.3" cy="28.6" class="st10" r=".3"/><circle cx="75.8" cy="31.1" class="st10" r=".3"/><circle cx="76.1" cy="28.4" class="st10" r=".3"/><circle cx="68.9" cy="29.5" class="st10" r=".3"/><circle cx="65.7" cy="32.9" class="st10" r=".3"/><circle cx="65.1" cy="32.1" class="st10" r=".3"/><circle cx="64.5" cy="31.2" class="st10" r=".3"/><circle cx="63.8" cy="30.4" class="st10" r=".3"/><circle cx="63.2" cy="31.9" class="st10" r=".3"/><circle cx="62.5" cy="31.4" class="st10" r=".3"/><circle cx="61.9" cy="31" class="st10" r=".3"/><circle cx="61.4" cy="30.5" class="st10" r=".3"/><path d="M61.2 30.4c1 .9 2.8 2.2 5 3.1 2.2.9 4.5 1.3 5.8 1 2.7-.6 4.5-2.7 4.1-7.4m-5 7.4c.8-2.1.4-6.3.2-6.9m-1.8 6.9c-.1-3.1-.8-5.4-1-6.2m3.9 6.1c1.1-2 1.5-6.4 1.4-7.1m-7.6 6.2c-1.4-1.9-2.5-3.1-2.9-3.9m10.2 4.3c1.5-1.8 1.9-6.3 1.7-7" class="st9"/><path d="M75.3 32.1c.1 0-1.4 1.4-4.6 1.6-2 .1-4.6-.3-7.9-2" class="st9"/><path d="M75.8 31.1c.1 0-1.5 1-4.7 1.1-2 .1-5.9.4-8.7-.8" class="st9"/><path d="M76 29.9c.1 0-1.6.3-4.8.7-1.9.2-6.8 1.2-9.4.4m14.4-2.6c.1 0-1.6.2-4.7.7-1.9.3-7.8 1.7-10.1 1.5" class="st9"/><path d="M61.2 30.4c2.7-1.1 13.1-3.9 14.9-3.3" class="st12"/></g><g id="Layer_9"><g class="st0"><ellipse cx="24.4" cy="18.1" class="st13" rx=".8" ry=".7"/><ellipse cx="7.9" cy="16.1" class="st13" rx=".8" ry=".7"/><ellipse cx="15.4" cy="18.8" class="st13" rx=".8" ry=".7"/><ellipse cx="14.7" cy="23.5" class="st13" rx=".8" ry=".7"/><ellipse cx="23.4" cy="21.4" class="st13" rx=".8" ry=".7"/><ellipse cx="22.9" cy="24.7" class="st13" rx=".8" ry=".7"/><ellipse cx="7.5" cy="21.7" class="st13" rx=".8" ry=".7"/><ellipse cx="22.6" cy="27.5" class="st13" rx=".8" ry=".7"/><ellipse cx="14.7" cy="27.2" class="st13" rx=".8" ry=".7"/><ellipse cx="7.5" cy="26" class="st13" rx=".8" ry=".7"/><ellipse cx="22.5" cy="31.3" class="st13" rx=".8" ry=".7"/><ellipse cx="14.7" cy="31.6" class="st13" rx=".8" ry=".7"/><ellipse cx="7.9" cy="30.1" class="st13" rx=".8" ry=".7"/><ellipse cx="22.5" cy="34.6" class="st13" rx=".8" ry=".7"/><ellipse cx="15.1" cy="34.6" class="st13" rx=".8" ry=".7"/><ellipse cx="8.4" cy="33.2" class="st13" rx=".8" ry=".7"/><ellipse cx="22.6" cy="37.9" class="st13" rx=".8" ry=".7"/><ellipse cx="15.9" cy="37.9" class="st13" rx=".8" ry=".7"/><ellipse cx="9.1" cy="36.4" class="st13" rx=".8" ry=".7"/><path d="M12.3 2.6c-.1-.2-.1-.3-.1-.5h-.1v.1c0 .2.1.3.2.4z" class="st13"/><ellipse cx="6.1" cy="9.1" class="st13" rx=".8" ry=".7"/><path d="M8.2 6.3c.2-.4.4-.8.5-1.2V5c0-.1-.2-.1-.3-.1-.4 0-.8.3-.8.7 0 .4.3.7.6.7z" class="st13"/><ellipse cx="2.8" cy="16.1" class="st13" rx=".8" ry=".7"/><ellipse cx="4" cy="12.2" class="st13" rx=".8" ry=".7"/><ellipse cx="1.9" cy="20.3" class="st13" rx=".8" ry=".7"/><ellipse cx="1.6" cy="24.2" class="st13" rx=".8" ry=".7"/><ellipse cx="2.2" cy="28" class="st13" rx=".8" ry=".7"/><ellipse cx="3.4" cy="31.1" class="st13" rx=".8" ry=".7"/><ellipse cx="6" cy="35.2" class="st13" rx=".8" ry=".7"/><ellipse cx="16.5" cy="40.1" class="st13" rx=".8" ry=".7"/><ellipse cx="23.1" cy="39.7" class="st13" rx=".8" ry=".7"/><ellipse cx="10" cy="38.2" class="st13" rx=".8" ry=".7"/><ellipse cx="23.2" cy="40.6" class="st13" rx=".8" ry=".7"/><ellipse cx="16.6" cy="40.9" class="st13" rx=".8" ry=".7"/><ellipse cx="30.9" cy="35" class="st13" rx=".8" ry=".7"/><ellipse cx="30.9" cy="36.5" class="st13" rx=".8" ry=".7"/><ellipse cx="31" cy="37" class="st13" rx=".8" ry=".7"/><ellipse cx="30.9" cy="31.7" class="st13" rx=".8" ry=".7"/><ellipse cx="31" cy="28.6" class="st13" rx=".8" ry=".7"/><ellipse cx="31.3" cy="26" class="st13" rx=".8" ry=".7"/><ellipse cx="32.1" cy="23.5" class="st13" rx=".8" ry=".7"/><ellipse cx="33.1" cy="20.3" class="st13" rx=".8" ry=".7"/><ellipse cx="34.2" cy="18.1" class="st13" rx=".8" ry=".7"/><ellipse cx="35.2" cy="16.4" class="st13" rx=".8" ry=".7"/><path d="M36.7 13.6c-.1.1-.2.1-.3.1-.2.1-.3.3-.3.6 0 .4.3.7.8.7.4 0 .8-.3.8-.7s-.3-.7-.8-.7h-.2zm2.3-1.3c-.3.3-.7.5-1.1.6.1.3.4.5.7.5.4 0 .8-.3.8-.7 0-.2-.1-.4-.3-.6 0 .1 0 .2-.1.2z" class="st13"/><ellipse cx="50.2" cy="6.4" class="st13" rx=".8" ry=".7"/><ellipse cx="48" cy="8.5" class="st13" rx=".8" ry=".7"/><ellipse cx="46.2" cy="10.4" class="st13" rx=".8" ry=".7"/><ellipse cx="45" cy="12.1" class="st13" rx=".8" ry=".7"/><ellipse cx="44.1" cy="13.4" class="st13" rx=".8" ry=".7"/><ellipse cx="42.4" cy="16.7" class="st13" rx=".8" ry=".7"/><ellipse cx="41.4" cy="19.7" class="st13" rx=".8" ry=".7"/><ellipse cx="40.3" cy="23.2" class="st13" rx=".8" ry=".7"/><ellipse cx="39.7" cy="26" class="st13" rx=".8" ry=".7"/><ellipse cx="39.3" cy="28.9" class="st13" rx=".8" ry=".7"/><ellipse cx="39.1" cy="30.8" class="st13" rx=".8" ry=".7"/><ellipse cx="49" cy="14.9" class="st13" rx=".8" ry=".7"/><ellipse cx="46.9" cy="18.7" class="st13" rx=".8" ry=".7"/><ellipse cx="45.7" cy="21.2" class="st13" rx=".8" ry=".7"/><ellipse cx="44.8" cy="23.5" class="st13" rx=".8" ry=".7"/><ellipse cx="43.8" cy="26" class="st13" rx=".8" ry=".7"/><ellipse cx="50.8" cy="12.2" class="st13" rx=".8" ry=".7"/><ellipse cx="53.5" cy="8.8" class="st13" rx=".8" ry=".7"/><ellipse cx="55.3" cy="6.7" class="st13" rx=".8" ry=".7"/><ellipse cx="57" cy="5" class="st13" rx=".8" ry=".7"/><ellipse cx="58.8" cy="3.4" class="st13" rx=".8" ry=".7"/><ellipse cx="60.6" cy="2" class="st13" rx=".8" ry=".7"/><ellipse cx="57.7" cy="11.8" class="st13" rx=".8" ry=".7"/><ellipse cx="61.3" cy="8.9" class="st13" rx=".8" ry=".7"/><ellipse cx="64.8" cy="6.7" class="st13" rx=".8" ry=".7"/><ellipse cx="69.1" cy="4.3" class="st13" rx=".8" ry=".7"/><ellipse cx="54.7" cy="14.6" class="st13" rx=".8" ry=".7"/><ellipse cx="51.7" cy="17.8" class="st13" rx=".8" ry=".7"/><ellipse cx="74.2" cy="3.1" class="st13" rx=".8" ry=".7"/><ellipse cx="78.4" cy="2.6" class="st13" rx=".8" ry=".7"/><ellipse cx="76.3" cy="1.3" class="st13" rx=".8" ry=".7"/><ellipse cx="66.6" cy="1" class="st13" rx=".8" ry=".7"/><ellipse cx="80.8" cy="2.9" class="st13" rx=".8" ry=".7"/></g><path d="M8.6 13.8C7.3 19.5 6.9 25.4 8 31.5c.5 2.6 1 5.1 2 7.5m15.1-21.7c-1.5 3.7-2.4 8-2.6 12.1-.1 2-.1 4.1.1 6.1.1 1 .2 2.1.3 3.1.1.5.3 1.9.4 2.4m15.3-28.2c-3.2 2.6-5.2 6.5-6.3 10.3-1.5 5.1-2 9.3-1.4 14.5M52.3 5.4c-14.1 8-12.8 28.2-13.4 25.9M61.4 1.9C48.2 9.9 43.1 26 43.8 26.7" class="st9"/><path d="M34.8 14.4c.7.1 2 .3 2.7.1 4.1-1.5 7.4-4.1 11.3-6.5 1.1-.7 2.3-1.3 3.4-1.8.4-.3 10.4-4.2 15.7-5.2 1.5-.3 4.3.3 5.8.2" class="st9"/><path d="M29.3 16.2c1 .2 2.8.4 3.9.5 1 .1 1.9.1 2.9-.3 1.9-.7 3.8-1.6 5.5-2.7 1.7-1 3.2-2.3 4.8-3.4 1.7-1.2 3.4-2.1 5.2-2.9 2-.9 4-1.7 6-2.5s4-1.6 6-2.2c4.2-1.2 8.6-1.5 12.9-1.2M6.1 9.1c1.2-1 .2-.2 1.8-.5" class="st9"/><path d="M1.9 20.9c.1-.3 2.9.4 5.5 1.4 4.4 1.7 13.1 2.7 15.4 3 2.5.3 7.1-.9 9.2-1.5.7-.2 5.9-3.7 6.5-4.1 3-1.8 6-4.2 9.1-5.6 3.4-1.6 9.3-5.2 12.6-6.5 2.9-1.2 8.3-3.4 9.5-3.2" class="st9"/><path d="M2.8 16.5c.1-.3 2.5-1 5.1 0 4.4 1.7 13.3 4.9 15.6 5.4 2.6.6 7.8.1 9.6-1.2.6-.4 6.2-4.1 6.8-4.4 3-1.8 5.8-3.7 8.9-5.1 3.4-1.6 9.6-4.6 12.9-5.9 2.9-1.2 11.5-2.1 12.7-2" class="st9"/><path d="M22.3 17.7c1 .5 2.8 1.1 3.9 1.3 2.4.3 4.6.8 6.9-.2 2.8-1.2 5.4-2.7 8.2-4.1 1.7-1 3.2-1.9 4.8-3.2.9-.6 1.7-1 2.6-1.5 2.5-1.4 5-2.5 7.6-3.6.6-.2 1-.4 1.6-.5.9-.4 1.8-.6 2.7-1 .3-.2.6-.3.9-.5C67 2.3 72.9 2.7 78.7 2.7M4.1 12.5c1.7-.8 1.8-.4 3.7-.4" class="st9"/><path d="M1.7 24.8c7.1 3 14.9 3.5 22.7 3.5 3.4 0 6.3-1 9.3-2.9C43.9 18.1 54 11.7 64.9 6.8" class="st9"/><path d="M2.2 28.5C8.1 31.2 14 33 20.6 32.3c9-1 17-6.5 24.1-11.7 5.3-3.9 11-8.5 16.9-11.5" class="st9"/><path d="M5.8 35.5c1.7.8 3.2 1.8 5 2.4 3.4 1.2 7 1.4 10.5.9 8.3-1.3 14.9-6.1 20.6-11.9 4.5-4.6 8-10.2 13.9-13" class="st9"/><path d="M3.4 31.6c5.6 2.6 10.8 4.6 17.2 3.9 8.6-1 16-6.2 22.4-11.6 5-4.3 9.4-9.3 15.4-12.3m-48.6 27c1.9 1.5 3.9 2.4 6.3 2.9" class="st9"/><path d="M15.5 18.2c-.9 4.8-1.1 9.5-.8 14.3.2 3.5.6 5.8 2.1 9.1" class="st9"/><path d="M39.1 12.7s.3-.2.8-.5c1.9-1.1 6.9-4 11.5-6.4 2-1 4.1-1.9 6.1-2.7.9-.4 1.9-.7 2.9-1 6.2-1.7 15-2.2 20.5.9-.1 0-.3-.1-.7-.2-.5-.1-.4-.2-.7-.2-.7 0-1.7.1-2.9.2-1.1.1-2.4.3-3.5.5-1.2.2-2.4.5-3.3.8-.7.2-1.3.4-1.7.7-.2.1-.5.3-.8.4-.7.4-1.5.9-2.3 1.4-.1.1-.2.1-.3.2-.9.6-1.9 1.2-2.9 2-1 .7-1.9 1.5-2.9 2.3-1 .8-1.9 1.6-2.8 2.5-.4.4-.9.8-1.3 1.3-.4.4-.8.9-1.3 1.4-3.5 3.9-7.1 8-10.9 11.7-1.6 1.6-3.3 3.2-4.9 4.6-2.3 1.9-4.5 3.7-6.8 5.1-2.4 1.5-4.8 2.7-7.2 3.4-1.7.5-3.5.7-5.2.7-.9 0-1.8-.1-2.6-.3-1.1-.2-2.6-.8-4.2-1.6-1.7-.9-3.5-2-4.9-3.4-.6-.5-1-1-1.4-1.5-.4-.5-.7-1-1-1.5-.6-1.1-1.1-2.2-1.5-3.3-.3-.7-.5-1.3-.6-1.9-.2-.3-.3-.6-.3-1-.2-.9-.3-1.9-.3-3.1v-.4c0-1 .1-2 .2-3.1.2-1.2.4-2.4.7-3.6.3-1.2.6-2.3 1-3.4.4-1 .8-1.9 1.3-2.8.4-.7.9-1.6 1.5-2.6s1.2-2 1.9-2.9c.9-1.3 1.9-2.3 2.6-2.7.9-.5 2.3-1.2 3.3-1.1" class="st9"/><circle cx="28.2" cy="4.2" class="st10" r=".4"/><circle cx="22.6" cy="6.9" class="st10" r=".4"/><circle cx="14.6" cy="6.6" class="st10" r=".4"/><circle cx="14.6" cy="9.7" class="st10" r=".4"/><circle cx="14.8" cy="13.1" class="st10" r=".4"/><circle cx="30.7" cy="8.4" class="st10" r=".4"/><circle cx="22.3" cy="4.1" class="st10" r=".4"/><circle cx="15" cy="3.5" class="st10" r=".4"/><circle cx="29.6" cy="6.4" class="st10" r=".4"/><circle cx="21.9" cy="1.7" class="st10" r=".4"/><circle cx="15.6" cy="1.2" class="st10" r=".4"/><circle cx="12.4" cy="2.4" class="st10" r=".4"/><circle cx="10.9" cy="4.7" class="st10" r=".4"/><circle cx="10.3" cy="7.1" class="st10" r=".4"/><circle cx="10.2" cy="9.7" class="st10" r=".4"/><circle cx="10.5" cy="12.7" class="st10" r=".4"/><circle cx="15.1" cy="15.1" class="st10" r=".4"/><circle cx="10.9" cy="14.8" class="st10" r=".4"/><path d="M32.4 12.4l.1.1h.2c0-.2-.2-.4-.4-.4h-.1c0 .1.1.2.2.3z" class="st10"/><circle cx="31.6" cy="10.6" class="st10" r=".4"/><circle cx="9" cy="5.3" class="st10" r=".4"/><path d="M23.4 17.5h-.3c0 .2.2.4.4.4s.4-.2.4-.4v-.1c-.1 0-.3 0-.5.1z" class="st10"/><circle cx="15.6" cy="17.8" class="st10" r=".4"/><circle cx="12" cy="17" class="st10" r=".4"/><circle cx="7.7" cy="9.7" class="st10" r=".4"/><circle cx="7.7" cy="11.8" class="st10" r=".4"/><circle cx="8.5" cy="14" class="st10" r=".4"/><circle cx="8.1" cy="7.3" class="st10" r=".4"/><path d="M31.3 15.6c-.1 0-.1 0 0 0 0 .2.1.3.3.3.2 0 .4-.2.4-.4v-.2c-.2.1-.5.2-.7.3z" class="st10"/><circle cx="38.8" cy="12.3" class="st10" r=".4"/><circle cx="39.1" cy="12.6" class="st10" r=".4"/><circle cx="38.1" cy="11.4" class="st10" r=".4"/><circle cx="36.9" cy="10.5" class="st10" r=".4"/><path d="M7.8 11.8c.1.8.3 1.5.7 2.2.3.7.8 1.3 1.4 1.8.7.6 1.5 1.1 2.4 1.4 1 .4 2.2.6 3.6.8h1.8c1.7 0 3.5-.2 5.6-.5 2.3-.4 4.8-.9 7.3-1.7 2-.6 3.9-1.3 5.4-1.9.8-.3 1.4-.6 1.7-.8.3-.2.5-.5.5-.8 0-.3-.1-.5-.3-.7-.1-.1-.2-.2-.4-.3l-.2-.2c-.2-.1-.3-.3-.5-.5-.4-.3-.7-.6-1-.9-.5-.4-.8-.7-1.3-1.1L33 7.4c-1.8-1.4-3.5-2.5-5.1-3.5-.9-.4-1.7-.9-2.6-1.2-1.2-.5-2.4-.9-3.5-1.2-1.3-.3-2.7-.5-3.9-.5-.8 0-1.5.1-2.2.2-1.1.2-2.2.5-3.1 1-.8.4-1.6.9-2.3 1.5-.5.4-.9 1-1.3 1.6-.3.6-.6 1.3-.8 2-.3.7-.4 1.5-.5 2.2 0 .8 0 1.6.1 2.3z" class="st11"/><path d="M21.9 1.7c.4 3 .8 5.9 1.2 8.9m-7.5-9.3c-2.4 6.1 0 16.6-.1 16.6M12.4 2.4c-4.4 5-1.1 14.2-.4 14.7M28.2 4.2c1.6 2.5 3.2 5.1 3.9 8" class="st9"/><path d="M20.4 15c-2.1.1-4.1.2-6.2.2-1.9 0-4-.2-5.7-1.1m30.6-1.4c-1.9.5-3.8.6-5.7.9m4.1-2.3C27.7 10 17.7 9.1 7.8 9.8m28.6.5C27.4 7 17.5 5.4 8 7.4m26.8 1.5C27.1 4.6 17.5 1.3 9 5.4m11.7 7.9c-3.8.2-7.7 0-11.7-.8-.5-.1-.9-.4-1.2-.6m30.4.4c-2 .1-3.4.2-5.4.3" class="st9"/><g><circle cx="30.1" cy="11.2" class="st10" r=".3"/><circle cx="26.8" cy="10.3" class="st10" r=".3"/><circle cx="25.2" cy="10.2" class="st10" r=".3"/><circle cx="26.9" cy="11.1" class="st10" r=".3"/><circle cx="24.9" cy="11.1" class="st10" r=".3"/><circle cx="23.9" cy="10.4" class="st10" r=".3"/><circle cx="23.4" cy="11.4" class="st10" r=".3"/><circle cx="24.8" cy="12.6" class="st10" r=".3"/><circle cx="23" cy="12.8" class="st10" r=".3"/><circle cx="27" cy="12.5" class="st10" r=".3"/><circle cx="22.6" cy="10.9" class="st10" r=".3"/><circle cx="22.1" cy="11.9" class="st10" r=".3"/><circle cx="21.6" cy="13.2" class="st10" r=".3"/><circle cx="22.7" cy="14.4" class="st10" r=".3"/><circle cx="21.3" cy="14.7" class="st10" r=".3"/><circle cx="24.8" cy="14.2" class="st10" r=".3"/><circle cx="27.2" cy="13.9" class="st10" r=".3"/><circle cx="24.8" cy="15.7" class="st10" r=".3"/><circle cx="22.5" cy="16" class="st10" r=".3"/><circle cx="21" cy="16.2" class="st10" r=".3"/><circle cx="20.5" cy="13.6" class="st10" r=".3"/><circle cx="20.2" cy="16.3" class="st10" r=".3"/><circle cx="27.4" cy="15.2" class="st10" r=".3"/><circle cx="30.6" cy="11.9" class="st10" r=".3"/><circle cx="31.2" cy="12.7" class="st10" r=".3"/><circle cx="31.8" cy="13.5" class="st10" r=".3"/><circle cx="32.5" cy="14.4" class="st10" r=".3"/><circle cx="33.1" cy="12.9" class="st10" r=".3"/><circle cx="33.8" cy="13.4" class="st10" r=".3"/><circle cx="34.4" cy="13.8" class="st10" r=".3"/><circle cx="34.9" cy="14.2" class="st10" r=".3"/><path d="M35.1 14.3c-1-.9-2.8-2.2-5-3.1-2.2-.9-4.5-1.3-5.8-1-2.7.6-4.5 2.7-4.1 7.4m5-7.4c-.8 2.1-.4 6.3-.2 6.9m1.8-6.8c.1 3.1.8 5.4 1 6.2m-3.9-6.1c-1.1 2-1.5 6.4-1.4 7.1m7.6-6.3c1.4 1.9 2.5 3.1 2.9 3.9m-10.2-4.2c-1.5 1.8-1.9 6.3-1.7 7" class="st9"/><path d="M21 12.6c-.1 0 1.4-1.4 4.6-1.6 2-.1 4.6.3 7.9 2" class="st9"/><path d="M20.5 13.6c-.1 0 1.5-1 4.7-1.1 2-.1 5.9-.4 8.7.8" class="st9"/><path d="M20.3 14.8c-.1 0 1.6-.3 4.8-.7 1.9-.2 6.8-1.2 9.4-.4m-14.3 2.7c-.1 0 1.6-.2 4.7-.7 1.9-.3 7.8-1.7 10.1-1.5" class="st9"/><path d="M35.1 14.3c-2.7 1.1-13.1 3.9-14.9 3.3" class="st12"/></g></g></g><g id="Layer_11" class="st0"><circle cx="20.3" cy="14.9" class="st13" r=".3"/><circle cx="24.7" cy="14.4" class="st14" r=".3"/><circle cx="27.1" cy="13.9" class="st13" r=".3"/><circle cx="24.7" cy="12.5" class="st13" r=".3"/><circle cx="27.1" cy="12.5" class="st14" r=".3"/><circle cx="25.2" cy="11" class="st14" r=".3"/><circle cx="27.6" cy="15.4" class="st14" r=".3"/><circle cx="24.7" cy="15.9" class="st13" r=".3"/><circle cx="22.7" cy="14.4" class="st13" r=".3"/><circle cx="22.7" cy="15.9" class="st14" r=".3"/><circle cx="32" cy="13.4" class="st14" r=".3"/><circle cx="27.1" cy="11" class="st13" r=".3"/><circle cx="23.2" cy="11.5" class="st13" r=".3"/><circle cx="23.2" cy="12.6" class="st14" r=".3"/><circle cx="21.7" cy="12.9" class="st13" r=".3"/><circle cx="21.3" cy="16.4" class="st13" r=".3"/><circle cx="21.3" cy="14.4" class="st14" r=".3"/><circle cx="25.2" cy="10" class="st13" r=".3"/><circle cx="26.6" cy="10" class="st14" r=".3"/><circle cx="32.5" cy="14.4" class="st13" r=".3"/><circle cx="31" cy="12.5" class="st13" r=".3"/><circle cx="30.5" cy="11.5" class="st14" r=".3"/><circle cx="23.7" cy="10" class="st14" r=".3"/><circle cx="22.2" cy="11" class="st14" r=".3"/><circle cx="20.5" cy="13.4" class="st14" r=".3"/><circle cx="19.8" cy="16.4" class="st14" r=".3"/><circle cx="30.6" cy="8.3" class="st13" r=".4"/><circle cx="29.6" cy="6.4" class="st14" r=".4"/><circle cx="31.6" cy="10.8" class="st14" r=".4"/><circle cx="22.8" cy="6.9" class="st14" r=".4"/><circle cx="22.3" cy="3.9" class="st13" r=".4"/><circle cx="37.9" cy="12.2" class="st13" r=".4"/><circle cx="37.4" cy="11.3" class="st14" r=".4"/><circle cx="36" cy="9.8" class="st13" r=".4"/><circle cx="34" cy="8.3" class="st14" r=".4"/><circle cx="28.2" cy="3.9" class="st13" r=".4"/><circle cx="21.8" cy="1.5" class="st14" r=".4"/><circle cx="15.5" cy="1" class="st13" r=".4"/><circle cx="15" cy="3.5" class="st14" r=".4"/><circle cx="14.5" cy="6.4" class="st13" r=".4"/><circle cx="11.1" cy="4.4" class="st13" r=".4"/><circle cx="12.1" cy="2" class="st14" r=".4"/><circle cx="10.1" cy="6.9" class="st14" r=".4"/><circle cx="14.5" cy="9.3" class="st14" r=".4"/><circle cx="15" cy="13.2" class="st13" r=".4"/><circle cx="10.1" cy="9.8" class="st13" r=".4"/><circle cx="10.6" cy="12.7" class="st14" r=".4"/><circle cx="8.2" cy="7.4" class="st14" r=".4"/><circle cx="9.2" cy="5.4" class="st13" r=".4"/><circle cx="15" cy="15.2" class="st14" r=".4"/><circle cx="7.7" cy="12.2" class="st14" r=".4"/><circle cx="11.1" cy="14.7" class="st13" r=".4"/><circle cx="7.7" cy="9.8" class="st13" r=".4"/><circle cx="8.7" cy="14.2" class="st13" r=".4"/><circle cx="15.5" cy="18.1" class="st13" r=".4"/><circle cx="12.1" cy="17.1" class="st14" r=".4"/><circle cx="32.1" cy="23.4" class="st13" r=".7"/><circle cx="31.1" cy="26.9" class="st14" r=".7"/><circle cx="33" cy="20.5" class="st14" r=".7"/><circle cx="34" cy="18.1" class="st13" r=".7"/><circle cx="42.3" cy="17.1" class="st14" r=".7"/><circle cx="41.3" cy="20" class="st13" r=".7"/><circle cx="39.9" cy="23.4" class="st14" r=".7"/><circle cx="39.4" cy="26.9" class="st13" r=".7"/><circle cx="35" cy="16.1" class="st14" r=".7"/><circle cx="36.9" cy="14.2" class="st13" r=".7"/><circle cx="46.2" cy="19.5" class="st13" r=".7"/><circle cx="38.9" cy="29.8" class="st14" r=".7"/><circle cx="30.6" cy="29.3" class="st13" r=".7"/><circle cx="30.6" cy="32.2" class="st14" r=".7"/><circle cx="30.6" cy="35.6" class="st13" r=".7"/><circle cx="43.8" cy="13.7" class="st13" r=".7"/><circle cx="44.7" cy="12.2" class="st14" r=".7"/><circle cx="48.2" cy="15.6" class="st14" r=".7"/><circle cx="44.7" cy="22.5" class="st14" r=".7"/><circle cx="31.1" cy="37.6" class="st14" r=".7"/><circle cx="38.9" cy="31.2" class="st13" r=".7"/><circle cx="23.3" cy="41.5" class="st13" r=".7"/><circle cx="17" cy="41.5" class="st14" r=".7"/><circle cx="9.6" cy="39" class="st13" r=".7"/><circle cx="6.2" cy="35.6" class="st13" r=".7"/><circle cx="3.3" cy="31.7" class="st14" r=".7"/><circle cx="15" cy="32.2" class="st13" r=".7"/><circle cx="22.3" cy="32.2" class="st14" r=".7"/><circle cx="22.8" cy="38.6" class="st14" r=".7"/><circle cx="22.3" cy="35.1" class="st13" r=".7"/><circle cx="15" cy="35.6" class="st14" r=".7"/><circle cx="16" cy="39" class="st13" r=".7"/><circle cx="22.3" cy="28.3" class="st13" r=".7"/><circle cx="14.5" cy="27.8" class="st14" r=".7"/><circle cx="22.8" cy="25.4" class="st14" r=".7"/><circle cx="14.5" cy="23.9" class="st13" r=".7"/><circle cx="7.7" cy="30.8" class="st14" r=".7"/><circle cx="8.7" cy="33.7" class="st13" r=".7"/><circle cx="9.2" cy="37.1" class="st14" r=".7"/><circle cx="23.3" cy="22" class="st13" r=".7"/><circle cx="15.5" cy="19.1" class="st14" r=".7"/><circle cx="24.8" cy="18.6" class="st14" r=".7"/><circle cx="7.2" cy="26.9" class="st13" r=".7"/><circle cx="7.2" cy="22.5" class="st14" r=".7"/><circle cx="8.2" cy="16.1" class="st13" r=".7"/><circle cx="2.3" cy="28.3" class="st13" r=".7"/><circle cx="1.4" cy="24.9" class="st14" r=".7"/><circle cx="1.8" cy="21" class="st13" r=".7"/><circle cx="2.8" cy="16.1" class="st14" r=".7"/><circle cx="4.3" cy="12.2" class="st13" r=".7"/><circle cx="6.2" cy="8.3" class="st14" r=".7"/><circle cx="43.8" cy="26.9" class="st14" r=".7"/><circle cx="44.3" cy="24.4" class="st13" r=".7"/><circle cx="46.2" cy="10.3" class="st13" r=".7"/><circle cx="48.2" cy="8.3" class="st14" r=".7"/><circle cx="50.1" cy="12.7" class="st13" r=".7"/><circle cx="49.1" cy="6.9" class="st13" r=".7"/><circle cx="53" cy="9.3" class="st14" r=".7"/><circle cx="55" cy="6.9" class="st13" r=".7"/><circle cx="56.9" cy="4.9" class="st14" r=".7"/><circle cx="58.9" cy="3.5" class="st13" r=".7"/><circle cx="60.8" cy="2" class="st14" r=".7"/><circle cx="80.3" cy="2.5" class="st14" r=".7"/><circle cx="76" cy="29.9" class="st13" r=".3"/><circle cx="71.6" cy="30.4" class="st14" r=".3"/><circle cx="69.2" cy="30.8" class="st13" r=".3"/><circle cx="71.6" cy="32.3" class="st13" r=".3"/><circle cx="69.2" cy="32.3" class="st14" r=".3"/><circle cx="71.1" cy="33.8" class="st14" r=".3"/><circle cx="68.7" cy="29.4" class="st14" r=".3"/><circle cx="71.6" cy="28.9" class="st13" r=".3"/><circle cx="73.6" cy="30.4" class="st13" r=".3"/><circle cx="73.6" cy="28.9" class="st14" r=".3"/><circle cx="64.3" cy="31.3" class="st14" r=".3"/><circle cx="69.2" cy="33.8" class="st13" r=".3"/><circle cx="73.1" cy="33.3" class="st13" r=".3"/><circle cx="73.1" cy="32.1" class="st14" r=".3"/><circle cx="74.6" cy="31.8" class="st13" r=".3"/><circle cx="75" cy="28.4" class="st13" r=".3"/><circle cx="75" cy="30.4" class="st14" r=".3"/><circle cx="71.1" cy="34.7" class="st13" r=".3"/><circle cx="69.7" cy="34.7" class="st14" r=".3"/><circle cx="63.8" cy="30.4" class="st13" r=".3"/><circle cx="65.3" cy="32.3" class="st13" r=".3"/><circle cx="65.8" cy="33.3" class="st14" r=".3"/><circle cx="72.6" cy="34.7" class="st14" r=".3"/><circle cx="74.1" cy="33.8" class="st14" r=".3"/><circle cx="75.8" cy="31.3" class="st14" r=".3"/><circle cx="76.5" cy="28.4" class="st14" r=".3"/><circle cx="65.7" cy="36.4" class="st13" r=".4"/><circle cx="66.7" cy="38.4" class="st14" r=".4"/><circle cx="64.7" cy="34" class="st14" r=".4"/><circle cx="73.5" cy="37.9" class="st14" r=".4"/><circle cx="74" cy="40.8" class="st13" r=".4"/><circle cx="58.4" cy="32.5" class="st13" r=".4"/><circle cx="58.9" cy="33.5" class="st14" r=".4"/><circle cx="60.3" cy="35" class="st13" r=".4"/><circle cx="62.3" cy="36.4" class="st14" r=".4"/><circle cx="68.1" cy="40.8" class="st13" r=".4"/><circle cx="74.5" cy="43.2" class="st14" r=".4"/><circle cx="80.8" cy="43.7" class="st13" r=".4"/><circle cx="81.3" cy="41.3" class="st14" r=".4"/><circle cx="81.8" cy="38.4" class="st13" r=".4"/><circle cx="85.2" cy="40.3" class="st13" r=".4"/><circle cx="84.2" cy="42.8" class="st14" r=".4"/><circle cx="86.2" cy="37.9" class="st14" r=".4"/><circle cx="81.8" cy="35.5" class="st14" r=".4"/><circle cx="81.3" cy="31.6" class="st13" r=".4"/><circle cx="86.2" cy="35" class="st13" r=".4"/><circle cx="85.7" cy="32" class="st14" r=".4"/><circle cx="88.1" cy="37.4" class="st14" r=".4"/><circle cx="87.1" cy="39.3" class="st13" r=".4"/><circle cx="81.3" cy="29.6" class="st14" r=".4"/><circle cx="88.6" cy="32.5" class="st14" r=".4"/><circle cx="85.2" cy="30.1" class="st13" r=".4"/><circle cx="88.6" cy="35" class="st13" r=".4"/><circle cx="87.6" cy="30.6" class="st13" r=".4"/><circle cx="80.8" cy="26.7" class="st13" r=".4"/><circle cx="84.2" cy="27.7" class="st14" r=".4"/><circle cx="64.2" cy="21.3" class="st13" r=".7"/><circle cx="65.2" cy="17.9" class="st14" r=".7"/><circle cx="63.3" cy="24.2" class="st14" r=".7"/><circle cx="62.3" cy="26.7" class="st13" r=".7"/><circle cx="54" cy="27.7" class="st14" r=".7"/><circle cx="55" cy="24.7" class="st13" r=".7"/><circle cx="56.4" cy="21.3" class="st14" r=".7"/><circle cx="56.9" cy="17.9" class="st13" r=".7"/><circle cx="61.3" cy="28.6" class="st14" r=".7"/><circle cx="59.4" cy="30.6" class="st13" r=".7"/><circle cx="50.1" cy="25.2" class="st13" r=".7"/><circle cx="57.4" cy="15" class="st14" r=".7"/><circle cx="65.7" cy="15.5" class="st13" r=".7"/><circle cx="65.7" cy="12.5" class="st14" r=".7"/><circle cx="65.7" cy="9.1" class="st13" r=".7"/><circle cx="52.5" cy="31.1" class="st13" r=".7"/><circle cx="51.6" cy="32.5" class="st14" r=".7"/><circle cx="48.2" cy="29.1" class="st14" r=".7"/><circle cx="51.6" cy="22.3" class="st14" r=".7"/><circle cx="65.2" cy="7.2" class="st14" r=".7"/><circle cx="57.4" cy="13.5" class="st13" r=".7"/><circle cx="73" cy="3.3" class="st13" r=".7"/><circle cx="79.3" cy="3.3" class="st14" r=".7"/><circle cx="86.7" cy="5.7" class="st13" r=".7"/><circle cx="90.1" cy="9.1" class="st13" r=".7"/><circle cx="93" cy="13" class="st14" r=".7"/><circle cx="81.3" cy="12.5" class="st13" r=".7"/><circle cx="74" cy="12.5" class="st14" r=".7"/><circle cx="73.5" cy="6.2" class="st14" r=".7"/><circle cx="74" cy="9.6" class="st13" r=".7"/><circle cx="81.3" cy="9.1" class="st14" r=".7"/><circle cx="80.3" cy="5.7" class="st13" r=".7"/><circle cx="74" cy="16.4" class="st13" r=".7"/><circle cx="81.8" cy="16.9" class="st14" r=".7"/><circle cx="73.5" cy="19.4" class="st14" r=".7"/><circle cx="81.8" cy="20.8" class="st13" r=".7"/><circle cx="88.6" cy="14" class="st14" r=".7"/><circle cx="87.6" cy="11.1" class="st13" r=".7"/><circle cx="87.1" cy="7.7" class="st14" r=".7"/><circle cx="73" cy="22.8" class="st13" r=".7"/><circle cx="80.8" cy="25.7" class="st14" r=".7"/><circle cx="71.5" cy="26.2" class="st14" r=".7"/><circle cx="89.1" cy="17.9" class="st13" r=".7"/><circle cx="89.1" cy="22.3" class="st14" r=".7"/><circle cx="88.1" cy="28.6" class="st13" r=".7"/><circle cx="94" cy="16.4" class="st13" r=".7"/><circle cx="94.9" cy="19.9" class="st14" r=".7"/><circle cx="94.5" cy="23.8" class="st13" r=".7"/><circle cx="93.5" cy="28.6" class="st14" r=".7"/><circle cx="92" cy="32.5" class="st13" r=".7"/><circle cx="90.1" cy="36.4" class="st14" r=".7"/><circle cx="52.5" cy="17.9" class="st14" r=".7"/><circle cx="52" cy="20.3" class="st13" r=".7"/><circle cx="50.1" cy="34.5" class="st13" r=".7"/><circle cx="48.2" cy="36.4" class="st14" r=".7"/><circle cx="46.2" cy="32" class="st13" r=".7"/><circle cx="47.2" cy="37.9" class="st13" r=".7"/><circle cx="43.3" cy="35.5" class="st14" r=".7"/><circle cx="41.3" cy="37.9" class="st13" r=".7"/><circle cx="39.4" cy="39.8" class="st14" r=".7"/><circle cx="37.4" cy="41.3" class="st13" r=".7"/><circle cx="35.5" cy="42.8" class="st14" r=".7"/><circle cx="16" cy="42.3" class="st14" r=".7"/></g></g></switch></svg>