<svg xmlns="http://www.w3.org/2000/svg" id="grid" x="0" y="0" enable-background="new 0 0 445.9 270" version="1.1" viewBox="0 0 545.9 520" xml:space="preserve"><style>.st2{stroke-miterlimit:10}.st2,.st3{fill:none;stroke:#f2f2f2}</style><defs><filter id="sofGlow" width="300%" height="300%" x="-75%" y="-75%"><feMorphology in="SourceAlpha" operator="dilate" radius="38" result="thicken"/><feGaussianBlur in="thicken" result="blurred" stdDeviation="30"/><feFlood flood-color="rgb(255,255,255,0.13)" result="glowColor"/><feComposite in="glowColor" in2="blurred" operator="in" result="softGlow_colored"/><feMerge><feMergeNode in="softGlow_colored"/><feMergeNode in="SourceGraphic"/></feMerge></filter><filter id="sofGlow2" width="300%" height="300%" x="-75%" y="-75%"><feMorphology in="SourceAlpha" operator="dilate" radius="38" result="thicken"/><feGaussianBlur in="thicken" result="blurred" stdDeviation="30"/><feFlood flood-color="rgb(255,255,255,0.13)" result="glowColor"/><feComposite in="glowColor" in2="blurred" operator="in" result="softGlow_colored"/><feMerge><feMergeNode in="softGlow_colored"/><feMergeNode in="SourceGraphic"/></feMerge></filter><filter id="contourGlow" width="300%" height="300%" x="-75%" y="-75%"><feMorphology in="SourceAlpha" operator="dilate" radius="1.2" result="thicken"/><feGaussianBlur in="thicken" result="blurred" stdDeviation="4"/><feFlood flood-color="#FFF" result="glowColor"/><feComposite in="glowColor" in2="blurred" operator="in" result="softGlow_colored"/><feMerge><feMergeNode in="softGlow_colored"/><feMergeNode in="SourceGraphic"/></feMerge></filter><filter id="smallsofGlow" width="300%" height="300%" x="-75%" y="-75%"><feMorphology in="SourceAlpha" operator="dilate" radius="12" result="thicken"/><feGaussianBlur in="thicken" result="blurred" stdDeviation="16"/><feFlood flood-color="rgb(255,255,255,0.2)" result="glowColor"/><feComposite in="glowColor" in2="blurred" operator="in" result="softGlow_colored"/><feMerge><feMergeNode in="softGlow_colored"/><feMergeNode in="SourceGraphic"/></feMerge></filter></defs><switch><g><g id="Layer_2"><path d="M352.1 175.4c4.2-18.6 5.4-37.6 2-57.2-1.5-8.4-3.4-16.5-6.4-24.3M298.8 164c4.8-12.1 7.9-26 8.5-39 .3-6.6.2-13.2-.3-19.8-.3-3.3-.6-6.6-1-9.9-.2-1.7-1-6.1-1.2-7.8M255.1 178.7c10.2-8.4 16.9-20.9 20.3-33.4 4.9-16.5 6.5-30 4.4-46.9M210.9 202.7c45.6-25.9 41.3-91.3 43.4-83.7M181.3 213.8c42.7-25.9 59.3-78 56.9-80.2" class="path st2"/><path d="M267.4 173.5c-2.3-.4-6.3-1.1-8.8-.2-13.2 5-23.9 13.4-36.4 20.9-3.7 2.2-7.3 4.1-11 5.9-1.2.6-33.6 13.2-50.7 16.6-4.9.9-13.9-1-18.8-.7" class="path st2"/><path d="M285.2 167.6c-3.3-.6-9.2-1.3-12.5-1.6-3.2-.3-6.3-.3-9.3.8-6.2 2.3-12.2 5.1-17.8 8.6-5.4 3.4-10.4 7.3-15.6 11-5.3 3.7-10.9 6.8-16.8 9.5-6.4 2.8-12.8 5.6-19.3 8.2-6.4 2.6-12.9 5.2-19.5 7.1-13.4 3.9-27.7 4.8-41.6 4M360.1 190.7c-3.8 3.4-.7.7-5.7 1.6" class="path st2"/><path d="M373.6 152.6c-.3 1-9.5-1.2-17.9-4.4-14.4-5.4-42.3-8.8-49.9-9.8-7.9-1-22.9 2.9-29.6 4.8-2.1.6-19 12.1-20.9 13.2-9.6 5.9-19.3 13.5-29.2 18.1-11 5-30.2 16.8-40.6 21.1-9.5 3.9-26.7 10.8-30.7 10.4" class="path st2"/><path d="M370.9 166.8c-.3 1-8.1 3.2-16.5 0-14.4-5.4-43.1-15.9-50.5-17.6-8.4-1.9-25.2-.3-30.9 3.7-1.8 1.3-20 13.2-21.9 14.3-9.6 5.9-18.8 12-28.8 16.5-11 5-31.1 14.9-41.5 19.2-9.5 3.9-37.1 6.9-41 6.4" class="path st2"/><path d="M307.7 162.9c-3.3-1.6-9-3.5-12.7-4.2-7.7-.9-15-2.5-22.3.6-9.2 3.7-17.4 8.7-26.6 13.4-5.5 3.1-10.4 6.2-15.6 10.3-2.8 1.9-5.5 3.1-8.3 5-8 4.7-16.2 8.1-24.5 11.5-1.8.6-3.4 1.2-5.2 1.6-2.8 1.2-5.8 1.9-8.6 3.1-.9.6-1.8.9-2.8 1.6-17.8 6.9-37 5.6-55.6 5.5M366.5 179.5c-5.4 2.7-5.9 1.4-12 1.3" class="path st2"/><path d="M374.3 139.7c-22.9-9.8-48.1-11.4-73.3-11.4-11 0-20.5 3.1-29.9 9.4-33.1 23.6-65.8 44.3-101 60.2" class="path st2"/><path d="M372.7 127.9c-19-8.7-38.2-14.7-59.5-12.3-29 3.3-54.9 21-77.8 37.8-17.1 12.5-35.6 27.5-54.5 37.2" class="path st2"/><path d="M360.9 105.2c-5.4-2.6-10.4-5.9-16.1-7.9-10.8-3.9-22.5-4.6-33.8-2.8-26.7 4.1-48 19.8-66.5 38.6-14.6 14.8-25.8 33-45 42.1" class="path st2"/><path d="M368.7 117.8c-18.1-8.5-34.9-14.9-55.5-12.6-27.8 3.2-51.5 19.9-72.3 37.6-16.3 13.8-30.4 30-49.7 39.7M348.2 95.3c-6.3-4.8-12.6-7.9-20.5-9.5" class="path st2"/><path d="M329.6 161c3-15.4 3.7-30.7 2.4-46.2-.6-11.2-2.1-18.9-6.8-29.2" class="path st2"/><path d="M253.6 179c-.2 0-1.1.6-2.7 1.5-6.2 3.6-22.1 13-37.1 20.8-6.4 3.3-13.1 6-19.8 8.6-2.9 1.1-6.1 2.2-9.5 3.1-20.2 5.6-48.5 7-66.2-2.9.2.1 1.1.2 2.3.6 1.6.5 1.4.5 2.2.5 2.4 0 5.6-.2 9.3-.7 3.6-.4 7.6-1 11.5-1.8s7.6-1.6 10.7-2.6c2.2-.7 4.1-1.4 5.5-2.1.8-.4 1.6-.8 2.5-1.3 2.2-1.2 4.8-2.8 7.5-4.5.4-.2.7-.5 1.1-.7 2.9-1.9 6.1-4 9.3-6.4 3.1-2.2 6.3-4.7 9.4-7.3 3.1-2.5 6.1-5.2 9.1-8 1.4-1.4 2.8-2.7 4.2-4.1 1.4-1.4 2.7-2.9 4.1-4.4 11.2-12.5 23-25.6 35.2-37.7 5.3-5.2 10.6-10.2 16-14.8 7.3-6.3 14.6-11.9 22-16.5 7.8-4.9 15.6-8.6 23.4-10.8 5.6-1.6 11.2-2.4 16.8-2.2 2.9.1 5.7.4 8.5 1 3.6.8 8.4 2.5 13.5 5.1 5.5 2.8 11.2 6.5 15.8 11 1.5 1.5 2.9 3 4.2 4.7 1.2 1.6 2.3 3.2 3.3 4.9 2.1 3.6 3.6 7.2 4.9 10.5.8 2.2 1.5 4.2 2.1 6 .4 1 .6 2.2.9 3.4.6 2.9.8 6.3.8 9.9v1.2c-.1 3.2-.3 6.6-.8 10-.5 3.9-1.2 7.8-2.1 11.6-.9 3.9-2 7.6-3.3 10.9-1.2 3.1-2.6 6.1-4.3 8.9-1.3 2.2-3 5.1-4.9 8.2s-4 6.4-6 9.4c-3 4.2-6.2 7.4-8.4 8.7-2.8 1.7-7.5 4-10.6 3.7" class="st2"/><g filter="url(#contourGlow)"><path d="M253.6 179c-.2 0-1.1.6-2.7 1.5-6.2 3.6-22.1 13-37.1 20.8-6.4 3.3-13.1 6-19.8 8.6-2.9 1.1-6.1 2.2-9.5 3.1-20.2 5.6-48.5 7-66.2-2.9.2.1 1.1.2 2.3.6 1.6.5 1.4.5 2.2.5 2.4 0 5.6-.2 9.3-.7 3.6-.4 7.6-1 11.5-1.8s7.6-1.6 10.7-2.6c2.2-.7 4.1-1.4 5.5-2.1.8-.4 1.6-.8 2.5-1.3 2.2-1.2 4.8-2.8 7.5-4.5.4-.2.7-.5 1.1-.7 2.9-1.9 6.1-4 9.3-6.4 3.1-2.2 6.3-4.7 9.4-7.3 3.1-2.5 6.1-5.2 9.1-8 1.4-1.4 2.8-2.7 4.2-4.1 1.4-1.4 2.7-2.9 4.1-4.4 11.2-12.5 23-25.6 35.2-37.7 5.3-5.2 10.6-10.2 16-14.8 7.3-6.3 14.6-11.9 22-16.5 7.8-4.9 15.6-8.6 23.4-10.8 5.6-1.6 11.2-2.4 16.8-2.2 2.9.1 5.7.4 8.5 1 3.6.8 8.4 2.5 13.5 5.1 5.5 2.8 11.2 6.5 15.8 11 1.5 1.5 2.9 3 4.2 4.7 1.2 1.6 2.3 3.2 3.3 4.9 2.1 3.6 3.6 7.2 4.9 10.5.8 2.2 1.5 4.2 2.1 6 .4 1 .6 2.2.9 3.4.6 2.9.8 6.3.8 9.9v1.2c-.1 3.2-.3 6.6-.8 10-.5 3.9-1.2 7.8-2.1 11.6-.9 3.9-2 7.6-3.3 10.9-1.2 3.1-2.6 6.1-4.3 8.9-1.3 2.2-3 5.1-4.9 8.2s-4 6.4-6 9.4c-3 4.2-6.2 7.4-8.4 8.7-2.8 1.7-7.5 4-10.6 3.7" class="st2 copy" filter="url(#sofGlow)"/></g><g><path d="M354.5 181.9c-.4-2.5-1.1-4.9-2.1-7-1.1-2.3-2.6-4.3-4.4-5.9-2.1-1.9-4.7-3.4-7.7-4.6-3.3-1.3-7.2-2.1-11.5-2.5-1.9-.2-4-.3-6.2-.3-5.4 0-11.5.5-18.1 1.6-7.5 1.2-15.4 3.1-23.7 5.5-6.3 1.9-12.7 4-17.5 6-2.7 1.1-4.5 2-5.4 2.6-1 .7-3.6 1.8-3.6 1.8s2.4 2.4 3.1 3c.3.3.8.7 1.2 1.1l.8.7c.5.5 1 1 1.7 1.5 1.2 1.1 2.2 2 3.3 3 1.4 1.2 2.5 2.2 4.1 3.5l4.8 3.9c5.7 4.5 11.3 8.2 16.6 11.2 2.7 1.5 5.5 2.9 8.1 4 3.8 1.7 7.7 2.9 11.4 3.9 4.4 1.1 8.7 1.6 12.7 1.6 2.5 0 4.9-.2 7.2-.6 3.6-.6 7-1.7 10-3.2 2.6-1.3 5.1-3 7.3-5 1.5-1.3 2.9-3.1 4.1-5.1 1.1-1.9 2-4.1 2.7-6.4.7-2.3 1.1-4.7 1.3-7.2.3-2.3.2-4.7-.2-7.1z" class="st3"/><g filter="url(#contourGlow)"><path d="M354.5 181.9c-.4-2.5-1.1-4.9-2.1-7-1.1-2.3-2.6-4.3-4.4-5.9-2.1-1.9-4.7-3.4-7.7-4.6-3.3-1.3-7.2-2.1-11.5-2.5-1.9-.2-4-.3-6.2-.3-5.4 0-11.5.5-18.1 1.6-7.5 1.2-15.4 3.1-23.7 5.5-6.3 1.9-12.7 4-17.5 6-2.7 1.1-4.5 2-5.4 2.6-1 .7-3.6 1.8-3.6 1.8s2.4 2.4 3.1 3c.3.3.8.7 1.2 1.1l.8.7c.5.5 1 1 1.7 1.5 1.2 1.1 2.2 2 3.3 3 1.4 1.2 2.5 2.2 4.1 3.5l4.8 3.9c5.7 4.5 11.3 8.2 16.6 11.2 2.7 1.5 5.5 2.9 8.1 4 3.8 1.7 7.7 2.9 11.4 3.9 4.4 1.1 8.7 1.6 12.7 1.6 2.5 0 4.9-.2 7.2-.6 3.6-.6 7-1.7 10-3.2 2.6-1.3 5.1-3 7.3-5 1.5-1.3 2.9-3.1 4.1-5.1 1.1-1.9 2-4.1 2.7-6.4.7-2.3 1.1-4.7 1.3-7.2.3-2.3.2-4.7-.2-7.1z" class="st3 copy" filter="url(#smallsofGlow)"/></g><path d="M308.9 214.4c-1.2-9.6-2.7-19.2-4-28.8M329.4 215.9c7.8-19.7.1-53.6.2-53.6M339.6 212.3c14.5-16.1 3.5-46 1.3-47.5M288.7 206.4c-5.2-8-10.2-16.4-12.5-25.7" class="path st2"/><path d="M314 171.6c6.6-.4 13.3-.7 20-.5 6.1.2 12.9.6 18.3 3.6M253.6 179c6.3-1.5 12.4-1.8 18.6-2.9M258.6 183.4c31.7 4.2 64.1 7.3 96.1 4.9M262.2 186.6c29.1 10.9 60.9 15.8 91.6 9.5M267.4 191.4c24.9 13.8 55.8 24.3 83.2 11.1M312.9 177.1c12.4-.8 25 .1 37.8 2.6 1.5.3 2.8 1.2 4 2M256.4 180.4c6.4-.4 11-.6 17.4-1.1" class="path st2"/></g><g><path d="M266.5 173.7c3.1 2.8 9.1 7.2 16 9.9 7 2.8 14.6 4.1 18.8 3.1 8.6-2.1 14.5-8.8 13.2-23.8" class="st2"/><path d="M266.5 173.7c3.1 2.8 9.1 7.2 16 9.9 7 2.8 14.6 4.1 18.8 3.1 8.6-2.1 14.5-8.8 13.2-23.8" class="st2 copy"/><path d="M298.3 187c2.7-6.9 1.2-20.5.8-22.3M293.2 186.7c-.5-9.9-2.6-17.5-3.2-19.9M302.5 186.5c3.6-6.6 5-20.6 4.4-23M282.5 183.7c-4.4-6-8.2-10.1-9.3-12.5M306.3 184.9c4.9-5.8 6.2-20.2 5.6-22.6" class="path st2"/><path d="M312 179.1c.3-.1-4.5 4.6-14.9 5-6.3.2-14.7-1-25.5-6.5" class="path st2"/><path d="M313.4 175.9c.3-.1-4.7 3.2-15.1 3.6-6.3.2-19.1 1.2-28-2.7M314.2 172c.3-.1-5 1.1-15.4 2.1-6.2.6-21.9 3.8-30.3 1.2M314.7 167.1c.3-.1-5.1.6-15.1 2.1-6.2.9-25.1 5.4-32.7 4.8" class="path st2"/></g><g><path d="M97.5 118.8c-4.2 18.6-5.4 37.6-2 57.2 1.5 8.4 3.4 16.5 6.4 24.3M150.7 130.2c-4.8 12.1-7.9 26-8.5 39-.3 6.6-.2 13.2.3 19.8.3 3.3.6 6.6 1 9.9.2 1.7 1 6.1 1.2 7.8M194.4 115.6c-10.2 8.4-16.9 20.9-20.3 33.4-4.9 16.5-6.5 30-4.4 46.9M238.6 91.6c-45.6 25.9-41.3 91.3-43.4 83.7M268.2 80.4c-42.7 25.9-59.3 78-56.9 80.2" class="path st2"/><path d="M182.1 120.7c2.3.4 6.3 1.1 8.8.2 13.2-5 23.9-13.4 36.4-20.9 3.7-2.2 7.3-4.1 11-5.9 1.2-.6 33.6-13.2 50.7-16.6 4.9-.9 13.9 1 18.8.7" class="path st2"/><path d="M164.3 126.6c3.3.6 9.2 1.3 12.5 1.6 3.2.3 6.3.3 9.3-.8 6.2-2.3 12.2-5.1 17.8-8.6 5.4-3.4 10.4-7.3 15.6-11 5.3-3.7 10.9-6.8 16.8-9.5 6.4-2.8 12.8-5.6 19.3-8.2 6.4-2.6 12.9-5.2 19.5-7.1 13.4-3.9 27.7-4.8 41.6-4M89.4 103.6c3.8-3.4.7-.7 5.7-1.6" class="path st2"/><path d="M75.9 141.7c.3-1 9.5 1.2 17.9 4.4 14.4 5.4 42.3 8.8 49.9 9.8 7.9 1 22.9-2.9 29.6-4.8 2.1-.6 19-12.1 20.9-13.2 9.6-5.9 19.3-13.5 29.2-18.1 11-5 30.2-16.8 40.6-21.1 9.5-3.9 26.7-10.8 30.7-10.4" class="path st2"/><path d="M78.6 127.5c.3-1 8.1-3.2 16.5 0 14.4 5.4 43.1 15.9 50.5 17.6 8.4 1.9 25.2.3 30.9-3.7 1.8-1.3 20-13.2 21.9-14.3 9.6-5.9 18.8-12 28.8-16.5 11-5 31.1-14.9 41.5-19.2 9.5-3.9 37.1-6.9 41-6.4" class="path st2"/><path d="M141.8 131.4c3.3 1.6 9 3.5 12.7 4.2 7.7.9 15 2.5 22.3-.6 9.2-3.7 17.4-8.7 26.6-13.4 5.5-3.1 10.4-6.2 15.6-10.3 2.8-1.9 5.5-3.1 8.3-5 8-4.7 16.2-8.1 24.5-11.5 1.8-.6 3.4-1.2 5.2-1.6 2.8-1.2 5.8-1.9 8.6-3.1.9-.6 1.8-.9 2.8-1.6 17.8-6.9 37-5.6 55.6-5.5M83.1 114.7c5.4-2.7 5.9-1.4 12-1.3" class="path st2"/><path d="M75.2 154.5c22.9 9.8 48.1 11.4 73.3 11.4 11 0 20.5-3.1 29.9-9.4 33.1-23.6 65.8-44.3 101-60.2" class="path st2"/><path d="M76.8 166.3c19 8.7 38.2 14.7 59.5 12.3 29-3.3 54.9-21 77.8-37.8 17.1-12.5 35.6-27.5 54.5-37.2" class="path st2"/><path d="M88.6 189.1c5.4 2.6 10.4 5.9 16.1 7.9 10.8 3.9 22.5 4.6 33.8 2.8 26.7-4.1 48-19.8 66.5-38.6 14.6-14.8 25.8-33 45-42.1" class="path st2"/><path d="M80.9 176.4c18.1 8.5 34.9 14.9 55.5 12.6 27.8-3.2 51.5-19.9 72.3-37.6 16.3-13.8 30.4-30 49.7-39.7M101.3 198.9c6.3 4.8 12.6 7.9 20.5 9.5" class="path st2"/><path d="M119.9 133.2c-3 15.4-3.7 30.7-2.4 46.2.6 11.2 2.1 18.9 6.8 29.2" class="path st2"/><path d="M195.9 115.3c.2 0 1.1-.6 2.7-1.5 6.2-3.6 22.1-13 37.1-20.8 6.4-3.3 13.1-6 19.8-8.6 2.9-1.1 6.1-2.2 9.5-3.1 20.2-5.6 48.5-7 66.2 2.9-.2-.1-1.1-.2-2.3-.6-1.6-.5-1.4-.5-2.2-.5-2.4 0-5.6.2-9.3.7-3.6.4-7.6 1-11.5 1.8-3.9.7-7.6 1.6-10.7 2.6-2.2.7-4.1 1.4-5.5 2.1-.8.4-1.6.8-2.5 1.3-2.2 1.2-4.8 2.8-7.5 4.5-.4.2-.7.5-1.1.7-2.9 1.9-6.1 4-9.3 6.4-3.1 2.2-6.3 4.7-9.4 7.3-3.1 2.5-6.1 5.2-9.1 8-1.4 1.4-2.8 2.7-4.2 4.1-1.4 1.4-2.7 2.9-4.1 4.4-11.2 12.5-23 25.6-35.2 37.7-5.3 5.2-10.6 10.2-16 14.8-7.3 6.3-14.6 11.9-22 16.5-7.8 4.9-15.6 8.6-23.4 10.8-5.6 1.6-11.2 2.4-16.8 2.2-2.9-.1-5.7-.4-8.5-1-3.6-.8-8.4-2.5-13.5-5.1-5.5-2.8-11.2-6.5-15.8-11-1.5-1.5-2.9-3-4.2-4.7-1.2-1.6-2.3-3.2-3.3-4.9-2.1-3.6-3.6-7.2-4.9-10.5-.8-2.2-1.5-4.2-2.1-6-.4-1-.6-2.2-.9-3.4-.6-2.9-.8-6.3-.8-9.9v-1.2c.1-3.2.3-6.6.8-10 .5-3.9 1.2-7.8 2.1-11.6.9-3.9 2-7.6 3.3-10.9 1.2-3.1 2.6-6.1 4.3-8.9 1.3-2.2 3-5.1 4.9-8.2 1.9-3.1 4-6.4 6-9.4 3-4.2 6.2-7.4 8.4-8.7 2.8-1.7 7.5-4 10.6-3.7" class="st2"/><g filter="url(#contourGlow)"><path d="M195.9 115.3c.2 0 1.1-.6 2.7-1.5 6.2-3.6 22.1-13 37.1-20.8 6.4-3.3 13.1-6 19.8-8.6 2.9-1.1 6.1-2.2 9.5-3.1 20.2-5.6 48.5-7 66.2 2.9-.2-.1-1.1-.2-2.3-.6-1.6-.5-1.4-.5-2.2-.5-2.4 0-5.6.2-9.3.7-3.6.4-7.6 1-11.5 1.8-3.9.7-7.6 1.6-10.7 2.6-2.2.7-4.1 1.4-5.5 2.1-.8.4-1.6.8-2.5 1.3-2.2 1.2-4.8 2.8-7.5 4.5-.4.2-.7.5-1.1.7-2.9 1.9-6.1 4-9.3 6.4-3.1 2.2-6.3 4.7-9.4 7.3-3.1 2.5-6.1 5.2-9.1 8-1.4 1.4-2.8 2.7-4.2 4.1-1.4 1.4-2.7 2.9-4.1 4.4-11.2 12.5-23 25.6-35.2 37.7-5.3 5.2-10.6 10.2-16 14.8-7.3 6.3-14.6 11.9-22 16.5-7.8 4.9-15.6 8.6-23.4 10.8-5.6 1.6-11.2 2.4-16.8 2.2-2.9-.1-5.7-.4-8.5-1-3.6-.8-8.4-2.5-13.5-5.1-5.5-2.8-11.2-6.5-15.8-11-1.5-1.5-2.9-3-4.2-4.7-1.2-1.6-2.3-3.2-3.3-4.9-2.1-3.6-3.6-7.2-4.9-10.5-.8-2.2-1.5-4.2-2.1-6-.4-1-.6-2.2-.9-3.4-.6-2.9-.8-6.3-.8-9.9v-1.2c.1-3.2.3-6.6.8-10 .5-3.9 1.2-7.8 2.1-11.6.9-3.9 2-7.6 3.3-10.9 1.2-3.1 2.6-6.1 4.3-8.9 1.3-2.2 3-5.1 4.9-8.2 1.9-3.1 4-6.4 6-9.4 3-4.2 6.2-7.4 8.4-8.7 2.8-1.7 7.5-4 10.6-3.7" class="st2 copy" filter="url(#sofGlow2)"/></g></g><g><path d="M95 112.3c.4 2.5 1.1 4.9 2.1 7 1.1 2.3 2.6 4.3 4.4 5.9 2.1 1.9 4.7 3.4 7.7 4.6 3.3 1.3 7.2 2.1 11.5 2.5 1.9.2 4 .3 6.2.3 5.4 0 11.5-.5 18.1-1.6 7.5-1.2 15.4-3.1 23.7-5.5 6.3-1.9 12.7-4 17.5-6 2.7-1.1 4.5-2 5.4-2.6 1-.7 4.4-2.1 4.4-2.1s-3.2-2.2-3.8-2.7c-.3-.3-.8-.7-1.2-1.1l-.8-.7c-.5-.5-1-1-1.7-1.5-1.2-1.1-2.2-2-3.3-3-1.4-1.2-2.5-2.2-4.1-3.5l-4.8-3.9C170.6 93.8 165 90 159.7 87c-2.7-1.5-5.5-2.9-8.1-4-3.8-1.7-7.7-2.9-11.4-3.9-4.4-1.1-8.7-1.6-12.7-1.6-2.5 0-4.9.2-7.2.6-3.6.6-7 1.7-10 3.2-2.6 1.3-5.1 3-7.3 5-1.5 1.3-2.9 3.1-4.1 5.1-1.1 1.9-2 4.1-2.7 6.4-.7 2.3-1.1 4.7-1.3 7.2-.4 2.5-.3 5 .1 7.3z" class="st3"/><g filter="url(#contourGlow)"><path d="M95 112.3c.4 2.5 1.1 4.9 2.1 7 1.1 2.3 2.6 4.3 4.4 5.9 2.1 1.9 4.7 3.4 7.7 4.6 3.3 1.3 7.2 2.1 11.5 2.5 1.9.2 4 .3 6.2.3 5.4 0 11.5-.5 18.1-1.6 7.5-1.2 15.4-3.1 23.7-5.5 6.3-1.9 12.7-4 17.5-6 2.7-1.1 4.5-2 5.4-2.6 1-.7 4.4-2.1 4.4-2.1s-3.2-2.2-3.8-2.7c-.3-.3-.8-.7-1.2-1.1l-.8-.7c-.5-.5-1-1-1.7-1.5-1.2-1.1-2.2-2-3.3-3-1.4-1.2-2.5-2.2-4.1-3.5l-4.8-3.9C170.6 93.8 165 90 159.7 87c-2.7-1.5-5.5-2.9-8.1-4-3.8-1.7-7.7-2.9-11.4-3.9-4.4-1.1-8.7-1.6-12.7-1.6-2.5 0-4.9.2-7.2.6-3.6.6-7 1.7-10 3.2-2.6 1.3-5.1 3-7.3 5-1.5 1.3-2.9 3.1-4.1 5.1-1.1 1.9-2 4.1-2.7 6.4-.7 2.3-1.1 4.7-1.3 7.2-.4 2.5-.3 5 .1 7.3z" class="st3 copy" filter="url(#smallsofGlow)"/></g><path d="M140.6 79.9c1.2 9.6 2.7 19.2 4 28.8M120.1 78.3c-7.8 19.7-.1 53.6-.2 53.6M109.9 82c-14.5 16.1-3.5 46-1.3 47.5M160.8 87.8c5.2 8 10.2 16.4 12.5 25.7" class="path st2"/><path d="M135.5 122.6c-6.6.4-13.3.7-20 .5-6.1-.2-12.9-.6-18.3-3.6M196 115.2c-6.3 1.5-12.4 1.8-18.6 2.9M190.9 110.9c-31.7-4.2-64.1-7.3-96.1-4.9M187.3 107.7c-29.1-10.9-60.9-15.8-91.6-9.5M182.1 102.9c-24.9-13.8-55.8-24.3-83.2-11.1M136.6 117.1c-12.4.8-25-.1-37.8-2.6-1.5-.3-2.8-1.2-4-2M193.1 113.9c-6.4.4-11 .6-17.4 1.1" class="path st2"/></g><g><path d="M183 120.5c-3.1-2.8-9.1-7.2-16-9.9-7-2.8-14.6-4.1-18.8-3.1-8.6 2.1-14.5 8.8-13.2 23.8" class="st2"/><path d="M183 120.5c-3.1-2.8-9.1-7.2-16-9.9-7-2.8-14.6-4.1-18.8-3.1-8.6 2.1-14.5 8.8-13.2 23.8" class="st2 copy"/><path d="M151.2 107.3c-2.7 6.9-1.2 20.5-.8 22.3M156.3 107.5c.5 9.9 2.6 17.5 3.2 19.9M147 107.8c-3.6 6.6-5 20.6-4.4 23M167 110.6c4.4 6 8.2 10.1 9.3 12.5M143.3 109.3c-4.9 5.8-6.2 20.2-5.6 22.6" class="path st2"/><path d="M137.5 115.1c-.3.1 4.5-4.6 14.9-5 6.3-.2 14.7 1 25.5 6.5" class="path st2"/><path d="M136.1 118.3c-.3.1 4.7-3.2 15.1-3.6 6.3-.2 19.1-1.2 28 2.7M135.3 122.2c-.3.1 5-1.1 15.4-2.1 6.2-.6 21.9-3.8 30.3-1.2M134.8 127.1c-.3.1 5.1-.6 15.1-2.1 6.2-.9 25.1-5.4 32.7-4.8" class="path st2"/></g></g></g></switch></svg>