<svg xmlns="http://www.w3.org/2000/svg" viewBox="0 0 125.2 26.3"><g stroke-width=".5"><path fill="#FFF" stroke="#FFF" d="M1.4 13.8c-.5-.2-.7-.6-.5-1.1L5.1 1.6c.2-.5.6-.7 1.1-.5l4.5 1.7c1.6.6 2.7 1.5 3.2 2.5s.4 2.4-.2 4l-1.2 3.2c-.6 1.6-1.5 2.7-2.5 3.2-1.1.5-2.4.4-4-.2l-4.6-1.7zm1.4-1.3L6.5 14c.8.3 1.5.4 2 .4s1-.2 1.4-.6c.4-.4.7-1 1-1.8l1.2-3.2c.3-.8.4-1.5.4-2s-.2-1-.6-1.4-1-.7-1.8-1L6.4 3l-3.6 9.5zM15.6 18.8c-.5-.2-.7-.5-.6-1l3.2-11.4c.2-.5.5-.7 1-.6l6.9 1.9c.5.2.7.5.6 1s-.5.7-1 .6l-6.1-1.7-1.1 4 3.8 1.1c.5.2.7.5.6 1-.2.5-.5.7-1 .6l-3.9-1-1.2 4.2 6.1 1.7c.5.2.7.5.6 1-.2.5-.5.7-1 .6l-6.9-2zM27.8 22c-.5-.1-.8-.4-.7-1l2.3-11.7c.1-.5.4-.8 1-.7l7 1.4c.5.1.8.4.7 1-.1.5-.4.8-1 .7l-6.2-1.2-.8 4.1 3.9.8c.5.1.8.4.7 1s-.4.8-1 .7l-3.9-.8-.8 4.2 6.2 1.2c.5.1.8.4.7 1-.1.5-.4.8-1 .7L27.8 22zM40.2 24.2c-.6-.1-.8-.4-.7-.9l1.3-11.8c.1-.6.4-.8.9-.7l4.7.5c1.2.1 2.1.6 2.7 1.3.6.7.8 1.7.7 2.9l-.2.5c-.1 1.2-.6 2.1-1.3 2.7-.7.6-1.7.8-2.9.7l-3.8-.4-.5 4.5c-.1.5-.4.7-.9.7zm1.6-7l3.8.4c.8.1 1.3 0 1.7-.3s.6-.8.7-1.6l.1-.6c.1-.7 0-1.3-.3-1.7s-.8-.6-1.6-.7l-3.8-.4-.6 4.9z"/><path fill="#0E7F37" stroke="#0E7F37" d="M59.6 25.6c-.6 0-.8-.3-.9-.8l-.2-11.9c0-.6.3-.8.8-.9.3 0 .6.2.8.5l8.2 10.2h-.4l-.2-10c0-.6.3-.8.8-.9.6 0 .8.3.9.8l.2 11.9c0 .6-.3.8-.8.9-.3 0-.6-.2-.8-.5l-8.2-10.2h.4l.2 10c0 .6-.3.9-.8.9z"/><path fill="#FFF" stroke="#FFF" d="M78.5 24.6c-1.5.2-2.7-.1-3.5-.7s-1.3-1.7-1.5-3.2l-.5-4.6c-.2-1.5.1-2.7.7-3.5.6-.8 1.7-1.3 3.2-1.5l2.4-.3c1.5-.2 2.7 0 3.5.7s1.3 1.7 1.5 3.2l.5 4.6c.2 1.5-.1 2.7-.7 3.5-.6.8-1.7 1.3-3.2 1.5l-2.4.3zm-.2-1.7l2.4-.3c.7-.1 1.3-.2 1.6-.4.4-.2.6-.5.8-1s.1-1 .1-1.7l-.6-4.5c-.1-.7-.2-1.2-.4-1.6-.2-.4-.5-.6-1-.8-.4-.1-1-.1-1.7-.1l-2.4.3c-.7.1-1.2.2-1.6.4-.4.2-.6.5-.8 1-.1.4-.1 1-.1 1.7l.5 4.6c.1.7.2 1.3.4 1.6.2.4.5.6 1 .8.5.1 1.1.1 1.8 0zM90.4 22.9c-.5.1-.9-.1-1-.7L87 10.6c-.1-.5.1-.9.7-1l7-1.5c.5-.1.9.1 1 .6.1.5-.1.9-.7 1L88.8 11l.9 4.1 3.9-.8c.5-.1.9.1 1 .7.1.5-.1.9-.6 1l-4 .8.9 4.2 6.2-1.3c.5-.1.9.1 1 .7.1.5-.1.9-.7 1l-7 1.5zM105.1 19.3c-1.1.3-2 .4-2.8.1-.7-.3-1.3-.8-1.8-1.7-.1-.3-.1-.5 0-.7s.3-.3.5-.4c.3-.1.5-.1.6 0 .2.1.3.3.4.5.2.4.5.7.9.7s.9 0 1.5-.2l2.8-.8c.8-.2 1.3-.6 1.5-1 .2-.4.2-1-.1-1.8-.2-.8-.6-1.3-1-1.6-.4-.2-1-.2-1.8 0l-2.4.7c-1.2.4-2.2.3-3-.1-.8-.4-1.3-1.2-1.7-2.4-.4-1.2-.3-2.2.1-2.9.4-.8 1.2-1.3 2.4-1.7l2.3-.7c1-.3 1.9-.3 2.6-.1.7.2 1.3.8 1.7 1.6.1.3.1.5 0 .7-.1.2-.3.3-.6.4-.3.1-.5.1-.6 0-.2-.1-.3-.3-.4-.5-.2-.3-.5-.5-.8-.6-.3-.1-.8 0-1.4.2l-2.3.7c-.8.2-1.2.5-1.4.9s-.2.9.1 1.6c.2.8.5 1.2.9 1.4.4.2.9.2 1.7 0l2.4-.7c1.3-.4 2.3-.4 3.1.1.8.4 1.4 1.3 1.8 2.6.4 1.3.4 2.3-.1 3.1s-1.3 1.4-2.5 1.8l-2.6.8zM114.7 16.2c-.6 0-.9-.3-.9-.8l.1-12.6c0-.5.2-.8.6-1h0c.4-.1.8 0 1.1.3l8.9 9.1c.4.4.4.8 0 1.2-.4.4-.8.4-1.2 0l-2-2-5.8 2.3v2.8c0 .4-.3.7-.8.7zm.8-5.5l4.5-1.8-4.6-4.7.1 6.5z"/></g></svg>