<?xml version="1.0" encoding="utf-8"?>
<!-- Generator: Adobe Illustrator 17.1.0, SVG Export Plug-In . SVG Version: 6.00 Build 0)  -->
<!DOCTYPE svg PUBLIC "-//W3C//DTD SVG 1.1//EN" "http://www.w3.org/Graphics/SVG/1.1/DTD/svg11.dtd">
<svg version="1.1" xmlns="http://www.w3.org/2000/svg" xmlns:xlink="http://www.w3.org/1999/xlink" x="0px" y="0px"
	 viewBox="0 0 125.2 26.3" enable-background="new 0 0 125.2 26.3" xml:space="preserve">
<g id="Layer_2">
</g>
<g id="Layer_1">
	<g>
		<path stroke="#FFFFFF" stroke-width="0.5" fill="#FFFFFF" d="M1.4,13.8c-0.5-0.2-0.7-0.6-0.5-1.1L5.1,1.6c0.2-0.5,0.6-0.7,1.1-0.5l4.5,1.7c1.6,0.6,2.7,1.5,3.2,2.5
			s0.4,2.4-0.2,4l-1.2,3.2c-0.6,1.6-1.5,2.7-2.5,3.2c-1.1,0.5-2.4,0.4-4-0.2L1.4,13.8z M2.8,12.5L6.5,14c0.8,0.3,1.5,0.4,2,0.4
			c0.5,0,1-0.2,1.4-0.6c0.4-0.4,0.7-1,1-1.8l1.2-3.2c0.3-0.8,0.4-1.5,0.4-2s-0.2-1-0.6-1.4s-1-0.7-1.8-1L6.4,3L2.8,12.5z"/>
		<path stroke="#FFFFFF" stroke-width="0.5" fill="#FFFFFF" d="M15.6,18.8c-0.5-0.2-0.7-0.5-0.6-1l3.2-11.4c0.2-0.5,0.5-0.7,1-0.6l6.9,1.9c0.5,0.2,0.7,0.5,0.6,1
			s-0.5,0.7-1,0.6l-6.1-1.7l-1.1,4l3.8,1.1c0.5,0.2,0.7,0.5,0.6,1c-0.2,0.5-0.5,0.7-1,0.6L18,13.3l-1.2,4.2l6.1,1.7
			c0.5,0.2,0.7,0.5,0.6,1c-0.2,0.5-0.5,0.7-1,0.6L15.6,18.8z"/>
		<path stroke="#FFFFFF" stroke-width="0.5" fill="#FFFFFF" d="M27.8,22c-0.5-0.1-0.8-0.4-0.7-1l2.3-11.7c0.1-0.5,0.4-0.8,1-0.7l7,1.4c0.5,0.1,0.8,0.4,0.7,1
			c-0.1,0.5-0.4,0.8-1,0.7l-6.2-1.2l-0.8,4.1l3.9,0.8c0.5,0.1,0.8,0.4,0.7,1s-0.4,0.8-1,0.7l-3.9-0.8l-0.8,4.2l6.2,1.2
			c0.5,0.1,0.8,0.4,0.7,1c-0.1,0.5-0.4,0.8-1,0.7L27.8,22z"/>
		<path stroke="#FFFFFF" stroke-width="0.5" fill="#FFFFFF" d="M40.2,24.2c-0.6-0.1-0.8-0.4-0.7-0.9l1.3-11.8c0.1-0.6,0.4-0.8,0.9-0.7l4.7,0.5c1.2,0.1,2.1,0.6,2.7,1.3
			c0.6,0.7,0.8,1.7,0.7,2.9L49.6,16c-0.1,1.2-0.6,2.1-1.3,2.7c-0.7,0.6-1.7,0.8-2.9,0.7l-3.8-0.4l-0.5,4.5
			C41,24,40.7,24.2,40.2,24.2z M41.8,17.2l3.8,0.4c0.8,0.1,1.3,0,1.7-0.3s0.6-0.8,0.7-1.6l0.1-0.6c0.1-0.7,0-1.3-0.3-1.7
			s-0.8-0.6-1.6-0.7l-3.8-0.4L41.8,17.2z"/>
		<path stroke="#0E7F37" stroke-width="0.5" fill="#0E7F37" d="M59.6,25.6c-0.6,0-0.8-0.3-0.9-0.8l-0.2-11.9c0-0.6,0.3-0.8,0.8-0.9c0.3,0,0.6,0.2,0.8,0.5l8.2,10.2
			l-0.4,0l-0.2-10c0-0.6,0.3-0.8,0.8-0.9c0.6,0,0.8,0.3,0.9,0.8l0.2,11.9c0,0.6-0.3,0.8-0.8,0.9c-0.3,0-0.6-0.2-0.8-0.5l-8.2-10.2
			l0.4,0l0.2,10C60.4,25.3,60.1,25.6,59.6,25.6z"/>
		<path stroke="#FFFFFF" stroke-width="0.5" fill="#FFFFFF" d="M78.5,24.6c-1.5,0.2-2.7-0.1-3.5-0.7s-1.3-1.7-1.5-3.2L73,16.1c-0.2-1.5,0.1-2.7,0.7-3.5
			c0.6-0.8,1.7-1.3,3.2-1.5l2.4-0.3c1.5-0.2,2.7,0,3.5,0.7s1.3,1.7,1.5,3.2l0.5,4.6c0.2,1.5-0.1,2.7-0.7,3.5
			c-0.6,0.8-1.7,1.3-3.2,1.5L78.5,24.6z M78.3,22.9l2.4-0.3c0.7-0.1,1.3-0.2,1.6-0.4c0.4-0.2,0.6-0.5,0.8-1s0.1-1,0.1-1.7L82.6,15
			c-0.1-0.7-0.2-1.2-0.4-1.6c-0.2-0.4-0.5-0.6-1-0.8c-0.4-0.1-1-0.1-1.7-0.1l-2.4,0.3c-0.7,0.1-1.2,0.2-1.6,0.4
			c-0.4,0.2-0.6,0.5-0.8,1c-0.1,0.4-0.1,1-0.1,1.7l0.5,4.6c0.1,0.7,0.2,1.3,0.4,1.6c0.2,0.4,0.5,0.6,1,0.8C77,23,77.6,23,78.3,22.9z
			"/>
		<path stroke="#FFFFFF" stroke-width="0.5" fill="#FFFFFF" d="M90.4,22.9c-0.5,0.1-0.9-0.1-1-0.7L87,10.6c-0.1-0.5,0.1-0.9,0.7-1l7-1.5c0.5-0.1,0.9,0.1,1,0.6
			c0.1,0.5-0.1,0.9-0.7,1l-6.2,1.3l0.9,4.1l3.9-0.8c0.5-0.1,0.9,0.1,1,0.7c0.1,0.5-0.1,0.9-0.6,1L90,16.8l0.9,4.2l6.2-1.3
			c0.5-0.1,0.9,0.1,1,0.7c0.1,0.5-0.1,0.9-0.7,1L90.4,22.9z"/>
		<path stroke="#FFFFFF" stroke-width="0.5" fill="#FFFFFF" d="M105.1,19.3c-1.1,0.3-2,0.4-2.8,0.1c-0.7-0.3-1.3-0.8-1.8-1.7c-0.1-0.3-0.1-0.5,0-0.7s0.3-0.3,0.5-0.4
			c0.3-0.1,0.5-0.1,0.6,0c0.2,0.1,0.3,0.3,0.4,0.5c0.2,0.4,0.5,0.7,0.9,0.7s0.9,0,1.5-0.2l2.8-0.8c0.8-0.2,1.3-0.6,1.5-1
			c0.2-0.4,0.2-1-0.1-1.8c-0.2-0.8-0.6-1.3-1-1.6c-0.4-0.2-1-0.2-1.8,0l-2.4,0.7c-1.2,0.4-2.2,0.3-3-0.1c-0.8-0.4-1.3-1.2-1.7-2.4
			c-0.4-1.2-0.3-2.2,0.1-2.9c0.4-0.8,1.2-1.3,2.4-1.7l2.3-0.7c1-0.3,1.9-0.3,2.6-0.1c0.7,0.2,1.3,0.8,1.7,1.6c0.1,0.3,0.1,0.5,0,0.7
			c-0.1,0.2-0.3,0.3-0.6,0.4c-0.3,0.1-0.5,0.1-0.6,0c-0.2-0.1-0.3-0.3-0.4-0.5c-0.2-0.3-0.5-0.5-0.8-0.6c-0.3-0.1-0.8,0-1.4,0.2
			l-2.3,0.7c-0.8,0.2-1.2,0.5-1.4,0.9s-0.2,0.9,0.1,1.6c0.2,0.8,0.5,1.2,0.9,1.4c0.4,0.2,0.9,0.2,1.7,0l2.4-0.7
			c1.3-0.4,2.3-0.4,3.1,0.1c0.8,0.4,1.4,1.3,1.8,2.6c0.4,1.3,0.4,2.3-0.1,3.1s-1.3,1.4-2.5,1.8L105.1,19.3z"/>
		<path stroke="#FFFFFF" stroke-width="0.5" fill="#FFFFFF" d="M114.7,16.2c-0.6,0-0.9-0.3-0.9-0.8l0.1-12.6c0-0.5,0.2-0.8,0.6-1l0,0c0.4-0.1,0.8,0,1.1,0.3l8.9,9.1
			c0.4,0.4,0.4,0.8,0,1.2c-0.4,0.4-0.8,0.4-1.2,0l-2-2l-5.8,2.3l0,2.8C115.5,15.9,115.2,16.2,114.7,16.2z M115.5,10.7l4.5-1.8
			l-4.6-4.7L115.5,10.7z"/>
	</g>
</g>
</svg>
