<svg xmlns="http://www.w3.org/2000/svg" xmlns:xlink="http://www.w3.org/1999/xlink" filter="grayscale(1)" viewBox="101.4 -143.7 995.8 2331.7"><switch><g><linearGradient id="a" x1="672.803" x2="672.803" y1="-136.927" y2="308.523" gradientTransform="matrix(1.079 0 0 -1.079 102.042 604.239)" gradientUnits="userSpaceOnUse"><stop offset="0" stop-color="#bb469f"/><stop offset="1" stop-color="#a03891"/></linearGradient><path fill="url(#a)" d="M727 271.3h279.3s73.3 350.6 29.1 400.7c-20.1 22.8 13.4 56.7-101 78.5-49.9 9.5-236.1-26.3-319.9-118.4C569.6 582.8 727 271.3 727 271.3z"/><defs><path id="b" d="M101.4-5.6h995.8v560.1H101.4z"/></defs><clipPath id="c"><use overflow="visible" xlink:href="#b"/></clipPath><path fill="#231F20" stroke="#231F20" stroke-miterlimit="10" d="M848.8 347.6s-11.4 19.1-13.2 34.1c-1.4 12-3.3 27.7 7 41.4 10.5 13.7 25.6 28.1 36.4 38.8s15.6 21.9 15.6 37.8c0 15.9-30.4.9-39.1 6.7-8.6 5.7-136.3-8.4-136.3-8.4l-8.6-143.2 138.2-7.2zm265.6 221.9c0-.3-157.4-14.7-157.3-15 1.3-17.8 2.1-71.3-2.3-88.6-32.9-133.9 30.9-248.2 139.1-305.8" clip-path="url(#c)" opacity=".38"/><defs><path id="d" d="M101.4-5.6h995.8v560.1H101.4z"/></defs><clipPath id="e"><use overflow="visible" xlink:href="#d"/></clipPath><linearGradient id="f" x1="549.143" x2="740.744" y1="213.318" y2="102.698" gradientTransform="matrix(1.079 0 0 -1.079 102.042 604.239)" gradientUnits="userSpaceOnUse"><stop offset=".199" stop-color="#b24498"/><stop offset=".689" stop-color="#782879"/><stop offset="1" stop-color="#5c2567"/></linearGradient><path fill="url(#f)" d="M843.8 347.6s-11.4 19.1-13.2 34.1c-1.4 12-3.3 27.7 7 41.4 10.5 13.7 25.6 28.1 36.4 38.8s21.8 16.6 21.8 32.5c0 15.9-3.3 12.2-12 17.9-8.6 5.7-169.5-14.4-169.5-14.4l-8.6-143.2 138.1-7.1z" clip-path="url(#e)"/><defs><path id="g" d="M679.2 418.9l62.9 18.7c9.6-27.8 47.6-62.6 95.9-79.2 39.2-13.3 90-23.8 125.5-41.1.3-.1 16.2-43.2 16.4-43.4"/></defs><clipPath id="h"><use overflow="visible" xlink:href="#g"/></clipPath><path fill="#231F20" stroke="#231F20" stroke-miterlimit="10" d="M738.8 443.7s18.1-33.4 35.3-47.5c17.4-14.2 47.5-34.5 73.4-40.2 25.9-5.7 49.6-14.4 70.5-20.2 20.8-5.7 62.6-26.7 62.6-26.7s116.9-92.8 116.9-100.7V2.8H717.2l-4.3 440.9h25.9z" clip-path="url(#h)" opacity=".38"/><defs><path id="i" d="M303.6-88.6s88.3 368.9 200.6 485.9C602.9 500.1 738 435.9 738 435.8c10-30.1 49.5-67.7 99.8-85.6 40.7-14.5 93.7-25.9 130.5-44.6.3-.1 385.4-425.5 385.7-425.7"/></defs><clipPath id="j"><use overflow="visible" xlink:href="#i"/></clipPath><path fill="#C859A0" d="M738.8 435.4s17.3-34.5 35.3-47.5 47.5-34.5 73.4-40.2c25.9-5.7 49.6-14.4 70.5-20.2 20.8-5.7 62.6-26.7 62.6-26.7s116.9-92.8 116.9-100.7c0 0 6.5-154.7 0-205.7-4.1-32-85.8-48.4-114.3-49.9-66.4-3.3-233.5 28-275.4 81-68.3 86.5 5.2 409.7 5.2 409.7h25.8z" clip-path="url(#j)"/><path fill="#231F20" stroke="#231F20" stroke-miterlimit="10" d="M577 623.3c-11-4.8 184 28.7 298-75.8" opacity=".38"/><defs><path id="k" d="M101.4-5.6h995.8v560.1H101.4z"/></defs><clipPath id="l"><use overflow="visible" xlink:href="#k"/></clipPath><path fill="#231F20" stroke="#231F20" stroke-miterlimit="10" d="M475.2 160.2c.2.2 363.4-8.6 363.5-8.4 22.8 27.9 62.7 78.7 65.3 106.9 6.4 69.8-166.7 123-167.4 151.8-1 43.6 142.8 51.5 145.6 91.4 1.8 26.3-514 66.9-513.6 66.9" clip-path="url(#l)" opacity=".38"/><defs><path id="m" d="M469.1 159.1c.2.2 367.8-2.3 368-2.1 22.7 27.9 57.4 72.3 60 100.6 6.3 69.8-166.4 123-167 151.8-1 43.6 167.8 52.1 170.6 92 1.8 26.3-28.1 47.9-33.2 52.5-79.5 71.6-294.5 58.8-307.6 74.9-113.8 139.3-375.2 73.2-438.1 86.8-8.7 1.9-23.1 6.1-44.1 5.4-10.9-.4-23.6-2.1-38.2-6.2"/></defs><clipPath id="n"><use overflow="visible" xlink:href="#m"/></clipPath><linearGradient id="o" x1="-21.787" x2="751.436" y1="142.074" y2="142.074" gradientTransform="matrix(1.079 0 0 -1.079 102.042 604.239)" gradientUnits="userSpaceOnUse"><stop offset="0" stop-color="#5c2567"/><stop offset=".408" stop-color="#962e8b"/><stop offset=".73" stop-color="#dd64a5"/><stop offset="1" stop-color="#de6297"/></linearGradient><path fill="url(#o)" d="M890.2 554.6c4.9 2.8 20.8-24.2 19.2-38.5-1.3-11.2 10-17.6-2.5-27-8.1-6-100.6-39.5-100.6-39.5s-40.6-11.2-46.4-14.2c-5.8-3-25.1-12.1-26.4-20-1-5.7-1.5-10.8 9.6-20.2 11.1-9.4 28.5-18.8 43.1-26.7 15-8.2 42.7-23.5 55.7-31 12.8-7.4 26.8-13.7 40.8-26.7 14.1-12.9 23.7-28.8 25.2-41.8.6-5.9 1-15-.2-23.4-1.3-9.8-12.3-27.7-16.7-34.6-3.1-4.9-8.1-12.3-11.2-16.2-7.6-9.5-36.5-41.5-36.5-41.5l-439.2.5L94.7 497.3S54.3 690.4 101.5 720c26.5 16.6 369.7 80.5 453.6-64.1 17.8-30.7 99.7-3.8 160.5-16.5 47.7-10 174.7-84.8 174.7-84.8z" clip-path="url(#n)"/><defs><path id="p" d="M101.4-51.7h995.8V633H101.4z"/></defs><clipPath id="q"><use overflow="visible" xlink:href="#p"/></clipPath><path fill="#231F20" stroke="#231F20" stroke-miterlimit="10" d="M389.2 554.5c1.4 0 45.9-15.5 54.5-19.2 8.8-3.8 41.6-20.4 53.4-30.1 4.3-3.6 12.9-10.5 20.1-18.2 10.4-11.1 19.5-24.5 23.1-31.4 9.6-18.7 22.3-55.4 27.3-66.9 5.1-11.5 7.9-20.2 14.4-31s90.6-59.7 90.6-59.7 23-1.4 36.7-6.5c13.7-5.1 48.3-20.2 62.6-30.2 7.6-5.3 15.9-11.2 23-17.7 11.9-10.8 21.8-22.7 28.1-31.3 10-13.7 28.1-45.3 31.6-63.3s5.1-33.1 0-53.9c-5.1-20.8-13.5-39.3-21.6-51-9.9-14.4-19-24.7-28.3-32.7-15.2-13.3-24.3-16.9-24.3-16.9S684.2-55 650.3-45.7C508.6-6.6 294.2 410.2 294.2 410.2l-73.7 168.1s50.4-4.9 88.2-8.7c33.6-3.3 80.5-15.1 80.5-15.1z" clip-path="url(#q)" opacity=".38"/><defs><path id="r" d="M101.4-206h995.8v974H101.4z"/></defs><clipPath id="s"><use overflow="visible" xlink:href="#r"/></clipPath><g clip-path="url(#s)"><defs><path id="t" d="M842.4 135.1C827.9 225.7 734.7 295.2 656.8 294c-16.6-.2-117 269.7-129.7 264.7-37.7-15.2-413 62.2-422.4 17.7-3.7-17.7 433.7-422.1 433.7-442.1 0-88.3 52.1-168.1 136.7-168.1s181.1 81.7 167.3 168.9z"/></defs><clipPath id="u"><use overflow="visible" xlink:href="#t"/></clipPath><linearGradient id="v" x1="66.38" x2="688.346" y1="304.948" y2="304.948" gradientTransform="matrix(1.079 0 0 -1.079 102.042 604.239)" gradientUnits="userSpaceOnUse"><stop offset="0" stop-color="#f568c1"/><stop offset=".24" stop-color="#b24498"/><stop offset=".607" stop-color="#84267f"/><stop offset="1" stop-color="#64136f"/></linearGradient><path fill="url(#v)" d="M376.2 554.6c1.4 0 50-17.5 58.6-21 9.6-3.9 37-19.6 49.3-28.4 4.5-3.2 12.9-10.5 20.1-18.2 10.4-11.1 19.5-24.5 23.1-31.4 9.6-18.7 22.3-55.4 27.3-66.9 5.1-11.5 7.9-20.2 14.4-31s90.6-59.7 90.6-59.7 23-1.4 36.7-6.5c13.7-5.1 48.3-20.2 62.6-30.2 7.6-5.3 15.9-11.2 23-17.7 11.9-10.8 21.8-22.7 28.1-31.3 10-13.7 28.1-45.3 31.6-63.3s5.1-33.1 0-53.9c-5-20.7-13.4-39.2-21.5-50.9-9.9-14.4-19-24.7-28.3-32.7-15.3-13.4-24.3-17-24.3-17s-66.3-37.7-80.8-31.8c-137.4 56-405.4 447.5-405.4 447.5L173.7 588.3s148.4-22.2 202.6-33.9c0 .1-.1.2-.1.2z" clip-path="url(#u)"/></g><g clip-path="url(#s)"><defs><path id="w" d="M101.4-152.9h995.8v707.4H101.4z"/></defs><clipPath id="x"><use overflow="visible" xlink:href="#w"/></clipPath><path fill="#231F20" stroke="#231F20" stroke-miterlimit="10" d="M226.6 422.2c.3-.2 60.5-5.8 60.9-6 15.8-11.3 56.8-35.7 120.4-50.2 54.4-12.3 192.9 20.2 234.9-1.1C720.2 325.6 801 37.5 686.2-76.2c-39.1-38.7-92.3-55.5-137.6-59.9-36.5-3.6-68 16.9-82.8 24.5C351.1-52.5 253.1-5.6 251.2-5.5" clip-path="url(#x)" opacity=".38"/></g><g clip-path="url(#s)"><defs><path id="y" d="M218.7 414.7c.3-.2 61.9-1.1 62.4-1.3 15.8-11 55.2-39.4 118.9-53.5 54.4-12 192.9 19.6 234.9-1.1 77.5-38.2 109.9-184 81.7-365-3.8-20.4-62.9-173.4-166.6-177.2-129.4-4.7-305.3 159.6-305.4 159.2"/></defs><clipPath id="z"><use overflow="visible" xlink:href="#y"/></clipPath><linearGradient id="A" x1="127.296" x2="585.468" y1="400.024" y2="480.812" gradientTransform="matrix(1.079 0 0 -1.079 102.042 604.239)" gradientUnits="userSpaceOnUse"><stop offset="0" stop-color="#de6297"/><stop offset=".342" stop-color="#dd64a5"/><stop offset="1" stop-color="#64136f"/></linearGradient><path fill="url(#A)" d="M281.3 410.2s55-33.7 81.2-40.2c13.7-3.5 28.1-9 45.7-11.5 16.4-2.4 36.1-2.4 50.7-2.2 19.3.2 102.1 12.2 109.2 12.2 7.1 0 26.7 3.6 47.5-1.4 20.8-5.1 50-28.7 60.4-41 9-10.4 24.2-33 29.5-51.6 8.1-27.9 14.4-63.8 16.5-75.7 5.5-29.5 4.5-70.1 3.8-93.5-.6-18.1-2.5-61.1-3.8-72.6-2-18.3-2-28.7-4.5-38.2-27.4-105.6-140.2-132.1-185-131.5-68.3.9-106.8 29-131.3 59.3C382.4-54.4 281.3-5.5 281.3-5.5l-18.9 293.3 18.9 122.4z" clip-path="url(#z)"/><g><path fill="#231F20" stroke="#231F20" stroke-miterlimit="10" d="M90.3 555.6c.2-.4 87 32.2 125.3 17.5 14.7-5.6 20.8-17.7 22.1-19.1 23.5-35.1 42-68.9 52.1-118.4 8.8-43.2-11.9-118-8.6-168.9 1.8-29.7 25.4-51.5 47-59C346.2 201.3 110.5-6.6 110-6.6" opacity=".38"/></g><g><defs><path id="B" d="M688.7 94.7c0 42.5-27.2 82.3-72.1 104.8-27.6 13.7-63.2 19.4-99.3 19.4-94.6 0-171.3-55.6-171.3-124.2S422.7-29.5 517.4-29.5 688.7 26.1 688.7 94.7z"/></defs><clipPath id="C"><use overflow="visible" xlink:href="#B"/></clipPath><path fill="#231F20" stroke="#231F20" stroke-miterlimit="10" d="M433.6 202.6c.9 1 1.5 2.3 1.5 3.7v2.7c.5 1.1-.8-1 0 0 19.9 3.6 59.8 10.4 77.7 9.8 20.6-.6 46.7-1.1 66-4.3 13.3-2.2 51.3-12 69.8-32.3 5.7-6.4 18.1-18.9 24.6-30 9.8-17 15.3-31.2 16.5-39.5.9-6.4.9-16.5.2-25.9-.9-11.9-4-23.4-5.2-27.1-2.5-6.8-9.8-16-15.3-23.5-9.2-12.8-20.6-21.4-23.7-24.1-5.2-4.5-24.6-17.7-24.6-17.7H605" clip-path="url(#C)" opacity=".3"/></g><g><defs><path id="D" d="M36 691.9s157.5-34.4 167.2-95.1c36.3-12.7 68.3-110.7 78.4-160.1 8.8-43.2-11.9-118-8.6-168.9 1.8-29.7 16.2-47.7 37.9-55.2 18-6.3 51-9.6 89.1-6.2 56.9 5.2 126.2 18.6 183.5 2.8 36.3-10 62.6-33.7 80.9-66.4 34.7-61.9-4-136.8-55.7-159.1-12.4-5.4-36.1-10.9-53.1-10.9-27.5 0-82.8 3.7-123.3 20C299.3 46.5 101 18 101 18"/></defs><clipPath id="E"><use overflow="visible" xlink:href="#D"/></clipPath><linearGradient id="F" x1="-22.223" x2="549.636" y1="268.015" y2="268.015" gradientTransform="matrix(1.079 0 0 -1.079 102.042 604.239)" gradientUnits="userSpaceOnUse"><stop offset="0" stop-color="#d564a5"/><stop offset=".342" stop-color="#962e8b"/><stop offset="1" stop-color="#64136f"/></linearGradient><path fill="url(#F)" d="M125.9 653.5c61.4-24.9 121.1-107.8 136-140.8 14.9-33.1 24.8-78.2 26.9-90.7 1.1-6.7 5.8-42.4-.8-68.9-11.4-45.6-13.5-54.8-13.3-65.7.1-9.3-.1-30 8.8-41.5 9-11.5 28.1-26.1 41-30.2 13.6-4.3 33.3-7.9 51.4-7.9 14.6 0 33 2.2 55.1 5.1 21.8 2.9 67 7.9 84.2 7.9 17.2 0 47-1.9 67-5.1 13.8-2.2 53.1-11.8 72.2-31.6 5.9-6.3 17.4-19.9 23.8-31 8.5-14.8 12.2-30 13.4-38.1 1-6.2 3.1-16 3.3-25 .2-11.7-2.1-22.6-3.3-26.1-2.8-6.7-7.4-15.3-13.1-22.9-9.5-12.6-21.1-23.3-24.4-26-5.2-4.3-54.9-56.2-54.9-56.2L101.1-.1v560s-25.9 76-22.8 102.1c2.8 23.1 33.8-2.8 47.6-8.5z" clip-path="url(#E)"/><g><path fill="#231F20" stroke="#231F20" stroke-miterlimit="10" d="M101.4 402.7s57.6-22.6 87.6-42.6c24.4-16.3 29.1-18.7 51.4-50.6s27.4-64.8 39.7-82.4c4.1-5.7 9.6-11.9 15.6-17.8 12.9-12.5 29.3-24.3 46.7-28.9 24.6-6.5 37.5-8.5 61.3-8.1 23.7.4 48.9.4 61.5-7.3 13.8-8.4 23.1-18 37.4-38.1 8.1-11.3 20.5-45.1 22.1-60.3 2.3-21.1 5.9-26.8 2.1-47.9-17-93.9-102.4-118.4-102.4-118.4l-323 94.1v408.3z" opacity=".38"/></g><g><defs><path id="G" d="M-64.3 184.1c79.7-7.3 284.7-73.1 284.7-153.2s64.9-145 145-145 145 64.9 145 145c0 54.6-27 100.1-71.6 124.8 0 0-3.5 1-4 1.1-.6.2-1.9.6-3 .8-.8.1-9 .7-9.4.8-4.3 1-25.4 1.7-42.4 2.1-9.5.2 5.6 25.3 2.7 32.3C334.2 312 94.1 531.4 94 531.5"/></defs><clipPath id="H"><use overflow="visible" xlink:href="#G"/></clipPath><g clip-path="url(#H)"><defs><path id="I" d="M79.5-34c.1-.1 22.1 409.5 22.2 409.4 6.9-6.4 58.5-21 102.6-50 45.5-29.8 64.3-109.9 89.9-131.1 15.1-12.5 33.8-28.3 57.3-32.9 35.6-7.1 72.1 1.1 94.2-9.8 54.5-15.1 89.8-116.9 70.8-157.2L442-213.5"/></defs><clipPath id="J"><use overflow="visible" xlink:href="#I"/></clipPath><linearGradient id="K" x1="-75.835" x2="368.688" y1="342.174" y2="598.819" gradientTransform="matrix(1.079 0 0 -1.079 102.042 604.239)" gradientUnits="userSpaceOnUse"><stop offset="0" stop-color="#64136f"/><stop offset=".423" stop-color="#962e8b"/><stop offset=".786" stop-color="#dd62a5"/><stop offset=".995" stop-color="#dd6297"/></linearGradient><path fill="url(#K)" d="M101.4 375.7s60.3-18.2 88.2-39.2c24.6-18.6 27-18 48.9-47.8 21.9-29.8 32-55 46.4-69.8s30.2-46.4 56.1-49.3c25.9-2.9 43.8-4.1 61.5-4.3 23.4-.2 44.9-3.6 57.4-10.8 13.6-7.9 28.1-23.6 37.2-36.4 3.2-4.4 9.8-15.9 14.2-27.5 4.5-12.3 6.9-24.8 7.6-28.8 2.5-14.4 3.5-19.7 2.7-39.8S499-44.9 494.8-50.5c-45.8-61.2-90.5-77-131.9-78-21.9-.6-138.9 15.5-154.6 80-14.7 60.2-98 23.2-106.8 43-39 87-.1 381.2-.1 381.2z" clip-path="url(#J)"/></g><defs><path id="L" d="M101.4-5.6h995.8v560.1H101.4z"/></defs><clipPath id="M"><use overflow="visible" xlink:href="#L"/></clipPath><linearGradient id="N" x1="-30.474" x2="175.045" y1="468.069" y2="542.872" gradientTransform="matrix(1.079 0 0 -1.079 102.042 604.239)" gradientUnits="userSpaceOnUse"><stop offset="0" stop-color="#8a3771" stop-opacity="0"/><stop offset=".907" stop-color="#8a3771" stop-opacity=".936"/><stop offset=".969" stop-color="#8a3771"/></linearGradient><path fill="url(#N)" d="M99.3 181.9c-.2.1 38.3-31.5 55.1-43.2 29-20.1 79.7-31 101.4-44.8 13.2-8.4 19-17.6 24.5-26.5 5.1-8.2 7.3-18.1 7.6-34.5.1-6.8-.6-13.8-1.2-19-1.6-14-4.4-18.8-4.6-19.3H99.3v187.3z" clip-path="url(#M)"/><g><defs><path id="O" d="M94.3 32.7c.9-5.3-1.4-10.7-1.4-16.3 0-52.9 42.9-95.8 95.8-95.8s95.8 42.9 95.8 95.8c0 43-28.3 79.3-67.3 91.4-9 2.8-114.4 80.2-124.3 80.2"/></defs><clipPath id="P"><use overflow="visible" xlink:href="#O"/></clipPath><linearGradient id="Q" x1="170.446" x2="-35.924" y1="567.048" y2="491.936" gradientTransform="matrix(1.079 0 0 -1.079 102.042 604.239)" gradientUnits="userSpaceOnUse"><stop offset="0" stop-color="#5c2567"/><stop offset=".056" stop-color="#69266f"/><stop offset=".135" stop-color="#742877"/><stop offset=".22" stop-color="#782879"/><stop offset=".531" stop-color="#962e8b"/><stop offset=".631" stop-color="#9c338d"/><stop offset=".759" stop-color="#ab4094"/><stop offset=".901" stop-color="#c5579f"/><stop offset=".913" stop-color="#c859a0"/></linearGradient><path fill="url(#Q)" d="M101.4 178.2c-.2.1 36.5-31 52.5-42.4 27.6-19.7 74.1-27.3 96.6-44 22-12.8 40.5-49.4 39.8-65.5 5.2-33.2-30.3-105-83-115-32.2-6.1-95.5 27-105.9 55.3-18.2 49.7 0 211.6 0 211.6z" clip-path="url(#P)"/></g><g><defs><path id="R" d="M1144.7 768c0-.3-222.8-24.3-222.7-24.7.9-12.1 1.9-71.3 13-149.7 3.2-22.6 17.3-59.8 23.8-89 4.3-19.2 2.5-36.5 1.9-38.7-32.9-133.9 30.9-248.2 139.1-305.8"/></defs><clipPath id="S"><use overflow="visible" xlink:href="#R"/></clipPath><linearGradient id="T" x1="863.729" x2="863.729" y1="410.553" y2="-129.075" gradientTransform="matrix(1.079 0 0 -1.079 102.042 604.239)" gradientUnits="userSpaceOnUse"><stop offset="0" stop-color="#64136f"/><stop offset=".08" stop-color="#6c1b73"/><stop offset=".24" stop-color="#782879"/><stop offset=".449" stop-color="#962e8b"/><stop offset=".632" stop-color="#b24498"/><stop offset=".847" stop-color="#c85aa0"/><stop offset="1" stop-color="#d154ad"/></linearGradient><path fill="url(#T)" d="M947.3 558.7c.4-14.9 3.7-33.7 11.5-54-3.9-22.3-7.1-60.7-8.7-77.1-2.3-22.3-1.5-46.1 0-63.3 1.5-17.3 6.4-46.7 13.8-65.4 7.2-18.2 15.3-32 27.6-49.8 7-10 18.2-27.3 43.6-46.7 25.4-19.4 53.6-37.3 62.2-40.9 8.5-3.6 6.6 295.1 0 393.2-3 45.4 74.8 236.5-37.3 178-16-8.5-114.9-93.9-112.7-174z" clip-path="url(#S)"/></g></g></g></g><path fill="none" d="M101.4-206h995.8v994.9H101.4z"/><linearGradient id="U" x1="672.803" x2="672.803" y1="-828.159" y2="-382.709" gradientTransform="matrix(1.079 0 0 -1.079 102.042 604.239)" gradientUnits="userSpaceOnUse"><stop offset="0" stop-color="#bb469f"/><stop offset="1" stop-color="#a03891"/></linearGradient><path fill="url(#U)" d="M727 1017.2h279.3s73.3 350.6 29.1 400.7c-20.1 22.8 13.4 56.7-101 78.5-49.9 9.5-236.1-26.3-319.9-118.4-44.9-49.4 112.5-360.8 112.5-360.8z"/><g><defs><path id="V" d="M101.4 740.2h995.8v560.1H101.4z"/></defs><clipPath id="W"><use overflow="visible" xlink:href="#V"/></clipPath><path fill="#231F20" stroke="#231F20" stroke-miterlimit="10" d="M848.8 1093.5s-11.4 19.1-13.2 34.1c-1.4 12-3.3 27.7 7 41.4 10.5 13.7 25.6 28.1 36.4 38.8 10.8 10.8 15.6 21.9 15.6 37.8 0 15.9-30.4.9-39.1 6.7-8.6 5.7-136.3-8.4-136.3-8.4l-8.6-143.2 138.2-7.2zm265.6 221.8c0-.3-157.4-14.7-157.3-15 1.3-17.8 2.1-71.3-2.3-88.6-32.9-133.9 30.9-248.2 139.1-305.8" clip-path="url(#W)" opacity=".38"/></g><g><defs><path id="X" d="M101.4 740.2h995.8v560.1H101.4z"/></defs><clipPath id="Y"><use overflow="visible" xlink:href="#X"/></clipPath><linearGradient id="Z" x1="549.143" x2="740.744" y1="-477.915" y2="-588.535" gradientTransform="matrix(1.079 0 0 -1.079 102.042 604.239)" gradientUnits="userSpaceOnUse"><stop offset=".199" stop-color="#b24498"/><stop offset=".689" stop-color="#782879"/><stop offset="1" stop-color="#5c2567"/></linearGradient><path fill="url(#Z)" d="M843.8 1093.5s-11.4 19.1-13.2 34.1c-1.4 12-3.3 27.7 7 41.4 10.5 13.7 25.6 28.1 36.4 38.8 10.8 10.8 21.8 16.6 21.8 32.5 0 15.9-3.3 12.2-12 17.9-8.6 5.7-169.5-14.4-169.5-14.4l-8.6-143.2 138.1-7.1z" clip-path="url(#Y)"/></g><g><defs><path id="aa" d="M679.2 1164.8l62.9 18.7c9.6-27.8 47.6-62.6 95.9-79.2 39.2-13.3 90-23.8 125.5-41.1.3-.1 16.2-43.2 16.4-43.4"/></defs><clipPath id="ab"><use overflow="visible" xlink:href="#aa"/></clipPath><path fill="#231F20" stroke="#231F20" stroke-miterlimit="10" d="M738.8 1189.5s18.1-33.4 35.3-47.5c17.4-14.2 47.5-34.5 73.4-40.2 25.9-5.7 49.6-14.4 70.5-20.2 20.8-5.7 62.6-26.7 62.6-26.7s116.9-92.8 116.9-100.7V748.6H717.2l-4.3 440.9h25.9z" clip-path="url(#ab)" opacity=".38"/></g><g><defs><path id="ac" d="M303.6 657.2s88.3 368.9 200.6 485.9c98.7 102.8 233.8 38.6 233.8 38.5 10-30.1 49.5-67.7 99.8-85.6 40.7-14.5 93.7-25.9 130.5-44.6.3-.1 385.4-425.5 385.7-425.7"/></defs><clipPath id="ad"><use overflow="visible" xlink:href="#ac"/></clipPath><path fill="#C859A0" d="M738.8 1181.2s17.3-34.5 35.3-47.5c18-12.9 47.5-34.5 73.4-40.2 25.9-5.7 49.6-14.4 70.5-20.2 20.8-5.7 62.6-26.7 62.6-26.7s116.9-92.8 116.9-100.7c0 0 6.5-154.7 0-205.7-4.1-32-85.8-48.4-114.3-49.9-66.4-3.3-233.5 28-275.4 81-68.3 86.5 5.2 409.7 5.2 409.7h25.8z" clip-path="url(#ad)"/></g><path fill="#231F20" stroke="#231F20" stroke-miterlimit="10" d="M577 1369.2c-11-4.8 184 28.7 298-75.8" opacity=".38"/><g><defs><path id="ae" d="M101.4 740.2h995.8v560.1H101.4z"/></defs><clipPath id="af"><use overflow="visible" xlink:href="#ae"/></clipPath><path fill="#231F20" stroke="#231F20" stroke-miterlimit="10" d="M475.2 906c.2.2 363.4-8.6 363.5-8.4 22.8 27.9 62.7 78.7 65.3 106.9 6.4 69.8-166.7 123-167.4 151.8-1 43.6 142.8 51.5 145.6 91.4 1.8 26.3-514 66.9-513.6 66.9" clip-path="url(#af)" opacity=".38"/></g><g><defs><path id="ag" d="M469.1 905c.2.2 367.8-2.3 368-2.1 22.7 27.9 57.4 72.3 60 100.6 6.3 69.8-166.4 123-167 151.8-1 43.6 167.8 52.1 170.6 92 1.8 26.3-28.1 47.9-33.2 52.5-79.5 71.5-294.5 58.7-307.6 74.7-113.8 139.3-375.2 73.2-438.1 86.9-8.7 1.9-23.1 6.1-44.1 5.4-10.9-.4-23.6-2.1-38.2-6.2"/></defs><clipPath id="ah"><use overflow="visible" xlink:href="#ag"/></clipPath><linearGradient id="ai" x1="-21.787" x2="751.436" y1="-549.158" y2="-549.158" gradientTransform="matrix(1.079 0 0 -1.079 102.042 604.239)" gradientUnits="userSpaceOnUse"><stop offset="0" stop-color="#5c2567"/><stop offset=".408" stop-color="#962e8b"/><stop offset=".73" stop-color="#dd64a5"/><stop offset="1" stop-color="#de6297"/></linearGradient><path fill="url(#ai)" d="M890.2 1300.4c4.9 2.8 20.8-24.2 19.2-38.5-1.3-11.2 10-17.6-2.5-27-8.1-6-100.6-39.5-100.6-39.5s-40.6-11.2-46.4-14.2c-5.8-3-25.1-12.1-26.4-20-1-5.7-1.5-10.8 9.6-20.2 11.1-9.4 28.5-18.8 43.1-26.7 15-8.2 42.7-23.5 55.7-31 12.8-7.4 26.8-13.7 40.8-26.7 14.1-12.9 23.7-28.8 25.2-41.8.6-5.9 1-15-.2-23.4-1.3-9.8-12.3-27.7-16.7-34.6-3.1-4.9-8.1-12.3-11.2-16.2-7.6-9.5-36.5-41.5-36.5-41.5l-439.2.5-309.4 343.6s-40.4 193.1 6.8 222.7c26.5 16.6 369.7 80.5 453.6-64.1 17.8-30.7 99.7-3.8 160.5-16.5 47.7-10 174.7-84.8 174.7-84.8v-.1z" clip-path="url(#ah)"/></g><g><defs><path id="aj" d="M101.4 694.2h995.8v684.7H101.4z"/></defs><clipPath id="ak"><use overflow="visible" xlink:href="#aj"/></clipPath><path fill="#231F20" stroke="#231F20" stroke-miterlimit="10" d="M389.2 1300.3c1.4 0 45.9-15.5 54.5-19.2 8.8-3.8 41.6-20.4 53.4-30.1 4.3-3.6 12.9-10.5 20.1-18.2 10.4-11.1 19.5-24.5 23.1-31.4 9.6-18.7 22.3-55.4 27.3-66.9 5.1-11.5 7.9-20.2 14.4-31s90.6-59.7 90.6-59.7 23-1.4 36.7-6.5c13.7-5.1 48.3-20.2 62.6-30.2 7.6-5.3 15.9-11.2 23-17.7 11.9-10.8 21.8-22.7 28.1-31.3 10-13.7 28.1-45.3 31.6-63.3 3.6-18 5.1-33.1 0-53.9-5.1-20.8-13.5-39.3-21.6-51-9.9-14.4-19-24.7-28.3-32.7-15.1-13.2-24.2-16.8-24.2-16.8s-96.2-49.5-130.1-40.1c-141.8 39-356.2 455.7-356.2 455.7l-73.7 168.1s50.4-4.9 88.2-8.7c33.6-3.2 80.5-15.1 80.5-15.1z" clip-path="url(#ak)" opacity=".38"/></g><g><defs><path id="al" d="M101.4 539.8h995.8v974H101.4z"/></defs><clipPath id="am"><use overflow="visible" xlink:href="#al"/></clipPath><g clip-path="url(#am)"><defs><path id="an" d="M842.4 880.9c-14.5 90.6-107.7 160.1-185.6 158.9-16.6-.2-117 269.7-129.7 264.7-37.7-15.2-413 62.2-422.4 17.7-3.7-17.7 433.7-422.1 433.7-442.2 0-88.3 52.1-168.1 136.7-168.1s181.1 81.8 167.3 169z"/></defs><clipPath id="ao"><use overflow="visible" xlink:href="#an"/></clipPath><linearGradient id="ap" x1="66.38" x2="688.346" y1="-386.284" y2="-386.284" gradientTransform="matrix(1.079 0 0 -1.079 102.042 604.239)" gradientUnits="userSpaceOnUse"><stop offset="0" stop-color="#f568c1"/><stop offset=".24" stop-color="#b24498"/><stop offset=".607" stop-color="#84267f"/><stop offset="1" stop-color="#64136f"/></linearGradient><path fill="url(#ap)" d="M376.2 1300.4c1.4 0 50-17.5 58.6-21 9.6-3.9 37-19.6 49.3-28.4 4.5-3.2 12.9-10.5 20.1-18.2 10.4-11.1 19.5-24.5 23.1-31.4 9.6-18.7 22.3-55.4 27.3-66.9 5.1-11.5 7.9-20.2 14.4-31s90.6-59.7 90.6-59.7 23-1.4 36.7-6.5c13.7-5.1 48.3-20.2 62.6-30.2 7.6-5.3 15.9-11.2 23-17.7 11.9-10.8 21.8-22.7 28.1-31.3 10-13.7 28.1-45.3 31.6-63.3s5.1-33.1 0-53.9c-5-20.7-13.4-39.2-21.5-50.9-9.9-14.4-19-24.7-28.3-32.7-15.2-13.3-24.3-16.9-24.3-16.9s-66.3-37.7-80.8-31.8c-137.4 56-405.4 447.5-405.4 447.5l-107.6 178.1s148.4-22.2 202.6-33.9l-.1.1z" clip-path="url(#ao)"/></g><g clip-path="url(#am)"><defs><path id="aq" d="M101.4 593h995.8v707.4H101.4z"/></defs><clipPath id="ar"><use overflow="visible" xlink:href="#aq"/></clipPath><path fill="#231F20" stroke="#231F20" stroke-miterlimit="10" d="M226.6 1168c.3-.2 60.5-5.8 60.9-6 15.8-11.3 56.8-35.7 120.4-50.2 54.4-12.3 192.9 20.2 234.9-1.1 77.5-39.3 158.3-327.4 43.4-441.1-39.1-38.7-92.3-55.5-137.6-59.9-36.5-3.6-68 16.9-82.8 24.5C351 693.3 253 740.3 251.2 740.3" clip-path="url(#ar)" opacity=".38"/></g><g clip-path="url(#am)"><defs><path id="as" d="M218.7 1160.6c.3-.2 61.9-1.1 62.4-1.3 15.8-11 55.2-39.4 118.9-53.5 54.4-12 192.9 19.6 234.9-1.1 77.5-38.2 109.9-184 81.7-365-3.8-20.4-62.9-173.4-166.6-177.2-129.4-4.7-305.3 159.6-305.4 159.1"/></defs><clipPath id="at"><use overflow="visible" xlink:href="#as"/></clipPath><linearGradient id="au" x1="127.296" x2="585.468" y1="-291.209" y2="-210.42" gradientTransform="matrix(1.079 0 0 -1.079 102.042 604.239)" gradientUnits="userSpaceOnUse"><stop offset="0" stop-color="#de6297"/><stop offset=".342" stop-color="#dd64a5"/><stop offset="1" stop-color="#64136f"/></linearGradient><path fill="url(#au)" d="M281.3 1156s55-33.7 81.2-40.2c13.7-3.5 28.1-9 45.7-11.5 16.4-2.4 36.1-2.4 50.7-2.2 19.3.2 102.1 12.2 109.2 12.2 7.1 0 26.7 3.6 47.5-1.4 20.8-5.1 50-28.7 60.4-41 9-10.4 24.2-33 29.5-51.6 8.1-27.9 14.4-63.8 16.5-75.7 5.5-29.5 4.5-70.1 3.8-93.5-.6-18.1-2.5-61.1-3.8-72.6-2.1-18.1-2.1-28.6-4.5-38.1-27.4-105.6-140.2-132.1-185-131.5-68.3.9-106.8 29-131.3 59.3-18.8 23.3-119.9 72.1-119.9 72.1l-18.9 293.3 18.9 122.4z" clip-path="url(#at)"/><g><path fill="#231F20" stroke="#231F20" stroke-miterlimit="10" d="M90.3 1301.4c.2-.4 87 32.2 125.3 17.5 14.7-5.6 20.8-17.7 22.1-19.1 23.5-35.1 42-68.9 52.1-118.4 8.8-43.2-11.9-118-8.6-168.9 1.8-29.7 25.4-51.5 47-59 18-6.4-217.7-214.3-218.2-214.3" opacity=".38"/></g><g><defs><path id="av" d="M688.7 840.5c0 42.5-27.2 82.3-72.1 104.8-27.6 13.7-63.2 19.4-99.3 19.4-94.6 0-171.3-55.6-171.3-124.2s76.7-124.2 171.3-124.2 171.4 55.6 171.4 124.2z"/></defs><clipPath id="aw"><use overflow="visible" xlink:href="#av"/></clipPath><path fill="#231F20" stroke="#231F20" stroke-miterlimit="10" d="M433.6 948.4c.9 1 1.5 2.3 1.5 3.7v2.7c.5 1.1-.8-1 0 0 19.9 3.6 59.8 10.4 77.7 9.8 20.6-.6 46.7-1.1 66-4.3 13.3-2.2 51.3-12 69.8-32.3 5.7-6.4 18.1-18.9 24.6-30 9.8-17 15.3-31.2 16.5-39.5.9-6.4.9-16.5.2-25.9-.9-11.9-4-23.4-5.2-27.1-2.5-6.8-9.8-16-15.3-23.5-9.2-12.8-20.6-21.4-23.7-24.1-5.2-4.5-24.6-17.7-24.6-17.7H605" clip-path="url(#aw)" opacity=".3"/></g><g><defs><path id="ax" d="M36 1437.7s157.5-34.4 167.2-95.1c36.3-12.7 68.3-110.7 78.4-160.1 8.8-43.2-11.9-118-8.6-168.9 1.8-29.7 16.2-47.7 37.9-55.2 18-6.3 51-9.6 89.1-6.2 56.9 5.2 126.2 18.6 183.5 2.8 36.3-10 62.6-33.7 80.9-66.4 34.7-61.9-4-136.8-55.7-159.1-12.4-5.4-36.1-10.9-53.1-10.9-27.5 0-82.8 3.7-123.3 20-133 53.7-331.3 25.2-331.3 25.2"/></defs><clipPath id="ay"><use overflow="visible" xlink:href="#ax"/></clipPath><linearGradient id="az" x1="-22.223" x2="549.636" y1="-423.218" y2="-423.218" gradientTransform="matrix(1.079 0 0 -1.079 102.042 604.239)" gradientUnits="userSpaceOnUse"><stop offset="0" stop-color="#d564a5"/><stop offset=".342" stop-color="#962e8b"/><stop offset="1" stop-color="#64136f"/></linearGradient><path fill="url(#az)" d="M125.9 1399.4c61.4-24.9 121.1-107.8 136-140.8 14.9-33.1 24.8-78.2 26.9-90.7 1.1-6.7 5.8-42.4-.8-68.9-11.4-45.6-13.5-54.8-13.3-65.7.1-9.3-.1-30 8.8-41.5s28.1-26.1 41-30.2c13.6-4.3 33.3-7.9 51.4-7.9 14.6 0 33 2.2 55.1 5.1 21.8 2.9 67 7.9 84.2 7.9 17.2 0 47-1.9 67-5.1 13.8-2.2 53.1-11.8 72.2-31.6 5.9-6.3 17.4-19.9 23.8-31 8.5-14.8 12.2-30 13.4-38.1 1-6.2 3.1-16 3.3-25 .2-11.7-2.1-22.6-3.3-26.1-2.8-6.7-7.4-15.3-13.1-22.9-9.5-12.6-21.1-23.3-24.4-26-5.2-4.3-54.9-56.2-54.9-56.2l-498.3 41.2v560s-25.9 76-22.8 102.1c3 23 34-3 47.8-8.6z" clip-path="url(#ay)"/><g><path fill="#231F20" stroke="#231F20" stroke-miterlimit="10" d="M101.4 1148.5s57.6-22.6 87.6-42.6c24.4-16.3 29.1-18.7 51.4-50.6s27.4-64.8 39.7-82.4c4.1-5.7 9.6-11.9 15.6-17.8 12.9-12.5 29.3-24.3 46.7-28.9 24.6-6.5 37.5-8.5 61.3-8.1 23.7.4 48.9.4 61.5-7.3 13.8-8.4 23.1-18 37.4-38.1 8.1-11.3 20.5-45.1 22.1-60.3 2.3-21.1 5.9-26.8 2.1-47.9-17-94-102.3-118.5-102.3-118.5l-323.1 94.2v408.3z" opacity=".38"/></g><g><defs><path id="aA" d="M-64.3 930c79.7-7.3 284.7-73.1 284.7-153.2s64.9-145 145-145 145 64.9 145 145c0 54.6-27 100.1-71.6 124.8 0 0-3.5 1-4 1.1-.6.2-1.9.6-3 .8-.8.1-9 .7-9.4.8-4.3 1-25.4 1.7-42.4 2.1-9.5.2 5.6 25.3 2.7 32.3-48.5 119.1-288.6 338.6-288.7 338.6"/></defs><clipPath id="aB"><use overflow="visible" xlink:href="#aA"/></clipPath><g clip-path="url(#aB)"><defs><path id="aC" d="M79.5 711.8c.1-.1 22.1 409.5 22.2 409.4 6.9-6.4 58.5-21 102.6-50 45.5-29.8 64.3-109.9 89.9-131.1 15.1-12.5 33.8-28.3 57.3-32.9 35.6-7.1 72.1 1.1 94.2-9.8 54.5-15.1 89.8-116.9 70.8-157.2L442 532.3"/></defs><clipPath id="aD"><use overflow="visible" xlink:href="#aC"/></clipPath><linearGradient id="aE" x1="-75.835" x2="368.688" y1="-349.058" y2="-92.413" gradientTransform="matrix(1.079 0 0 -1.079 102.042 604.239)" gradientUnits="userSpaceOnUse"><stop offset="0" stop-color="#64136f"/><stop offset=".423" stop-color="#962e8b"/><stop offset=".786" stop-color="#dd62a5"/><stop offset=".995" stop-color="#dd6297"/></linearGradient><path fill="url(#aE)" d="M101.4 1121.5s60.3-18.2 88.2-39.2c24.6-18.6 27-18 48.9-47.8 21.9-29.8 32-55 46.4-69.8 14.4-14.8 30.2-46.4 56.1-49.3 25.9-2.9 43.8-4.1 61.5-4.3 23.4-.2 44.9-3.6 57.4-10.8 13.6-7.9 28.1-23.6 37.2-36.4 3.2-4.4 9.8-15.9 14.2-27.5 4.5-12.3 6.9-24.8 7.6-28.8 2.5-14.4 3.5-19.7 2.7-39.8-.8-20.1-22.6-66.9-26.8-72.5-45.8-61.2-90.5-77-131.9-78-21.9-.6-138.9 15.6-154.6 80.1-14.7 60.2-98 23.2-106.8 43-39 86.9-.1 381.1-.1 381.1z" clip-path="url(#aD)"/></g><defs><path id="aF" d="M101.4 740.2h995.8v560.1H101.4z"/></defs><clipPath id="aG"><use overflow="visible" xlink:href="#aF"/></clipPath><linearGradient id="aH" x1="-30.474" x2="175.045" y1="-223.163" y2="-148.36" gradientTransform="matrix(1.079 0 0 -1.079 102.042 604.239)" gradientUnits="userSpaceOnUse"><stop offset="0" stop-color="#8a3771" stop-opacity="0"/><stop offset=".907" stop-color="#8a3771" stop-opacity=".936"/><stop offset=".969" stop-color="#8a3771"/></linearGradient><path fill="url(#aH)" d="M99.3 927.7c-.2.1 38.3-31.5 55.1-43.2 29-20.1 79.7-31 101.4-44.8 13.2-8.4 19-17.6 24.5-26.5 5.1-8.2 7.3-18.1 7.6-34.5.1-6.8-.6-13.8-1.2-19-1.6-14-4.4-18.8-4.6-19.3H99.3v187.3z" clip-path="url(#aG)"/><g><defs><path id="aI" d="M94.3 778.5c.9-5.3-1.4-10.7-1.4-16.3 0-52.9 42.9-95.8 95.8-95.8s95.8 42.9 95.8 95.8c0 43-28.3 79.3-67.3 91.4-9 2.8-114.4 80.2-124.3 80.2"/></defs><clipPath id="aJ"><use overflow="visible" xlink:href="#aI"/></clipPath><linearGradient id="aK" x1="170.446" x2="-35.924" y1="-124.185" y2="-199.297" gradientTransform="matrix(1.079 0 0 -1.079 102.042 604.239)" gradientUnits="userSpaceOnUse"><stop offset="0" stop-color="#5c2567"/><stop offset=".056" stop-color="#69266f"/><stop offset=".135" stop-color="#742877"/><stop offset=".22" stop-color="#782879"/><stop offset=".531" stop-color="#962e8b"/><stop offset=".631" stop-color="#9c338d"/><stop offset=".759" stop-color="#ab4094"/><stop offset=".901" stop-color="#c5579f"/><stop offset=".913" stop-color="#c859a0"/></linearGradient><path fill="url(#aK)" d="M101.4 924.1c-.2.1 36.5-31 52.5-42.4 27.6-19.7 74.1-27.3 96.6-44 21.9-12.8 40.4-49.4 39.8-65.5 5.2-33.2-30.3-105-83-115-32.2-6.1-95.5 27-105.9 55.3-18.2 49.6 0 211.6 0 211.6z" clip-path="url(#aJ)"/></g><g><defs><path id="aL" d="M1144.7 1513.8c0-.3-222.8-24.3-222.7-24.7.9-12.1 1.9-71.3 13-149.7 3.2-22.6 17.3-59.8 23.8-89 4.3-19.2 2.5-36.5 1.9-38.7-32.9-133.9 30.9-248.2 139.1-305.8"/></defs><clipPath id="aM"><use overflow="visible" xlink:href="#aL"/></clipPath><linearGradient id="aN" x1="863.729" x2="863.729" y1="-280.68" y2="-820.308" gradientTransform="matrix(1.079 0 0 -1.079 102.042 604.239)" gradientUnits="userSpaceOnUse"><stop offset="0" stop-color="#64136f"/><stop offset=".08" stop-color="#6c1b73"/><stop offset=".24" stop-color="#782879"/><stop offset=".449" stop-color="#962e8b"/><stop offset=".632" stop-color="#b24498"/><stop offset=".847" stop-color="#c85aa0"/><stop offset="1" stop-color="#d154ad"/></linearGradient><path fill="url(#aN)" d="M947.3 1304.5c.4-14.9 3.7-33.7 11.5-54-3.9-22.3-7.1-60.7-8.7-77.1-2.3-22.3-1.5-46.1 0-63.3 1.5-17.3 6.4-46.7 13.8-65.4 7.2-18.2 15.3-32 27.6-49.8 7-10 18.2-27.3 43.6-46.7 25.4-19.4 53.6-37.3 62.2-40.9 8.5-3.6 6.6 295.1 0 393.2-3 45.4 74.8 236.5-37.3 178-16-8.5-114.9-93.8-112.7-174z" clip-path="url(#aM)"/></g></g></g></g></g><path fill="none" d="M101.4 539.8h995.8v994.9H101.4z"/><g><linearGradient id="aO" x1="672.803" x2="672.803" y1="-1520.14" y2="-1074.69" gradientTransform="matrix(1.079 0 0 -1.079 102.042 604.239)" gradientUnits="userSpaceOnUse"><stop offset="0" stop-color="#bb469f"/><stop offset="1" stop-color="#a03891"/></linearGradient><path fill="url(#aO)" d="M727 1763.8h279.3s73.3 350.6 29.1 400.7c-20.1 22.8 13.4 56.7-101 78.5-49.9 9.5-236.1-26.3-319.9-118.4-44.9-49.3 112.5-360.8 112.5-360.8z"/></g><g><defs><path id="aP" d="M101.4 1486.8h995.8v560.1H101.4z"/></defs><clipPath id="aQ"><use overflow="visible" xlink:href="#aP"/></clipPath><path fill="#231F20" stroke="#231F20" stroke-miterlimit="10" d="M848.8 1840.1s-11.4 19.1-13.2 34.1c-1.4 12-3.3 27.7 7 41.4 10.5 13.7 25.6 28.1 36.4 38.8 10.8 10.8 15.6 21.9 15.6 37.8 0 15.9-30.4.9-39.1 6.7-8.6 5.7-136.3-8.4-136.3-8.4l-8.6-143.2 138.2-7.2zm265.6 221.9c0-.3-157.4-14.7-157.3-15 1.3-17.8 2.1-71.3-2.3-88.6-32.9-133.9 30.9-248.2 139.1-305.8" clip-path="url(#aQ)" opacity=".38"/></g><g><defs><path id="aR" d="M101.4 1486.8h995.8v560.1H101.4z"/></defs><clipPath id="aS"><use overflow="visible" xlink:href="#aR"/></clipPath><linearGradient id="aT" x1="549.143" x2="740.744" y1="-1169.896" y2="-1280.516" gradientTransform="matrix(1.079 0 0 -1.079 102.042 604.239)" gradientUnits="userSpaceOnUse"><stop offset=".199" stop-color="#b24498"/><stop offset=".689" stop-color="#782879"/><stop offset="1" stop-color="#5c2567"/></linearGradient><path fill="url(#aT)" d="M843.8 1840.1s-11.4 19.1-13.2 34.1c-1.4 12-3.3 27.7 7 41.4 10.5 13.7 25.6 28.1 36.4 38.8 10.8 10.8 21.8 16.6 21.8 32.5 0 15.9-3.3 12.2-12 17.9-8.6 5.7-169.5-14.4-169.5-14.4l-8.6-143.2 138.1-7.1z" clip-path="url(#aS)"/></g><g><defs><path id="aU" d="M679.2 1911.4l62.9 18.7c9.6-27.8 47.6-62.6 95.9-79.2 39.2-13.3 90-23.8 125.5-41.1.3-.1 16.2-43.2 16.4-43.4"/></defs><clipPath id="aV"><use overflow="visible" xlink:href="#aU"/></clipPath><path fill="#231F20" stroke="#231F20" stroke-miterlimit="10" d="M738.8 1936.1s18.1-33.4 35.3-47.5c17.4-14.2 47.5-34.5 73.4-40.2 25.9-5.7 49.6-14.4 70.5-20.2 20.8-5.7 62.6-26.7 62.6-26.7s116.9-92.8 116.9-100.7v-205.7H717.2l-4.3 440.9h25.9v.1z" clip-path="url(#aV)" opacity=".38"/></g><g><defs><path id="aW" d="M303.6 1403.9s88.3 368.9 200.6 485.9c98.7 102.8 233.8 38.6 233.8 38.5 10-30.1 49.5-67.7 99.8-85.6 40.7-14.5 93.7-25.9 130.5-44.6.3-.1 385.4-425.5 385.7-425.7"/></defs><clipPath id="aX"><use overflow="visible" xlink:href="#aW"/></clipPath><path fill="#C859A0" d="M738.8 1927.8s17.3-34.5 35.3-47.5 47.5-34.5 73.4-40.2c25.9-5.7 49.6-14.4 70.5-20.2 20.8-5.7 62.6-26.7 62.6-26.7s116.9-92.8 116.9-100.7c0 0 6.5-154.7 0-205.7-4.1-32-85.8-48.4-114.3-49.9-66.4-3.3-233.5 28-275.4 81-68.3 86.5 5.2 409.7 5.2 409.7h25.8z" clip-path="url(#aX)"/></g><path fill="#231F20" stroke="#231F20" stroke-miterlimit="10" d="M577 2115.8c-11-4.8 184 28.7 298-75.8" opacity=".38"/><g><defs><path id="aY" d="M101.4 1486.8h995.8v560.1H101.4z"/></defs><clipPath id="aZ"><use overflow="visible" xlink:href="#aY"/></clipPath><path fill="#231F20" stroke="#231F20" stroke-miterlimit="10" d="M475.2 1652.7c.2.2 363.4-8.6 363.5-8.4 22.8 27.9 62.7 78.7 65.3 106.9 6.4 69.8-166.7 123-167.4 151.8-1 43.6 142.8 51.5 145.6 91.4 1.8 26.3-514 66.9-513.6 66.9" clip-path="url(#aZ)" opacity=".38"/></g><g><defs><path id="ba" d="M469.1 1651.6c.2.2 367.8-2.3 368-2.1 22.7 27.9 57.4 72.3 60 100.6 6.3 69.8-166.4 123-167 151.8-1 43.6 167.8 52.1 170.6 92 1.8 26.3-28.1 47.9-33.2 52.5-79.5 71.5-294.5 58.7-307.6 74.7-113.8 139.3-375.2 73.2-438.1 86.9-8.7 1.9-23.1 6.1-44.1 5.4-10.9-.4-23.6-2.1-38.2-6.2"/></defs><clipPath id="bb"><use overflow="visible" xlink:href="#ba"/></clipPath><linearGradient id="bc" x1="-21.787" x2="751.436" y1="-1241.139" y2="-1241.139" gradientTransform="matrix(1.079 0 0 -1.079 102.042 604.239)" gradientUnits="userSpaceOnUse"><stop offset="0" stop-color="#5c2567"/><stop offset=".408" stop-color="#962e8b"/><stop offset=".73" stop-color="#dd64a5"/><stop offset="1" stop-color="#de6297"/></linearGradient><path fill="url(#bc)" d="M890.2 2047.1c4.9 2.8 20.8-24.2 19.2-38.5-1.3-11.2 10-17.6-2.5-27-8.1-6-100.6-39.5-100.6-39.5s-40.6-11.2-46.4-14.2c-5.8-3-25.1-12.1-26.4-20-1-5.7-1.5-10.8 9.6-20.2 11.1-9.4 28.5-18.8 43.1-26.7 15-8.2 42.7-23.5 55.7-31 12.8-7.4 26.8-13.7 40.8-26.7 14.1-12.9 23.7-28.8 25.2-41.8.6-5.9 1-15-.2-23.4-1.3-9.8-12.3-27.7-16.7-34.6-3.1-4.9-8.1-12.3-11.2-16.2-7.6-9.5-36.5-41.5-36.5-41.5l-439.2.5-309.4 343.5s-40.4 193.1 6.8 222.7c26.5 16.6 369.7 80.5 453.6-64.1 17.8-30.7 99.7-3.8 160.5-16.5 47.7-10 174.7-84.8 174.7-84.8z" clip-path="url(#bb)"/></g><g><defs><path id="bd" d="M101.4 1440.8h995.8v684.7H101.4z"/></defs><clipPath id="be"><use overflow="visible" xlink:href="#bd"/></clipPath><path fill="#231F20" stroke="#231F20" stroke-miterlimit="10" d="M389.2 2047c1.4 0 45.9-15.5 54.5-19.2 8.8-3.8 41.6-20.4 53.4-30.1 4.3-3.6 12.9-10.5 20.1-18.2 10.4-11.1 19.5-24.5 23.1-31.4 9.6-18.7 22.3-55.4 27.3-66.9 5.1-11.5 7.9-20.2 14.4-31s90.6-59.7 90.6-59.7 23-1.4 36.7-6.5c13.7-5.1 48.3-20.2 62.6-30.2 7.6-5.3 15.9-11.2 23-17.7 11.9-10.8 21.8-22.7 28.1-31.3 10-13.7 28.1-45.3 31.6-63.3 3.6-18 5.1-33.1 0-53.9-5.1-20.8-13.5-39.3-21.6-51-9.9-14.4-19-24.7-28.3-32.7-15.1-13.2-24.2-16.8-24.2-16.8s-96.2-49.5-130.1-40.1c-141.7 39.1-356.1 455.9-356.1 455.9L220.6 2071s50.4-4.9 88.2-8.7c33.5-3.5 80.4-15.3 80.4-15.3z" clip-path="url(#be)" opacity=".38"/></g><g><defs><path id="bf" d="M101.4 1286.5h995.8v974H101.4z"/></defs><clipPath id="bg"><use overflow="visible" xlink:href="#bf"/></clipPath><g clip-path="url(#bg)"><defs><path id="bh" d="M842.4 1627.6c-14.5 90.6-107.7 160.1-185.6 158.9-16.6-.2-117 269.7-129.7 264.7-37.7-15.2-413 62.2-422.4 17.7-3.7-17.7 433.7-422.1 433.7-442.1 0-88.3 52.1-168.1 136.7-168.1s181.1 81.7 167.3 168.9z"/></defs><clipPath id="bi"><use overflow="visible" xlink:href="#bh"/></clipPath><linearGradient id="bj" x1="66.38" x2="688.346" y1="-1078.265" y2="-1078.265" gradientTransform="matrix(1.079 0 0 -1.079 102.042 604.239)" gradientUnits="userSpaceOnUse"><stop offset="0" stop-color="#f568c1"/><stop offset=".24" stop-color="#b24498"/><stop offset=".607" stop-color="#84267f"/><stop offset="1" stop-color="#64136f"/></linearGradient><path fill="url(#bj)" d="M376.2 2047.1c1.4 0 50-17.5 58.6-21 9.6-3.9 37-19.6 49.3-28.4 4.5-3.2 12.9-10.5 20.1-18.2 10.4-11.1 19.5-24.5 23.1-31.4 9.6-18.7 22.3-55.4 27.3-66.9 5.1-11.5 7.9-20.2 14.4-31s90.6-59.7 90.6-59.7 23-1.4 36.7-6.5c13.7-5.1 48.3-20.2 62.6-30.2 7.6-5.3 15.9-11.2 23-17.7 11.9-10.8 21.8-22.7 28.1-31.3 10-13.7 28.1-45.3 31.6-63.3s5.1-33.1 0-53.9c-5-20.7-13.4-39.2-21.5-50.9-9.9-14.4-19-24.7-28.3-32.7-15.2-13.3-24.3-16.9-24.3-16.9s-66.3-37.7-80.8-31.8c-137.4 56-405.4 447.5-405.4 447.5l-107.6 178.1s148.4-22.2 202.6-33.9l-.1.1z" clip-path="url(#bi)"/></g><g clip-path="url(#bg)"><defs><path id="bk" d="M101.4 1339.6h995.8V2047H101.4z"/></defs><clipPath id="bl"><use overflow="visible" xlink:href="#bk"/></clipPath><path fill="#231F20" stroke="#231F20" stroke-miterlimit="10" d="M226.6 1914.7c.3-.2 60.5-5.8 60.9-6 15.8-11.3 56.8-35.7 120.4-50.2 54.4-12.3 192.9 20.2 234.9-1.1 77.5-39.3 158.3-327.4 43.4-441.1-39.1-38.7-92.3-55.5-137.6-59.9-36.5-3.6-68 16.9-82.8 24.5C351 1440 253 1487 251.2 1487" clip-path="url(#bl)" opacity=".38"/></g><g clip-path="url(#bg)"><defs><path id="bm" d="M218.7 1907.2c.3-.2 61.9-1.1 62.4-1.3 15.8-11 55.2-39.4 118.9-53.5 54.4-12 192.9 19.6 234.9-1.1 77.5-38.2 109.9-184 81.7-365-3.8-20.4-62.9-173.4-166.6-177.2-129.4-4.7-305.3 159.6-305.4 159.1"/></defs><clipPath id="bn"><use overflow="visible" xlink:href="#bm"/></clipPath><linearGradient id="bo" x1="127.296" x2="585.468" y1="-983.19" y2="-902.401" gradientTransform="matrix(1.079 0 0 -1.079 102.042 604.239)" gradientUnits="userSpaceOnUse"><stop offset="0" stop-color="#de6297"/><stop offset=".342" stop-color="#dd64a5"/><stop offset="1" stop-color="#64136f"/></linearGradient><path fill="url(#bo)" d="M281.3 1902.7s55-33.7 81.2-40.2c13.7-3.5 28.1-9 45.7-11.5 16.4-2.4 36.1-2.4 50.7-2.2 19.3.2 102.1 12.2 109.2 12.2 7.1 0 26.7 3.6 47.5-1.4 20.8-5.1 50-28.7 60.4-41 9-10.4 24.2-33 29.5-51.6 8.1-27.9 14.4-63.8 16.5-75.7 5.5-29.5 4.5-70.1 3.8-93.5-.6-18.1-2.5-61.1-3.8-72.6-2.1-18.1-2.1-28.6-4.5-38.1-27.4-105.6-140.2-132.1-185-131.5-68.3.9-106.8 29-131.3 59.3-18.8 23.3-119.9 72.1-119.9 72.1l-18.9 293.3 18.9 122.4z" clip-path="url(#bn)"/><g><path fill="#231F20" stroke="#231F20" stroke-miterlimit="10" d="M90.3 2048c.2-.4 87 32.2 125.3 17.5 14.7-5.6 20.8-17.7 22.1-19.1 23.5-35.1 42-68.9 52.1-118.4 8.8-43.2-11.9-118-8.6-168.9 1.8-29.7 25.4-51.5 47-59 18-6.4-217.7-214.3-218.2-214.3" opacity=".38"/></g><g><defs><path id="bp" d="M688.7 1587.2c0 42.5-27.2 82.3-72.1 104.8-27.6 13.7-63.2 19.4-99.3 19.4-94.6 0-171.3-55.6-171.3-124.2S422.7 1463 517.4 1463s171.3 55.6 171.3 124.2z"/></defs><clipPath id="bq"><use overflow="visible" xlink:href="#bp"/></clipPath><path fill="#231F20" stroke="#231F20" stroke-miterlimit="10" d="M433.6 1695.1c.9 1 1.5 2.3 1.5 3.7v2.7c.5 1.1-.8-1 0 0 19.9 3.6 59.8 10.4 77.7 9.8 20.6-.6 46.7-1.1 66-4.3 13.3-2.2 51.3-12 69.8-32.3 5.7-6.4 18.1-18.9 24.6-30 9.8-17 15.3-31.2 16.5-39.5.9-6.4.9-16.5.2-25.9-.9-11.9-4-23.4-5.2-27.1-2.5-6.8-9.8-16-15.3-23.5-9.2-12.8-20.6-21.4-23.7-24.1-5.2-4.5-24.6-17.7-24.6-17.7H605" clip-path="url(#bq)" opacity=".3"/></g><g><defs><path id="br" d="M36 2184.3s157.5-34.4 167.2-95.1c36.3-12.7 68.3-110.7 78.4-160.1 8.8-43.2-11.9-118-8.6-168.9 1.8-29.7 16.2-47.7 37.9-55.2 18-6.3 51-9.6 89.1-6.2 56.9 5.2 126.2 18.6 183.5 2.8 36.3-10 62.6-33.7 80.9-66.4 34.7-61.9-4-136.8-55.7-159.1-12.4-5.4-36.1-10.9-53.1-10.9-27.5 0-82.8 3.7-123.3 20-133 53.8-331.3 25.3-331.3 25.3"/></defs><clipPath id="bs"><use overflow="visible" xlink:href="#br"/></clipPath><linearGradient id="bt" x1="-22.223" x2="549.636" y1="-1115.199" y2="-1115.199" gradientTransform="matrix(1.079 0 0 -1.079 102.042 604.239)" gradientUnits="userSpaceOnUse"><stop offset="0" stop-color="#d564a5"/><stop offset=".342" stop-color="#962e8b"/><stop offset="1" stop-color="#64136f"/></linearGradient><path fill="url(#bt)" d="M125.9 2146c61.4-24.9 121.1-107.8 136-140.8 14.9-33.1 24.8-78.2 26.9-90.7 1.1-6.7 5.8-42.4-.8-68.9-11.4-45.6-13.5-54.8-13.3-65.7.1-9.3-.1-30 8.8-41.5s28.1-26.1 41-30.2c13.6-4.3 33.3-7.9 51.4-7.9 14.6 0 33 2.2 55.1 5.1 21.8 2.9 67 7.9 84.2 7.9 17.2 0 47-1.9 67-5.1 13.8-2.2 53.1-11.8 72.2-31.6 5.9-6.3 17.4-19.9 23.8-31 8.5-14.8 12.2-30 13.4-38.1 1-6.2 3.1-16 3.3-25 .2-11.7-2.1-22.6-3.3-26.1-2.8-6.7-7.4-15.3-13.1-22.9-9.5-12.6-21.1-23.3-24.4-26-5.2-4.3-54.9-56.2-54.9-56.2l-498.3 41.2v560s-25.9 76-22.8 102.1c3 23 34-3 47.8-8.6z" clip-path="url(#bs)"/><g><path fill="#231F20" stroke="#231F20" stroke-miterlimit="10" d="M101.4 1895.1s57.6-22.6 87.6-42.6c24.4-16.3 29.1-18.7 51.4-50.6s27.4-64.8 39.7-82.4c4.1-5.7 9.6-11.9 15.6-17.8 12.9-12.5 29.3-24.3 46.7-28.9 24.6-6.5 37.5-8.5 61.3-8.1 23.7.4 48.9.4 61.5-7.3 13.8-8.4 23.1-18 37.4-38.1 8.1-11.3 20.5-45.1 22.1-60.3 2.3-21.1 5.9-26.8 2.1-47.9-17-93.9-102.4-118.4-102.4-118.4l-323.1 94.2v408.2z" opacity=".38"/></g><g><defs><path id="bu" d="M-64.3 1676.6c79.7-7.3 284.7-73.1 284.7-153.2s64.9-145 145-145 145 64.9 145 145c0 54.6-27 100.1-71.6 124.8 0 0-3.5 1-4 1.1-.6.2-1.9.6-3 .8-.8.1-9 .7-9.4.8-4.3 1-25.4 1.7-42.4 2.1-9.5.2 5.6 25.3 2.7 32.3-48.5 119.2-288.6 338.6-288.7 338.6"/></defs><clipPath id="bv"><use overflow="visible" xlink:href="#bu"/></clipPath><g clip-path="url(#bv)"><defs><path id="bw" d="M79.5 1458.5c.1-.1 22.1 409.5 22.2 409.4 6.9-6.4 58.5-21 102.6-50 45.5-29.8 64.3-109.9 89.9-131.1 15.1-12.5 33.8-28.3 57.3-32.9 35.6-7.1 72.1 1.1 94.2-9.8 54.5-15.1 89.8-116.9 70.8-157.2L442 1279"/></defs><clipPath id="bx"><use overflow="visible" xlink:href="#bw"/></clipPath><linearGradient id="by" x1="-75.835" x2="368.688" y1="-1041.039" y2="-784.394" gradientTransform="matrix(1.079 0 0 -1.079 102.042 604.239)" gradientUnits="userSpaceOnUse"><stop offset="0" stop-color="#64136f"/><stop offset=".423" stop-color="#962e8b"/><stop offset=".786" stop-color="#dd62a5"/><stop offset=".995" stop-color="#dd6297"/></linearGradient><path fill="url(#by)" d="M101.4 1868.2s60.3-18.2 88.2-39.2c24.6-18.6 27-18 48.9-47.8 21.9-29.8 32-55 46.4-69.8 14.4-14.8 30.2-46.4 56.1-49.3 25.9-2.9 43.8-4.1 61.5-4.3 23.4-.2 44.9-3.6 57.4-10.8 13.6-7.9 28.1-23.6 37.2-36.4 3.2-4.4 9.8-15.9 14.2-27.5 4.5-12.3 6.9-24.8 7.6-28.8 2.5-14.4 3.5-19.7 2.7-39.8-.8-20.1-22.6-66.9-26.8-72.5-45.8-61.2-90.5-77-131.9-78-21.9-.6-138.9 15.6-154.6 80.1-14.7 60.2-98 23.2-106.8 43-39 86.9-.1 381.1-.1 381.1z" clip-path="url(#bx)"/></g><defs><path id="bz" d="M101.4 1486.8h995.8v560.1H101.4z"/></defs><clipPath id="bA"><use overflow="visible" xlink:href="#bz"/></clipPath><linearGradient id="bB" x1="-30.474" x2="175.045" y1="-915.144" y2="-840.341" gradientTransform="matrix(1.079 0 0 -1.079 102.042 604.239)" gradientUnits="userSpaceOnUse"><stop offset="0" stop-color="#8a3771" stop-opacity="0"/><stop offset=".907" stop-color="#8a3771" stop-opacity=".936"/><stop offset=".969" stop-color="#8a3771"/></linearGradient><path fill="url(#bB)" d="M99.3 1674.4c-.2.1 38.3-31.5 55.1-43.2 29-20.1 79.7-31 101.4-44.8 13.2-8.4 19-17.6 24.5-26.5 5.1-8.2 7.3-18.1 7.6-34.5.1-6.8-.6-13.8-1.2-19-1.6-14-4.4-18.8-4.6-19.3H99.3v187.3z" clip-path="url(#bA)"/><g><defs><path id="bC" d="M94.3 1525.2c.9-5.3-1.4-10.7-1.4-16.3 0-52.9 42.9-95.8 95.8-95.8s95.8 42.9 95.8 95.8c0 43-28.3 79.3-67.3 91.4-9 2.8-114.4 80.2-124.3 80.2"/></defs><clipPath id="bD"><use overflow="visible" xlink:href="#bC"/></clipPath><linearGradient id="bE" x1="170.446" x2="-35.924" y1="-816.166" y2="-891.278" gradientTransform="matrix(1.079 0 0 -1.079 102.042 604.239)" gradientUnits="userSpaceOnUse"><stop offset="0" stop-color="#5c2567"/><stop offset=".056" stop-color="#69266f"/><stop offset=".135" stop-color="#742877"/><stop offset=".22" stop-color="#782879"/><stop offset=".531" stop-color="#962e8b"/><stop offset=".631" stop-color="#9c338d"/><stop offset=".759" stop-color="#ab4094"/><stop offset=".901" stop-color="#c5579f"/><stop offset=".913" stop-color="#c859a0"/></linearGradient><path fill="url(#bE)" d="M101.4 1670.7c-.2.1 36.5-31 52.5-42.4 27.6-19.7 74.1-27.3 96.6-44 21.9-12.8 40.4-49.4 39.8-65.5 5.2-33.2-30.3-105-83-115-32.2-6.1-95.5 27-105.9 55.3-18.2 49.7 0 211.6 0 211.6z" clip-path="url(#bD)"/></g><g><defs><path id="bF" d="M1144.7 2260.5c0-.3-222.8-24.3-222.7-24.7.9-12.1 1.9-71.3 13-149.7 3.2-22.6 17.3-59.8 23.8-89 4.3-19.2 2.5-36.5 1.9-38.7-32.9-133.9 30.9-248.2 139.1-305.8"/></defs><clipPath id="bG"><use overflow="visible" xlink:href="#bF"/></clipPath><linearGradient id="bH" x1="863.729" x2="863.729" y1="-972.661" y2="-1512.289" gradientTransform="matrix(1.079 0 0 -1.079 102.042 604.239)" gradientUnits="userSpaceOnUse"><stop offset="0" stop-color="#64136f"/><stop offset=".08" stop-color="#6c1b73"/><stop offset=".24" stop-color="#782879"/><stop offset=".449" stop-color="#962e8b"/><stop offset=".632" stop-color="#b24498"/><stop offset=".847" stop-color="#c85aa0"/><stop offset="1" stop-color="#d154ad"/></linearGradient><path fill="url(#bH)" d="M947.3 2051.2c.4-14.9 3.7-33.7 11.5-54-3.9-22.3-7.1-60.7-8.7-77.1-2.3-22.3-1.5-46.1 0-63.3 1.5-17.3 6.4-46.7 13.8-65.4 7.2-18.2 15.3-32 27.6-49.8 7-10 18.2-27.3 43.6-46.7 25.4-19.4 53.6-37.3 62.2-40.9 8.5-3.6 6.6 295.1 0 393.2-3 45.4 74.8 236.5-37.3 178-16-8.5-114.9-93.9-112.7-174z" clip-path="url(#bG)"/></g></g></g></g></g><path fill="none" d="M101.4 1286.5h995.8v994.9H101.4z"/></g></switch></svg>