<svg xmlns="http://www.w3.org/2000/svg" viewBox="0 0 511.023 511.023"><g fill="#041028"><path d="M95.511 295.023c9.318 0 22.514 1.445 32.462 8.333 8.016 5.55 13.049 14.022 15.246 25.667h224.584c2.197-11.645 7.23-20.117 15.246-25.667 9.948-6.888 23.144-8.333 32.462-8.333 9.948 0 17.162-9.533 14.423-19.121-7.938-27.784-28.502-48.199-59.468-59.037-22.151-7.753-42.116-7.842-42.955-7.842h-20.288l-4.437-17.745c19.247-14.422 31.725-37.408 31.725-63.255v-23.738c-5.995 4.556-6.449 5.134-13.765 9.481-12.74 7.556-26.252 13.26-41.123 13.26-9.269 0-18.048-2.237-25.462-6.579-8.281-4.849-13.97-11.662-18.987-17.675-9.163-10.976-10.5-11.833-23.771-15.891-18.089-5.535-21.087-8.393-34.212-18.236-.905 6.88-.679 5.421-.679 59.378 0 25.847 12.478 48.833 31.725 63.255l-4.437 17.745h-20.288c-.839 0-20.804.089-42.955 7.842-30.966 10.838-51.529 31.253-59.468 59.037-2.733 9.565 4.451 19.121 14.422 19.121z"/><path d="M220.177 58.193c18.938 5.793 25.075 9.836 38.027 25.354 3.781 4.529 7.352 8.808 11.116 11.012 4.056 2.375 9.879 3.074 15.977 1.917 8.647-1.642 18.115-6.997 25.532-11.875l22.817-17.339c-6.37-42.965-47.067-73.603-91.263-66.141-23.042 3.889-43.14 17.854-54.906 37.74 19.952 14.962 18.742 15.062 32.7 19.332zM111.511 359.023c-8.284 0-15 6.716-15 15v13c0 3.979 1.58 7.794 4.394 10.606l43.606 43.606v54.787c0 8.284 6.716 15 15 15h192c8.284 0 15-6.716 15-15v-54.787l43.606-43.606a14.998 14.998 0 0 0 4.394-10.606v-13c0-8.284-6.716-15-15-15z"/></g></svg>