<?xml version="1.0" encoding="utf-8"?>
<!-- Generator: Adobe Illustrator 17.1.0, SVG Export Plug-In . SVG Version: 6.00 Build 0)  -->
<!DOCTYPE svg PUBLIC "-//W3C//DTD SVG 1.1//EN" "http://www.w3.org/Graphics/SVG/1.1/DTD/svg11.dtd">
<svg version="1.1" id="Layer_1" xmlns="http://www.w3.org/2000/svg" xmlns:xlink="http://www.w3.org/1999/xlink" x="0px" y="0px"
	 viewBox="882.8 241.5 303.6 232.6" enable-background="new 882.8 241.5 303.6 232.6" xml:space="preserve">
<g id="Layer_1_1_">
	<path class="smie_logo_none" fill="#a1a1a1" d="M1047,468.9l134.8-141.1c6.2-6.5,6.2-17-0.3-23.5l-57.2-57.8c-3.1-3.1-7.6-5.1-11.9-5.1H957.5
		c-4.5,0-9.1,2-12.2,5.1l-57.8,60.1c-6.2,6.5-6.2,17,0,23.5l135.1,138.8C1029.4,475.7,1040.5,475.7,1047,468.9z"/>
	<path class="smie_logo_none smie_green" d="M1034.5,286.5v126.6c0,5.1,6.2,7.9,9.9,4.2l95.2-93.5c3.7-3.7,3.7-9.9-0.3-13.6l-32.9-30.9
		c-1.7-1.7-4-2.5-6.5-2.5h-56.4C1038.8,277.2,1034.5,281.4,1034.5,286.5z"/>
</g>
</svg>
