<?xml version="1.0" encoding="utf-8"?>
<!-- Generator: Adobe Illustrator 17.1.0, SVG Export Plug-In . SVG Version: 6.00 Build 0)  -->
<!DOCTYPE svg PUBLIC "-//W3C//DTD SVG 1.1//EN" "http://www.w3.org/Graphics/SVG/1.1/DTD/svg11.dtd">
<svg version="1.1" id="Layer_1" xmlns="http://www.w3.org/2000/svg" xmlns:xlink="http://www.w3.org/1999/xlink" x="0px" y="0px"
	 viewBox="318.7 8.3 466 521.6" enable-background="new 318.7 8.3 466 521.6" xml:space="preserve">
<g id="Layer_1_1_">
	<polygon fill="#FFFFFF" points="336.7,390.6 336.7,152.1 552,27.2 767.3,152.1 767.3,390.6 552,511.6 	"/>
	<path fill="#205400" d="M390.8,353.5v-166c0-5.7,2.8-10.8,7.6-13.6l145-87c5.1-3.1,11.3-3.1,16.4,0l144.7,87
		c4.8,2.8,7.6,8.2,7.6,13.6v166c0,5.7-3.1,11-7.9,13.9l-145,84.1c-4.8,2.8-11,2.8-16.1,0l-145-84.1
		C393.9,364.3,390.8,359.2,390.8,353.5z"/>
	<path fill="none" stroke="#205400" stroke-width="35" stroke-miterlimit="10" d="M337.3,369.4V172.2c0-14.7,7.9-28.6,20.7-36.3
		L530.5,32.6c13.3-7.9,30-7.9,43.3,0L746,136c12.7,7.6,20.4,21.5,20.4,36.3v197.4c0,15-7.9,28.9-21,36.5l-172.2,100
		c-13,7.6-29.2,7.6-42.5,0l-172.2-100C345.2,398.5,337.3,384.7,337.3,369.4z"/>
	<path fill="#FFFFFF" stroke="#FFFFFF" stroke-miterlimit="10" d="M571.5,182.7c0.3-2.3,2.3-7.1,5.9-9.6c2.8-2,6.2-4.8,13.3-3.4
		c6.5,1.1,10.5,4.5,12.7,7.4c0.3,0.3,0.3,0.6,0.6,1.1c1.1,2.5,1.4,5.4,1.1,8.2l-2.5,16.4c-0.6,4,0.8,7.9,4,9.9
		c0.3,0.3,0.8,0.6,1.1,0.6s0.8,0,1.1,0c4.5-0.3,8.2-4,9.1-8.5c0.6-4.2,2-12.5,2.8-16.4c0.8-5.7,0-8.2-0.8-12.2
		c-0.8-3.4-2.8-7.9-5.7-11c-6.8-6.8-14.7-10.8-20.4-11.9c-5.9-0.8-16.4,0.6-23.2,4.5c-6.2,3.7-9.1,9.3-11,13s-3.4,8.2-4,12.5
		l-28.6,174.5L571.5,182.7z"/>
	<path fill="#FFFFFF" stroke="#FFFFFF" stroke-miterlimit="10" d="M527.6,356.1c-0.3,2.3-2.3,7.1-5.9,9.6c-2.8,2-6.2,4.8-13.3,3.4
		c-6.5-1.1-10.5-4.5-12.7-7.4c-0.3-0.3-0.3-0.6-0.6-1.1c-1.1-2.5-1.4-5.4-1.1-8.2l2.5-16.4c0.6-4-0.8-7.9-4-9.9
		c-0.3-0.3-0.8-0.6-1.1-0.6c-0.3,0-0.8,0-1.1,0c-4.5,0.3-8.2,4-9.1,8.5c-0.6,4.2-2,12.5-2.8,16.4c-0.8,5.7,0,8.2,0.8,12.2
		c0.8,3.4,2.8,7.9,5.7,11c6.8,6.8,14.7,10.8,20.4,11.9c5.9,0.8,16.4-0.6,23.2-4.5c5.9-3.4,8.8-9.3,11-13c2-3.7,3.4-8.2,4-12.5
		L572.1,181L527.6,356.1z"/>
	<path fill="#FFFFFF" d="M1047,468.9l134.8-141.1c6.2-6.5,6.2-17-0.3-23.5l-57.2-57.8c-3.1-3.1-7.6-5.1-11.9-5.1H957.5
		c-4.5,0-9.1,2-12.2,5.1l-57.8,60.1c-6.2,6.5-6.2,17,0,23.5l135.1,138.8C1029.4,475.7,1040.5,475.7,1047,468.9z"/>
	<path fill="#2F5A04" d="M1034.5,286.5v126.6c0,5.1,6.2,7.9,9.9,4.2l95.2-93.5c3.7-3.7,3.7-9.9-0.3-13.6l-32.9-30.9
		c-1.7-1.7-4-2.5-6.5-2.5h-56.4C1038.8,277.2,1034.5,281.4,1034.5,286.5z"/>
</g>
</svg>
