<?xml version="1.0" encoding="utf-8"?>
<!-- Generator: Adobe Illustrator 17.1.0, SVG Export Plug-In . SVG Version: 6.00 Build 0)  -->
<!DOCTYPE svg PUBLIC "-//W3C//DTD SVG 1.1//EN" "http://www.w3.org/Graphics/SVG/1.1/DTD/svg11.dtd">
<svg version="1.1" xmlns="http://www.w3.org/2000/svg" xmlns:xlink="http://www.w3.org/1999/xlink" x="0px" y="0px" width="286px"
	 height="274.5px" viewBox="0 0 286 274.5" enable-background="new 0 0 286 274.5" xml:space="preserve">
<g id="Layer_2" display="none">
	<rect x="-62.5" y="-18.5" display="inline" fill="#C1272D" stroke="#000000" stroke-miterlimit="10" width="762" height="612"/>
</g>
<g id="Layer_1">
	<polygon fill="#FFFFFF" points="18,188 18,71 119.1,9.7 220,71 220,188 119,247.3 	"/>
	<path fill="#205400" d="M37.6,169.8V88.4c0-2.8,1.4-5.3,3.8-6.7l71.2-42.6c2.5-1.5,5.6-1.5,8.1,0l71,42.6c2.4,1.4,3.8,4,3.8,6.7
		v81.4c0,2.8-1.5,5.4-3.9,6.8l-71.1,41.2c-2.4,1.4-5.4,1.4-7.9,0l-71.1-41.2C39.1,175.2,37.6,172.6,37.6,169.8z"/>
	<path fill="none" stroke="#205400" stroke-width="17" stroke-miterlimit="10" d="M11.3,177.7V80.9c0-7.3,3.8-14,10.1-17.8L106,12.4
		c6.6-3.9,14.8-3.9,21.3,0l84.4,50.6c6.2,3.7,10.1,10.5,10.1,17.8v96.8c0,7.4-3.9,14.2-10.3,17.9l-84.5,49c-6.4,3.7-14.4,3.7-20.8,0
		l-84.5-49C15.3,191.9,11.3,185.1,11.3,177.7z"/>
	<path fill="#FFFFFF" stroke="#FFFFFF" stroke-miterlimit="10" d="M126.2,86.1c0.2-1.1,1.1-3.5,2.9-4.7c1.4-1,3.1-2.3,6.5-1.7
		c3.2,0.6,5.1,2.2,6.3,3.6c0.1,0.1,0.2,0.3,0.3,0.5c0.6,1.3,0.8,2.7,0.5,4.1l-1.3,8c-0.3,1.9,0.4,3.9,2,4.9c0.2,0.1,0.4,0.2,0.6,0.3
		c0.2,0,0.4,0,0.6,0c2.3-0.2,4.1-2,4.4-4.2c0.3-2,1-6.1,1.3-8.1c0.4-2.7,0.1-4-0.4-6c-0.4-1.7-1.4-3.9-2.8-5.4
		c-3.3-3.4-7.2-5.3-10.1-5.8c-2.9-0.5-8,0.3-11.4,2.3c-2.9,1.7-4.3,4.5-5.4,6.4c-1,1.9-1.6,4-1.9,6.1l-14,85.6L126.2,86.1z"/>
	<path fill="#FFFFFF" stroke="#FFFFFF" stroke-miterlimit="10" d="M104.7,171c-0.2,1.1-1.1,3.5-2.9,4.7c-1.4,1-3.1,2.3-6.5,1.7
		c-3.2-0.6-5.1-2.2-6.3-3.6c-0.1-0.1-0.2-0.3-0.3-0.5c-0.6-1.3-0.8-2.7-0.5-4.1l1.3-8c0.3-1.9-0.4-3.9-2-4.9
		c-0.2-0.1-0.4-0.2-0.6-0.3c-0.2,0-0.4,0-0.6,0c-2.3,0.2-4.1,2-4.4,4.2c-0.3,2-1,6.1-1.3,8.1c-0.4,2.7-0.1,4,0.4,6
		c0.4,1.7,1.4,3.9,2.8,5.4c3.3,3.4,7.2,5.3,10.1,5.8c2.9,0.5,8-0.3,11.4-2.3c2.9-1.7,4.3-4.5,5.4-6.4c1-1.9,1.6-4,1.9-6.1l14-85.6
		L104.7,171z"/>
	<path fill="#205400" stroke="#FFFFFF" stroke-width="4" stroke-miterlimit="10" d="M213.7,268.5l66.2-69.2
		c3.1-3.3,3.1-8.4-0.1-11.6l-28.1-28.4c-1.6-1.6-3.7-2.5-5.9-2.5h-75.9c-2.3,0-4.4,0.9-6,2.5l-28.4,29.5c-3.1,3.2-3.1,8.3,0,11.6
		l66.3,68.1C205.1,272,210.5,271.9,213.7,268.5z"/>
	<path fill="#FFFFFF" d="M207.7,179.2v62.1c0,2.6,3.1,3.9,4.9,2.1l46.6-45.8c1.9-1.8,1.8-4.8-0.1-6.6l-16-15.1
		c-0.8-0.8-2-1.2-3.1-1.2h-27.7C209.7,174.6,207.7,176.7,207.7,179.2z"/>
</g>
</svg>
