<svg xmlns="http://www.w3.org/2000/svg" viewBox="328.3 17.7 446.8 503"><path fill="#FFF" d="M336.7 390.6V152.1L552 27.2l215.3 124.9v238.5L552 511.6z"/><path fill="#205400" d="M390.8 353.5v-166c0-5.7 2.8-10.8 7.6-13.6l145-87c5.1-3.1 11.3-3.1 16.4 0l144.7 87c4.8 2.8 7.6 8.2 7.6 13.6v166c0 5.7-3.1 11-7.9 13.9l-145 84.1c-4.8 2.8-11 2.8-16.1 0l-145-84.1c-4.2-3.1-7.3-8.2-7.3-13.9z" class="smie_green"/><path fill="none" stroke="#205400" stroke-miterlimit="10" stroke-width="17" d="M337.3 369.4V172.2c0-14.7 7.9-28.6 20.7-36.3L530.5 32.6c13.3-7.9 30-7.9 43.3 0L746 136c12.7 7.6 20.4 21.5 20.4 36.3v197.4c0 15-7.9 28.9-21 36.5l-172.2 100c-13 7.6-29.2 7.6-42.5 0l-172.2-100c-13.3-7.7-21.2-21.5-21.2-36.8z" class="smie_green_s"/><path fill="#FFF" stroke="#FFF" stroke-miterlimit="10" d="M571.5 182.7c.3-2.3 2.3-7.1 5.9-9.6 2.8-2 6.2-4.8 13.3-3.4 6.5 1.1 10.5 4.5 12.7 7.4.3.3.3.6.6 1.1 1.1 2.5 1.4 5.4 1.1 8.2l-2.5 16.4c-.6 4 .8 7.9 4 9.9.3.3.8.6 1.1.6h1.1c4.5-.3 8.2-4 9.1-8.5.6-4.2 2-12.5 2.8-16.4.8-5.7 0-8.2-.8-12.2-.8-3.4-2.8-7.9-5.7-11-6.8-6.8-14.7-10.8-20.4-11.9-5.9-.8-16.4.6-23.2 4.5-6.2 3.7-9.1 9.3-11 13s-3.4 8.2-4 12.5L527 357.8l44.5-175.1z"/><path fill="#FFF" stroke="#FFF" stroke-miterlimit="10" d="M527.6 356.1c-.3 2.3-2.3 7.1-5.9 9.6-2.8 2-6.2 4.8-13.3 3.4-6.5-1.1-10.5-4.5-12.7-7.4-.3-.3-.3-.6-.6-1.1-1.1-2.5-1.4-5.4-1.1-8.2l2.5-16.4c.6-4-.8-7.9-4-9.9-.3-.3-.8-.6-1.1-.6h-1.1c-4.5.3-8.2 4-9.1 8.5-.6 4.2-2 12.5-2.8 16.4-.8 5.7 0 8.2.8 12.2.8 3.4 2.8 7.9 5.7 11 6.8 6.8 14.7 10.8 20.4 11.9 5.9.8 16.4-.6 23.2-4.5 5.9-3.4 8.8-9.3 11-13 2-3.7 3.4-8.2 4-12.5L572.1 181l-44.5 175.1z"/></svg>