<svg xmlns="http://www.w3.org/2000/svg" viewBox="0 0 488 488"><path fill="#041028" d="M244 0C109.5 0 0 109.5 0 244s109.5 244 244 244 244-109.5 244-244S378.5 0 244 0zm-72 77c-14.9 20.7-29.2 46.8-39 78.9H85c19.4-35 50-62.9 87-78.9zM69.6 295.6c-4.8-16.4-7.5-33.7-7.5-51.6s2.6-35.2 7.5-51.6h54.7c-2.7 16-4.2 33.2-4.2 51.6s1.6 35.6 4.2 51.6H69.6zM85 332.1h48c9.8 32 24.2 58.2 39 78.9-37-16-67.6-43.9-87-78.9zm140.7 85.8c-17.6-17.8-39.7-46.1-54.1-85.8h54.1v85.8zm0-122.3h-64.1c-3.1-15.8-4.9-33-4.9-51.6s1.8-35.8 4.9-51.6h64.2v103.2h-.1zm0-139.7h-54.3c14.4-40.1 36.6-68.3 54.3-86.1v86.1zm177.3 0h-48c-9.8-32-24.2-58.2-39-78.9 37 16 67.6 43.9 87 78.9zM262.3 70.1c17.6 17.8 39.7 46.1 54.1 85.8h-54.1V70.1zm0 122.3h64.1c3.1 15.8 4.9 33 4.9 51.6s-1.8 35.8-4.9 51.6h-64.2V192.4h.1zm0 139.7h54.3c-14.4 40.1-36.6 68.4-54.3 86.1v-86.1zM316 411c14.9-20.7 29.2-46.8 39-78.9h48c-19.4 35-50 62.9-87 78.9zm47.6-115.4c2.7-16 4.2-33.2 4.2-51.6s-1.6-35.6-4.2-51.6h54.7c4.8 16.4 7.5 33.7 7.5 51.6s-2.6 35.2-7.5 51.6h-54.7z"/></svg>